<?xml version="1.0" encoding="utf-8"?>
<svg viewBox="120.216 73.984 264.63 268.193" xmlns="http://www.w3.org/2000/svg">
  <path fill="#fffcd2" d=" M 290.32 80.49 L 289.75 85.48 Q 287.86 89.51 285.18 92.96 Q 284.50 93.83 283.54 94.39 Q 283.11 94.64 282.85 95.07 C 280.61 98.77 276.47 100.41 272.93 102.57 Q 272.39 102.90 272.33 102.28 Q 272.29 101.92 272.51 101.46 Q 274.83 97.91 277.62 94.75 Q 280.68 91.29 282.28 88.84 Q 284.33 85.72 286.43 82.53 L 289.64 77.48 Q 289.94 77.02 290.09 77.55 Q 290.47 78.88 290.32 80.49 Z"/>
  <path fill="#06171b" d=" M 246.75 81.86 Q 247.88 86.34 247.38 91.15 Q 247.33 91.58 247.77 91.58 L 258.80 91.55 A 1.09 1.08 -1.7 0 0 259.89 90.40 Q 259.64 86.02 261.56 82.50 Q 267.87 79.22 274.75 81.45 C 276.57 82.04 277.40 83.21 278.76 84.37 Q 279.17 84.72 279.71 84.67 Q 282.98 84.39 286.43 82.53 Q 284.33 85.72 282.28 88.84 Q 280.68 91.29 277.62 94.75 Q 274.83 97.91 272.51 101.46 Q 272.37 101.41 272.22 101.39 Q 271.94 101.35 271.89 101.07 L 271.77 100.49 C 272.85 98.00 275.69 88.31 272.56 86.65 Q 271.82 86.26 271.71 86.52 L 268.10 86.61 Q 267.48 86.62 267.70 87.20 C 270.09 93.47 263.24 103.62 259.01 108.74 Q 256.34 111.99 250.33 115.88 Q 241.95 121.32 239.33 122.36 Q 236.85 123.34 234.55 124.24 C 229.19 124.35 228.02 126.95 225.28 130.43 Q 225.57 127.13 225.51 124.51 Q 225.48 122.88 224.56 121.56 Q 224.27 121.14 223.77 121.09 Q 222.87 121.00 221.58 121.35 Q 216.82 123.59 212.99 127.96 Q 210.86 130.39 209.56 134.07 Q 209.51 133.91 209.46 133.76 Q 208.23 133.54 208.33 132.49 Q 208.57 130.13 208.59 127.10 A 1.15 1.14 -86.4 0 0 207.58 125.95 Q 206.56 125.83 205.23 126.84 Q 197.98 130.58 195.66 139.12 L 196.53 146.69 Q 196.59 147.22 197.12 147.15 Q 200.51 146.69 201.65 142.39 Q 201.71 146.02 204.23 147.36 C 208.76 149.76 214.50 144.06 217.50 141.40 C 220.45 138.78 224.96 138.34 228.76 137.49 Q 233.33 136.46 236.66 133.48 Q 237.19 132.53 238.13 132.03 Q 238.63 131.77 238.34 132.26 Q 237.76 133.21 237.03 134.08 Q 233.45 138.30 230.08 142.37 Q 228.49 144.29 228.94 148.44 Q 227.17 153.40 222.23 154.07 Q 215.22 155.02 210.73 157.18 Q 208.88 158.07 204.83 163.08 Q 204.25 163.80 201.49 165.58 Q 199.86 165.65 202.07 163.80 Q 202.79 163.19 203.20 162.52 Q 205.86 158.05 207.47 153.06 Q 207.67 152.43 207.02 152.34 Q 205.59 152.15 204.20 151.56 Q 203.70 151.35 203.17 151.38 L 199.13 151.60 Q 197.62 152.84 196.06 154.56 Q 194.43 156.34 192.82 157.28 Q 190.05 158.88 187.22 160.30 Q 186.75 160.53 186.84 161.05 L 187.28 163.78 Q 187.10 166.80 185.49 169.30 Q 182.50 171.41 179.06 169.98 Q 178.85 169.68 178.50 169.56 Q 176.34 166.59 178.00 163.90 A 0.84 0.83 -59.5 0 1 179.11 163.61 Q 180.25 164.24 181.07 165.59 Q 181.35 166.06 181.89 165.98 Q 183.41 165.76 183.27 164.18 C 182.81 159.21 176.89 156.51 173.43 160.93 Q 170.43 164.76 172.36 168.97 L 172.67 169.83 C 170.94 175.10 174.20 178.19 178.14 181.43 C 181.90 184.52 186.26 185.01 189.36 180.64 C 191.49 177.62 193.64 175.37 197.26 174.23 Q 197.53 174.15 202.31 173.41 Q 205.44 172.94 208.15 171.27 Q 211.35 169.89 216.51 166.99 Q 220.83 164.56 227.88 161.61 Q 231.75 159.98 234.79 159.88 C 239.29 159.74 243.46 161.11 247.64 162.46 L 254.07 166.15 Q 255.67 167.80 257.52 168.73 Q 259.28 169.61 261.58 169.14 Q 267.81 167.87 273.48 164.26 Q 279.41 160.48 283.82 156.59 Q 285.93 156.03 287.61 154.66 Q 288.02 154.33 287.49 154.34 C 282.00 154.51 277.32 155.90 271.40 155.66 Q 268.62 155.33 258.00 152.72 C 249.94 150.75 243.35 150.21 235.80 153.99 A 0.45 0.45 0.0 0 1 235.17 153.45 L 235.43 152.65 Q 238.40 151.55 239.48 149.26 A 2.38 2.35 -78.6 0 1 241.52 147.89 Q 251.85 147.48 261.67 149.05 C 266.76 149.87 273.64 149.57 276.36 144.22 C 278.21 140.58 280.32 136.53 283.65 134.14 Q 285.10 133.10 286.47 131.91 L 292.98 129.63 Q 293.59 129.42 292.97 129.22 C 286.04 127.05 280.97 128.77 274.68 131.42 C 266.87 134.70 258.16 132.23 249.71 134.06 L 240.56 133.50 Q 239.84 133.45 240.47 133.10 Q 240.61 133.02 240.75 132.92 Q 241.11 132.66 241.57 132.58 Q 243.84 132.19 245.28 131.20 Q 248.14 132.05 251.00 131.42 Q 258.76 129.70 266.24 126.99 Q 271.86 124.96 274.43 120.44 Q 279.84 110.93 290.24 109.15 L 294.70 108.93 Q 295.81 108.88 294.78 108.45 C 286.35 104.96 277.28 106.00 270.87 112.65 C 264.65 119.10 258.44 124.36 249.46 126.33 Q 248.80 126.48 249.36 126.10 C 253.26 123.45 257.48 120.37 260.62 116.70 Q 262.19 114.86 264.36 112.86 Q 265.50 111.81 267.63 108.66 Q 270.90 105.24 272.31 104.55 Q 276.48 102.51 280.51 100.20 Q 282.79 98.89 287.42 92.75 Q 289.48 90.01 289.75 85.48 L 290.32 80.49 L 291.35 86.08 Q 291.44 86.56 291.72 86.96 Q 294.01 90.37 296.69 90.47 L 293.08 97.39 A 0.81 0.80 25.7 0 0 293.48 98.50 Q 307.40 104.54 321.30 114.13 Q 322.21 114.76 323.26 114.89 Q 330.81 115.84 337.67 118.49 Q 336.27 118.25 336.33 121.84 Q 336.34 122.19 336.03 122.16 Q 335.98 122.15 335.94 122.18 Q 335.78 122.27 335.73 122.43 Q 335.39 123.62 334.94 124.81 Q 334.75 125.30 335.11 125.69 L 335.54 126.17 Q 335.10 126.39 335.60 126.92 Q 349.47 141.49 358.43 159.53 Q 364.66 172.04 367.21 185.72 Q 371.57 209.04 367.05 231.76 Q 366.12 236.43 365.02 240.93 C 362.75 250.29 359.28 258.74 354.26 267.29 Q 353.98 267.76 354.52 267.87 Q 355.54 268.09 356.46 267.46 L 360.59 267.45 Q 358.81 268.29 358.80 269.99 Q 358.78 272.46 358.59 274.90 Q 358.57 275.23 358.81 275.44 Q 359.02 275.63 359.01 275.75 L 348.79 276.47 Q 348.28 276.50 347.98 276.92 Q 325.18 307.97 288.80 320.39 Q 284.47 321.87 279.60 322.80 Q 274.77 323.72 270.41 324.41 Q 250.64 327.52 233.24 324.16 C 227.67 323.08 222.17 322.37 216.71 320.57 Q 202.68 315.93 190.62 308.10 C 186.10 305.16 181.20 302.55 177.35 299.05 Q 168.54 291.03 160.27 281.56 Q 158.00 278.96 156.28 275.93 C 153.11 270.37 149.32 264.89 146.60 259.37 Q 138.67 243.26 135.79 224.78 L 135.24 211.06 Q 134.94 200.13 135.84 193.50 Q 138.54 173.49 149.05 154.25 Q 152.11 149.26 155.21 144.28 Q 158.69 138.68 162.06 134.84 Q 170.27 125.49 179.48 117.13 Q 180.50 116.20 181.67 115.44 Q 188.50 110.98 195.39 106.60 Q 197.61 105.19 203.91 101.84 Q 208.61 99.34 212.13 96.51 Q 212.70 94.56 213.19 93.33 Q 213.77 91.87 213.51 91.08 Q 213.10 89.88 211.73 89.26 Q 211.46 89.23 211.21 88.81 L 212.08 88.87 A 1.12 1.10 22.7 0 0 213.02 88.49 Q 217.08 83.83 224.80 84.06 Q 226.70 84.12 228.19 84.91 Q 229.23 85.46 230.26 85.70 Q 232.65 86.24 233.76 85.51 Q 235.60 84.28 237.89 83.29 Q 234.75 89.03 232.81 91.30 Q 229.26 95.44 226.02 99.79 Q 225.07 100.31 225.11 101.30 A 0.23 0.23 0.0 0 1 224.99 101.52 L 224.73 101.66 Q 224.24 101.93 224.10 101.39 Q 224.05 101.19 223.93 101.05 Q 226.58 95.61 225.37 90.18 Q 225.26 89.68 224.79 89.48 Q 224.27 89.24 223.87 89.40 L 220.74 89.42 Q 220.16 89.42 220.34 89.98 C 222.94 98.36 213.14 106.95 208.83 112.32 Q 206.37 115.39 205.68 119.01 Q 205.03 120.21 205.31 121.36 Q 205.45 121.92 206.02 121.90 Q 209.26 121.78 210.94 124.04 Q 211.41 124.68 211.67 123.93 Q 213.43 118.72 215.60 114.70 Q 218.43 109.46 223.00 104.92 Q 225.43 102.50 228.65 101.01 C 234.03 98.52 240.34 94.92 239.65 87.88 Q 240.09 86.06 239.65 83.96 L 239.58 80.95 L 242.31 78.11 Q 242.65 77.76 243.14 77.67 Q 245.08 77.30 245.34 79.23 Q 245.57 80.92 246.75 81.86 Z M 238.37 117.48 Q 237.78 118.24 238.87 119.27 Q 239.24 119.62 239.66 119.34 C 242.69 117.35 244.86 114.48 246.90 111.49 C 248.75 108.76 251.46 106.77 253.91 104.45 Q 256.66 102.68 258.40 100.02 Q 258.81 99.40 258.12 99.67 Q 255.69 100.62 252.28 101.24 Q 247.15 102.17 242.20 106.19 C 239.02 108.77 238.01 113.42 238.37 117.48 Z M 226.70 118.25 L 228.24 120.56 Q 228.54 121.00 228.99 120.72 Q 230.84 119.62 231.05 117.76 Q 231.58 112.97 232.33 110.87 L 239.29 104.09 Q 239.84 103.55 239.08 103.67 Q 236.67 104.01 234.15 104.62 C 227.75 106.18 223.04 110.56 220.14 116.51 A 0.48 0.48 0.0 0 0 220.73 117.17 Q 224.06 116.04 226.70 118.25 Z M 332.44 148.82 Q 341.71 160.43 344.81 163.19 Q 348.09 166.10 349.29 167.55 A 1.40 1.38 -17.7 0 0 350.27 168.05 L 351.33 168.13 Q 352.04 168.19 351.80 167.52 C 349.42 160.89 345.63 155.85 342.64 149.87 Q 341.29 147.17 336.57 141.42 Q 325.74 129.53 321.46 125.79 Q 315.21 120.31 300.97 112.60 Q 300.52 112.35 300.03 112.52 Q 298.63 112.98 297.58 113.92 Q 297.06 114.38 297.75 114.45 Q 299.81 114.67 301.77 115.67 Q 315.29 122.58 324.51 135.84 Q 324.91 136.42 324.22 136.58 L 321.01 137.29 Q 319.80 137.56 320.72 138.38 L 332.44 148.82 Z M 167.94 141.87 Q 159.70 152.08 157.70 156.72 Q 155.35 162.14 152.70 167.46 A 0.52 0.52 0.0 0 0 153.08 168.21 L 163.68 169.97 A 0.43 0.42 -0.4 0 0 164.17 169.48 C 163.42 164.90 163.45 160.28 166.58 156.59 Q 169.65 152.95 175.27 151.49 L 178.71 151.39 A 0.28 0.27 -18.5 0 0 178.93 150.96 C 172.90 142.22 176.58 131.01 186.88 128.15 C 188.90 127.59 190.86 127.53 192.60 126.25 Q 194.43 124.90 196.23 123.76 Q 196.75 123.43 196.77 122.80 Q 196.85 119.46 197.75 116.46 Q 197.95 115.80 197.36 116.16 C 194.55 117.86 191.70 119.27 189.15 121.40 C 184.83 124.99 180.21 128.50 176.64 132.78 Q 174.71 135.10 172.83 136.84 Q 170.21 139.28 167.94 141.87 Z M 284.29 120.10 Q 283.07 120.32 282.70 120.89 Q 282.38 121.39 282.97 121.43 Q 293.11 122.16 301.63 127.35 Q 301.53 128.76 302.87 129.13 Q 304.51 129.58 307.43 128.94 Q 308.10 129.09 308.11 129.10 Q 309.28 129.72 308.41 128.72 Q 302.15 121.59 293.03 120.11 Q 290.04 118.13 286.75 118.08 Q 284.30 118.04 284.29 120.10 Z M 184.10 137.29 Q 182.18 138.31 181.91 140.46 Q 181.14 146.41 187.35 148.61 Q 188.22 148.92 187.88 148.07 Q 185.42 141.85 187.03 137.33 Q 187.73 135.35 185.88 136.34 L 184.10 137.29 Z M 290.32 147.66 L 299.59 149.57 A 0.54 0.54 0.0 0 1 299.90 150.44 L 290.08 162.64 Q 289.78 163.01 290.02 163.42 Q 293.61 169.41 294.91 177.01 C 295.54 180.69 295.34 184.49 295.35 188.32 C 293.73 198.27 289.14 205.92 282.98 213.73 Q 280.39 217.02 277.65 219.24 Q 266.85 227.97 252.99 238.51 C 248.55 241.88 243.24 246.35 240.51 250.34 C 236.81 255.73 232.45 261.90 230.47 268.38 Q 226.27 280.65 227.74 293.20 C 228.68 301.25 231.80 308.39 235.76 315.26 A 1.43 1.40 77.8 0 0 236.82 315.96 L 246.54 317.08 L 251.67 317.33 L 263.73 316.68 L 274.96 315.11 Q 275.53 315.03 275.06 314.70 L 270.00 311.14 Q 266.38 308.89 262.01 307.90 Q 259.22 307.26 261.11 305.10 Q 262.90 303.06 261.60 302.11 Q 256.52 291.44 253.32 281.25 L 252.97 268.44 Q 252.95 267.63 253.77 267.63 L 254.27 267.63 A 0.40 0.39 -5.2 0 1 254.66 267.95 Q 254.96 269.52 255.57 270.67 Q 255.93 271.35 256.19 270.63 L 260.44 258.92 Q 264.65 248.17 271.41 239.87 Q 275.11 240.56 276.86 242.89 L 273.04 250.98 Q 272.95 251.18 273.14 251.29 L 273.45 251.47 Q 273.56 251.53 273.61 251.42 C 274.79 248.62 277.87 245.75 279.82 243.36 Q 282.14 240.50 285.06 237.54 Q 290.98 231.57 296.30 224.91 Q 297.81 224.23 299.63 227.55 Q 296.62 235.50 290.68 240.51 Q 289.55 241.47 290.99 241.10 L 297.59 239.44 Q 305.19 235.01 308.16 226.36 Q 308.58 225.15 309.61 218.53 Q 310.44 213.24 312.82 208.75 Q 319.87 218.17 317.94 228.90 Q 317.80 229.67 318.27 229.05 Q 323.12 222.68 322.68 214.56 Q 322.87 206.53 320.49 199.02 Q 319.76 196.73 319.75 194.85 Q 319.74 192.70 319.86 190.58 Q 320.16 190.05 320.11 189.34 Q 320.10 189.21 320.21 189.14 Q 320.37 189.06 320.52 189.10 Q 320.74 189.16 320.80 189.38 Q 321.18 190.78 322.01 192.00 Q 324.58 195.76 327.60 199.43 L 330.18 208.87 Q 330.35 209.48 330.59 208.90 Q 333.15 202.75 332.76 197.50 Q 333.28 188.16 329.18 181.29 Q 327.39 178.29 323.49 173.46 Q 317.54 165.50 313.56 156.05 Q 320.10 162.88 322.35 164.66 Q 328.93 169.90 337.44 168.91 Q 337.95 168.85 337.79 168.36 Q 337.31 166.93 336.42 167.16 Q 327.25 155.02 320.19 148.56 Q 311.28 140.42 298.16 137.96 Q 295.35 135.73 291.52 137.41 Q 285.38 140.10 283.37 147.00 Q 283.22 147.50 283.75 147.52 L 290.32 147.66 Z M 223.74 147.20 A 2.82 2.82 0.0 0 0 220.92 144.38 A 2.82 2.82 0.0 0 0 218.10 147.20 A 2.82 2.82 0.0 0 0 220.92 150.02 A 2.82 2.82 0.0 0 0 223.74 147.20 Z M 235.79 173.95 Q 234.18 175.59 232.32 177.57 Q 228.77 181.35 227.03 184.85 Q 224.80 188.18 223.66 193.42 Q 222.65 198.06 218.05 198.31 Q 212.85 198.59 205.86 197.30 Q 205.28 197.19 205.33 197.78 L 205.42 198.64 Q 205.59 202.44 207.98 204.94 Q 209.78 206.83 212.64 207.68 C 218.51 209.43 224.35 211.48 228.50 215.57 Q 229.57 216.63 229.37 215.13 Q 228.83 211.26 227.35 207.58 C 227.07 206.87 226.36 206.14 226.31 205.51 A 0.65 0.65 0.0 0 1 227.32 204.92 Q 232.89 208.72 238.44 210.91 Q 239.22 211.22 238.79 210.49 Q 234.27 202.90 233.36 195.29 Q 232.59 188.93 237.14 183.64 Q 238.54 182.01 239.58 180.13 Q 239.85 179.64 240.28 179.99 Q 246.86 185.42 256.26 186.00 Q 261.77 186.34 266.36 185.24 L 267.84 185.09 Q 268.77 184.99 267.91 184.60 Q 257.56 179.92 250.28 171.14 L 247.24 168.61 Q 243.13 165.53 237.56 164.51 Q 237.07 164.43 237.27 164.88 C 238.78 168.38 236.44 171.27 235.79 173.95 Z M 281.46 167.39 Q 276.82 172.89 270.81 174.52 Q 269.89 174.77 270.79 175.10 Q 279.06 178.06 285.14 172.17 A 1.64 1.64 0.0 0 0 285.38 170.12 L 282.76 166.00 Q 282.32 165.31 282.12 166.11 Q 281.95 166.81 281.46 167.39 Z M 211.31 181.13 Q 210.95 182.20 211.31 183.21 Q 211.57 183.95 211.81 183.21 Q 213.22 178.85 217.09 174.57 Q 217.46 174.16 217.56 173.62 Q 217.70 172.86 217.27 172.44 Q 218.27 171.56 218.79 170.41 Q 219.03 169.87 218.48 170.10 C 215.11 171.47 212.89 173.82 210.17 176.07 Q 209.78 176.40 209.93 176.89 L 211.31 181.13 Z M 277.04 180.16 L 277.48 188.46 Q 282.55 190.08 286.47 188.32 C 289.55 186.94 288.48 180.10 287.77 177.64 A 1.09 1.09 0.0 0 0 286.36 176.91 L 277.04 180.16 Z M 164.03 179.75 Q 157.06 176.90 149.34 177.46 Q 148.81 177.50 148.64 177.99 Q 145.89 185.63 144.91 193.42 Q 144.72 194.99 145.32 193.53 Q 150.43 181.10 163.87 180.62 Q 165.98 180.55 164.03 179.75 Z M 342.27 183.65 C 342.99 184.01 343.42 184.22 344.26 183.98 Q 349.34 182.51 354.80 186.09 Q 358.51 192.30 353.19 195.68 C 350.36 197.48 346.93 196.25 347.40 192.63 Q 347.48 191.97 346.84 192.11 Q 344.44 192.63 343.79 194.44 C 342.45 198.17 344.75 201.63 348.64 202.35 C 354.35 203.41 360.50 199.50 360.05 193.16 Q 359.48 185.05 356.32 177.89 A 0.95 0.93 79.9 0 0 355.53 177.33 Q 350.46 176.94 345.43 177.60 C 343.56 177.85 341.91 178.77 340.31 179.70 A 0.83 0.83 0.0 0 0 340.05 180.90 Q 340.99 182.22 341.26 183.96 Q 341.36 184.56 341.83 184.18 Q 342.06 183.99 342.27 183.65 Z M 200.65 178.18 A 0.42 0.42 0.0 0 0 200.02 177.74 L 194.62 181.00 A 0.42 0.42 0.0 0 0 194.49 181.60 L 198.25 186.86 A 0.42 0.42 0.0 0 0 199.01 186.70 L 200.65 178.18 Z M 213.18 220.54 Q 213.40 221.97 211.86 222.84 Q 210.19 223.78 208.14 224.74 Q 206.76 225.38 205.89 226.63 Q 204.99 227.94 205.35 229.23 Q 205.66 230.32 206.55 229.62 Q 214.23 223.47 221.00 219.62 A 0.35 0.35 0.0 0 0 221.06 219.06 C 218.91 217.11 216.36 215.85 213.56 215.07 C 203.29 212.19 196.49 203.67 198.68 192.83 Q 198.82 192.12 198.10 192.04 Q 192.75 191.49 188.89 188.44 Q 188.34 188.01 187.65 188.15 C 184.43 188.81 180.83 189.36 178.09 187.88 Q 175.31 186.37 177.39 188.76 Q 189.07 202.14 179.24 217.67 A 0.47 0.47 0.0 0 0 179.55 218.39 Q 179.95 218.47 180.34 218.36 Q 188.28 216.05 193.78 210.06 A 1.36 1.36 0.0 0 1 195.75 210.03 Q 196.92 211.23 197.87 212.43 Q 198.72 213.49 199.94 214.12 Q 206.11 217.32 212.33 219.52 A 1.31 1.29 5.4 0 1 213.18 220.54 Z M 211.02 195.97 L 206.00 189.54 A 0.01 0.01 0.0 0 0 205.98 189.54 L 205.94 189.57 A 3.92 2.30 52.0 0 0 206.55 194.07 L 206.75 194.34 A 3.92 2.30 52.0 0 0 210.98 196.01 L 211.02 195.98 A 0.01 0.01 0.0 0 0 211.02 195.97 Z M 154.07 218.73 Q 160.32 220.99 166.93 218.65 Q 170.65 217.33 172.93 214.71 Q 175.40 211.87 176.35 208.12 Q 176.99 205.62 176.41 202.42 Q 175.04 195.63 169.56 192.04 C 164.77 188.90 158.43 188.48 154.59 193.21 C 150.57 198.17 152.56 205.08 159.59 204.50 A 0.86 0.86 0.0 0 0 160.20 203.13 Q 159.27 201.90 158.68 200.35 C 157.70 197.75 160.64 196.37 162.73 196.33 C 166.02 196.27 168.78 198.87 169.35 201.97 C 170.25 206.76 166.86 210.88 162.37 212.18 C 154.97 214.32 148.32 210.10 145.44 203.28 C 145.05 202.37 145.00 201.34 144.65 200.41 Q 144.25 199.33 144.18 200.48 Q 143.81 206.23 144.05 212.04 Q 144.08 212.56 144.42 212.94 Q 148.26 217.13 154.07 218.73 Z M 218.68 190.33 A 0.35 0.35 0.0 0 0 218.06 190.26 Q 217.43 191.24 216.95 192.28 C 216.26 193.75 217.24 195.52 218.71 195.85 A 1.27 1.26 -4.3 0 0 220.17 194.16 L 218.68 190.33 Z M 247.74 199.85 Q 245.98 200.33 243.97 199.97 Q 243.26 199.84 243.51 200.51 L 245.73 206.51 A 0.56 0.56 0.0 0 0 246.48 206.83 C 253.29 203.90 260.28 199.88 264.42 193.55 A 0.33 0.33 0.0 0 0 264.10 193.04 C 259.73 193.63 255.52 194.39 251.04 193.48 Q 247.03 192.67 243.52 191.56 A 0.45 0.45 0.0 0 0 242.94 192.00 Q 243.04 197.79 247.70 198.71 Q 250.13 199.19 247.74 199.85 Z M 274.99 193.62 L 270.72 200.99 Q 270.41 201.53 270.92 201.89 Q 272.37 202.93 273.46 203.05 Q 275.96 205.05 278.72 204.84 C 283.41 204.50 285.74 198.90 286.22 194.87 A 1.26 1.26 0.0 0 0 285.10 193.47 L 275.62 192.51 Q 275.13 192.46 274.97 192.93 Q 274.86 193.24 274.99 193.62 Z M 255.48 216.76 Q 256.69 217.98 258.99 218.55 Q 262.79 220.36 264.52 220.03 Q 272.96 218.45 276.93 211.23 A 1.17 1.16 30.0 0 0 276.51 209.67 L 270.81 206.29 L 268.42 205.22 Q 266.88 203.79 266.02 204.52 Q 259.89 209.72 252.73 213.59 Q 252.28 213.83 252.54 214.27 Q 253.51 215.87 255.48 216.76 Z M 338.11 216.04 Q 336.44 219.39 343.72 218.40 Q 353.55 219.64 360.85 211.64 Q 361.07 211.40 361.07 211.09 L 361.05 205.78 A 0.14 0.14 0.0 0 0 360.81 205.69 Q 355.24 212.84 345.73 211.86 Q 343.22 211.60 340.68 210.19 Q 340.11 209.87 339.90 210.50 L 338.11 216.04 Z M 188.99 219.16 Q 187.80 219.22 185.75 220.41 Q 185.15 220.75 185.83 220.90 Q 189.61 221.71 192.29 224.46 C 193.67 225.88 194.19 227.98 195.10 229.74 Q 195.50 230.53 195.59 229.65 Q 196.26 223.16 202.18 221.39 Q 203.03 221.20 203.62 220.82 Q 204.09 220.52 203.57 220.30 L 198.18 218.08 A 1.08 1.08 0.0 0 1 197.61 217.51 L 195.19 211.44 Q 194.87 210.64 194.73 211.49 Q 194.18 215.04 191.82 217.56 Q 191.15 218.28 188.99 219.16 Z M 236.77 227.04 L 240.12 229.28 C 247.61 234.56 254.49 231.88 260.13 225.99 Q 260.48 225.62 260.52 225.11 Q 260.60 223.98 259.76 223.61 L 250.67 218.18 L 248.33 216.37 Q 247.98 216.10 247.57 216.27 C 242.88 218.20 237.38 219.65 233.40 222.65 Q 232.31 223.48 233.37 224.33 L 236.77 227.04 Z M 334.56 248.46 L 337.26 257.27 Q 337.32 259.54 336.34 260.69 L 332.29 262.47 Q 331.42 262.85 331.29 263.79 L 330.42 269.92 L 327.56 278.90 Q 326.59 280.05 324.99 280.09 Q 324.49 280.10 324.17 280.48 Q 322.93 281.94 322.40 283.78 Q 319.12 288.09 316.09 290.35 Q 312.91 292.72 305.79 296.70 L 292.87 301.07 Q 292.39 301.23 292.40 301.74 Q 292.41 302.46 292.77 303.17 L 292.92 308.45 Q 292.93 308.95 293.40 308.79 Q 297.91 307.27 300.10 306.07 Q 304.63 303.60 309.01 301.23 Q 319.12 295.75 326.46 287.16 L 331.30 282.52 Q 338.45 276.51 341.92 270.67 Q 348.08 260.30 349.58 257.54 Q 354.24 248.93 356.94 237.32 Q 359.32 230.07 360.05 221.48 Q 360.35 220.89 360.32 220.25 Q 360.30 219.68 359.76 219.89 C 352.10 222.86 348.14 228.37 344.96 235.51 C 342.68 240.62 339.36 244.23 334.37 246.63 Q 333.89 246.86 333.97 247.38 Q 334.04 247.90 334.56 248.46 Z M 148.93 240.33 Q 154.37 260.38 167.70 276.43 L 172.07 281.16 L 179.59 289.27 Q 181.15 290.95 180.86 288.67 Q 179.74 279.87 182.01 271.11 L 184.59 263.16 L 185.14 261.11 Q 185.33 260.40 184.60 260.33 C 179.70 259.88 174.07 255.53 171.29 251.46 C 168.88 247.92 168.48 242.12 171.86 238.89 C 179.95 231.18 191.35 241.58 183.02 249.17 Q 182.60 249.56 183.08 249.85 Q 185.15 251.12 186.21 250.86 Q 193.10 249.23 194.05 243.13 Q 195.07 236.54 190.86 232.82 Q 187.47 227.70 181.50 226.48 Q 171.38 224.42 165.13 231.98 Q 161.96 234.71 160.57 240.44 Q 160.45 240.94 160.09 240.58 C 157.63 238.15 156.59 234.18 155.08 231.11 Q 151.52 223.89 144.64 220.38 A 0.24 0.23 -79.9 0 0 144.30 220.62 Q 144.93 226.02 145.97 231.49 Q 146.71 235.36 148.93 240.33 Z M 219.66 239.02 Q 220.69 239.65 222.08 239.91 C 226.70 242.36 235.54 246.67 240.19 242.03 Q 241.84 240.38 243.56 239.05 A 1.77 1.76 -28.9 0 0 244.14 237.05 Q 243.70 235.84 242.24 235.39 L 236.10 231.21 L 228.70 226.07 Q 228.25 225.76 227.75 225.97 Q 220.73 228.93 215.14 234.58 A 0.68 0.68 0.0 0 0 215.07 235.46 Q 216.75 237.74 219.66 239.02 Z M 327.85 233.70 A 4.51 4.34 1.1 0 0 329.55 239.15 A 4.52 4.35 1.2 0 0 334.85 238.84 A 4.51 4.35 0.0 0 0 335.59 232.88 A 4.52 4.35 0.8 0 0 327.85 233.70 Z M 301.33 264.39 Q 288.83 275.88 273.00 270.19 Q 271.56 269.67 270.30 268.64 L 267.54 267.02 Q 266.95 266.67 266.74 267.32 C 266.13 269.20 264.84 270.77 264.23 272.65 Q 262.66 277.51 263.44 282.62 Q 262.96 287.45 266.31 288.92 Q 275.74 293.06 287.07 291.79 Q 288.05 292.02 289.81 291.42 C 301.65 289.70 312.88 282.86 318.31 272.11 Q 321.58 265.66 322.18 258.00 Q 322.83 249.72 320.68 243.09 Q 317.17 238.91 312.31 237.67 Q 311.71 237.52 311.36 238.02 Q 307.27 243.69 300.60 246.78 A 1.40 1.38 -2.4 0 0 299.88 247.55 Q 299.23 249.26 298.81 251.13 C 298.11 254.22 296.10 256.35 293.49 257.98 A 0.63 0.62 -37.8 0 0 293.36 258.94 Q 296.73 262.48 301.33 264.39 Z M 206.19 253.89 Q 215.33 257.09 221.99 258.55 C 223.49 258.88 225.68 258.76 226.93 257.62 Q 229.95 254.87 231.51 250.81 Q 231.71 250.29 231.44 249.81 Q 230.55 248.21 228.87 247.64 L 220.61 243.16 Q 216.27 240.12 211.47 238.74 Q 211.01 238.61 210.59 238.82 C 206.71 240.79 202.94 246.13 201.22 249.74 A 1.51 1.51 0.0 0 0 201.90 251.74 L 206.19 253.89 Z M 283.44 263.28 C 284.27 262.25 285.72 261.78 286.92 261.38 Q 288.39 260.89 286.89 260.49 Q 283.72 259.65 282.37 255.66 Q 282.04 254.67 281.77 255.68 Q 280.77 259.50 277.42 260.51 Q 276.77 260.70 277.42 260.89 Q 281.09 261.98 281.72 265.89 Q 281.86 266.76 282.22 265.95 C 282.66 265.00 282.76 264.13 283.44 263.28 Z M 197.01 271.23 Q 204.56 272.90 212.42 273.54 C 215.17 273.76 218.69 274.34 220.36 271.51 Q 221.97 268.77 222.57 264.73 Q 222.65 264.23 222.34 263.81 Q 220.85 261.79 218.31 261.12 Q 215.61 259.90 213.68 260.03 Q 207.13 257.16 199.95 255.56 Q 198.47 255.23 197.70 256.53 Q 195.12 260.88 194.13 266.63 Q 193.56 269.94 197.01 271.23 Z M 194.74 289.82 L 197.71 290.17 Q 205.32 290.24 212.91 289.79 C 215.26 289.66 218.78 289.47 219.08 286.60 Q 219.39 283.62 219.41 280.25 Q 219.44 276.72 215.00 277.12 L 203.15 275.38 L 194.11 274.25 A 1.92 1.92 0.0 0 0 191.98 275.82 Q 190.96 281.56 191.65 287.58 A 1.36 1.30 -72.7 0 0 192.04 288.37 Q 193.12 289.42 194.74 289.82 Z M 199.22 293.53 Q 196.35 293.12 193.22 293.81 Q 192.25 294.03 192.10 295.00 C 191.21 300.62 194.43 300.94 198.03 302.77 Q 202.47 305.02 207.04 307.25 Q 214.46 308.33 220.57 303.00 Q 220.97 302.66 220.99 302.13 Q 221.10 299.28 220.39 296.18 C 220.04 294.60 219.61 292.71 217.51 292.82 Q 208.46 293.30 199.22 293.53 Z M 284.20 309.58 A 0.33 0.33 0.0 0 0 284.73 309.30 L 284.30 302.35 A 0.33 0.33 0.0 0 0 284.00 302.04 L 274.22 301.06 A 0.33 0.33 0.0 0 0 273.99 301.64 L 284.20 309.58 Z M 215.90 309.76 A 0.61 0.61 0.0 0 0 215.94 310.91 L 225.42 313.82 A 0.61 0.61 0.0 0 0 226.13 312.95 L 223.15 307.47 A 0.61 0.61 0.0 0 0 222.39 307.20 L 215.90 309.76 Z"/>
  <path fill="#d08a12" d=" M 239.58 80.95 L 239.65 83.96 Q 239.62 83.34 239.37 82.81 Q 239.13 82.31 238.59 82.45 Q 238.30 82.53 238.00 82.81 Q 238.32 81.66 239.58 80.95 Z"/>
  <path fill="#fff9b7" d=" M 246.75 81.86 L 261.56 82.50 Q 259.64 86.02 259.89 90.40 A 1.09 1.08 -1.7 0 1 258.80 91.55 L 247.77 91.58 Q 247.33 91.58 247.38 91.15 Q 247.88 86.34 246.75 81.86 Z"/>
  <path fill="#fffcd2" d=" M 239.65 83.96 Q 240.09 86.06 239.65 87.88 Q 238.31 91.51 235.93 94.29 C 233.50 97.13 229.92 98.41 226.85 100.45 Q 226.43 100.72 226.09 100.36 Q 225.89 100.14 226.02 99.79 Q 229.26 95.44 232.81 91.30 Q 234.75 89.03 237.89 83.29 Q 237.57 83.34 238.00 82.81 Q 238.30 82.53 238.59 82.45 Q 239.13 82.31 239.37 82.81 Q 239.62 83.34 239.65 83.96 Z"/>
  <path fill="#d08a12" d=" M 289.75 85.48 Q 289.48 90.01 287.42 92.75 Q 282.79 98.89 280.51 100.20 Q 276.48 102.51 272.31 104.55 Q 270.90 105.24 267.63 108.66 Q 269.04 104.20 271.77 100.49 L 271.89 101.07 Q 271.94 101.35 272.22 101.39 Q 272.37 101.41 272.51 101.46 Q 272.29 101.92 272.33 102.28 Q 272.39 102.90 272.93 102.57 C 276.47 100.41 280.61 98.77 282.85 95.07 Q 283.11 94.64 283.54 94.39 Q 284.50 93.83 285.18 92.96 Q 287.86 89.51 289.75 85.48 Z"/>
  <path fill="#fcdd5a" d=" M 271.77 100.49 Q 269.04 104.20 267.63 108.66 Q 265.50 111.81 264.36 112.86 Q 262.19 114.86 260.62 116.70 C 257.48 120.37 253.26 123.45 249.36 126.10 Q 248.80 126.48 249.46 126.33 C 258.44 124.36 264.65 119.10 270.87 112.65 C 277.28 106.00 286.35 104.96 294.78 108.45 Q 295.81 108.88 294.70 108.93 L 290.24 109.15 Q 282.82 108.62 276.98 113.62 C 272.53 117.43 268.48 121.45 264.03 124.03 Q 255.42 129.01 245.28 131.20 Q 243.84 132.19 241.57 132.58 Q 241.11 132.66 240.75 132.92 Q 240.61 133.02 240.47 133.10 Q 239.84 133.45 240.56 133.50 L 249.71 134.06 C 247.19 135.57 244.96 135.49 243.02 137.99 Q 240.32 141.48 244.24 139.45 Q 246.00 138.55 247.78 138.17 C 251.42 137.41 255.31 136.98 259.09 137.37 Q 264.76 137.95 270.24 138.34 Q 272.37 138.49 276.15 136.96 Q 276.23 136.92 276.29 136.85 Q 276.38 136.75 276.38 136.60 Q 276.37 136.40 276.58 136.38 L 278.85 136.17 Q 275.70 142.92 270.49 144.44 Q 264.39 146.22 261.36 145.93 Q 253.82 145.21 246.26 144.34 Q 236.87 143.25 235.43 152.65 L 235.17 153.45 A 0.45 0.45 0.0 0 0 235.80 153.99 C 243.35 150.21 249.94 150.75 258.00 152.72 Q 268.62 155.33 271.40 155.66 Q 261.97 156.11 252.77 154.03 Q 250.88 153.60 247.89 154.00 Q 247.47 154.06 247.58 154.47 L 247.65 154.74 A 0.87 0.87 0.0 0 0 248.48 155.39 Q 252.27 155.47 255.89 156.71 Q 257.81 157.37 259.16 157.63 C 262.04 158.19 264.80 158.99 267.55 159.08 Q 273.39 159.29 279.21 158.35 Q 273.51 162.72 266.70 165.10 Q 260.71 167.19 254.07 166.15 L 247.64 162.46 Q 248.01 161.92 249.70 162.59 Q 250.17 163.03 251.26 163.08 Q 258.91 163.42 265.85 161.50 Q 266.09 161.43 266.04 161.18 L 265.98 160.87 Q 265.95 160.69 265.76 160.71 Q 259.93 161.41 254.62 159.13 C 248.99 156.72 244.40 154.33 237.96 155.25 Q 236.52 155.45 235.19 155.63 Q 234.73 155.69 234.41 156.01 Q 233.64 156.78 232.40 157.04 Q 222.59 160.41 220.14 161.42 Q 215.36 163.40 211.28 167.35 Q 210.06 168.33 208.94 169.20 Q 207.73 170.12 206.33 170.57 C 204.45 171.16 202.61 172.17 200.62 172.19 Q 197.11 172.24 193.54 171.81 Q 193.68 171.80 193.81 171.70 Q 194.08 171.47 194.43 171.43 Q 197.77 171.05 201.27 170.39 C 205.18 169.65 208.14 167.40 210.57 164.39 Q 214.04 160.08 221.21 158.43 C 225.39 157.46 231.41 155.67 231.79 151.76 Q 232.35 145.89 228.94 148.44 Q 228.49 144.29 230.08 142.37 Q 233.45 138.30 237.03 134.08 Q 237.76 133.21 238.34 132.26 Q 238.63 131.77 238.13 132.03 Q 237.19 132.53 236.66 133.48 Q 235.31 133.50 233.95 134.19 Q 232.33 135.00 231.42 135.18 C 225.31 136.38 220.14 136.74 214.95 140.78 C 212.39 142.77 203.51 148.97 202.73 141.45 Q 202.66 140.78 202.14 141.21 Q 201.57 141.70 201.65 142.39 Q 200.51 146.69 197.12 147.15 Q 196.59 147.22 196.53 146.69 L 195.66 139.12 Q 196.41 139.39 197.13 139.38 Q 197.68 139.38 197.84 139.90 Q 198.05 140.53 198.68 140.78 A 0.88 0.88 0.0 0 0 199.80 140.35 L 203.10 133.46 A 0.96 0.89 -6.0 0 1 203.44 133.07 Q 205.40 131.76 206.50 129.49 Q 206.55 132.57 205.21 135.36 Q 204.98 135.85 205.50 135.96 Q 206.44 136.17 207.56 134.92 Q 207.98 134.67 208.35 135.54 Q 208.57 136.05 208.87 135.58 Q 209.07 135.27 209.10 134.81 Q 209.65 134.13 209.46 133.76 Q 209.51 133.91 209.56 134.07 Q 212.37 135.47 215.85 132.11 Q 218.91 129.15 220.30 127.25 Q 220.60 126.85 221.08 126.70 Q 223.44 125.94 223.11 122.75 C 223.70 125.96 222.18 129.19 221.37 131.86 Q 220.46 134.86 222.88 132.86 Q 224.19 131.77 225.28 130.43 C 228.02 126.95 229.19 124.35 234.55 124.24 Q 233.22 125.49 231.51 126.02 Q 230.04 126.47 229.54 126.80 Q 228.46 127.51 227.99 128.31 Q 227.26 129.55 228.70 129.49 Q 234.23 129.25 238.62 127.85 Q 239.26 127.65 239.71 127.24 C 240.57 126.44 241.74 126.45 242.73 125.92 Q 248.93 122.66 255.25 118.40 Q 256.82 117.34 258.00 115.92 Q 259.02 114.68 260.45 113.64 Q 263.09 111.72 265.68 107.78 Q 267.49 105.02 269.02 101.46 Q 270.45 98.13 271.77 94.75 Q 272.83 92.04 271.71 86.52 Q 271.82 86.26 272.56 86.65 C 275.69 88.31 272.85 98.00 271.77 100.49 Z M 267.28 139.36 L 247.35 138.90 A 0.04 0.04 0.0 0 0 247.31 138.94 L 247.31 138.99 A 9.89 2.19 1.3 0 0 257.14 141.41 L 257.38 141.41 A 9.89 2.19 1.3 0 0 267.32 139.45 L 267.32 139.40 A 0.04 0.04 0.0 0 0 267.28 139.36 Z"/>
  <path fill="#fffcd2" d=" M 271.71 86.52 Q 272.83 92.04 271.77 94.75 Q 270.45 98.13 269.02 101.46 Q 267.49 105.02 265.68 107.78 Q 263.09 111.72 260.45 113.64 Q 259.02 114.68 258.00 115.92 Q 256.82 117.34 255.25 118.40 Q 248.93 122.66 242.73 125.92 C 241.74 126.45 240.57 126.44 239.71 127.24 Q 239.26 127.65 238.62 127.85 Q 234.23 129.25 228.70 129.49 Q 227.26 129.55 227.99 128.31 Q 228.46 127.51 229.54 126.80 Q 230.04 126.47 231.51 126.02 Q 233.22 125.49 234.55 124.24 Q 236.85 123.34 239.33 122.36 Q 241.95 121.32 250.33 115.88 Q 256.34 111.99 259.01 108.74 C 263.24 103.62 270.09 93.47 267.70 87.20 Q 267.48 86.62 268.10 86.61 L 271.71 86.52 Z"/>
  <path fill="#d08a12" d=" M 239.65 87.88 C 240.34 94.92 234.03 98.52 228.65 101.01 Q 225.43 102.50 223.00 104.92 Q 218.43 109.46 215.60 114.70 Q 213.43 118.72 211.67 123.93 Q 211.41 124.68 210.94 124.04 Q 209.26 121.78 206.02 121.90 Q 205.45 121.92 205.31 121.36 Q 205.03 120.21 205.68 119.01 Q 206.63 120.92 208.83 120.19 Q 209.32 120.03 209.54 119.57 C 211.51 115.41 214.89 112.24 217.79 108.87 Q 218.06 108.55 218.11 108.14 Q 218.17 107.65 218.48 107.28 L 221.61 103.52 Q 223.09 102.37 223.93 101.05 Q 224.05 101.19 224.10 101.39 Q 224.24 101.93 224.73 101.66 L 224.99 101.52 A 0.23 0.23 0.0 0 0 225.11 101.30 Q 225.07 100.31 226.02 99.79 Q 225.89 100.14 226.09 100.36 Q 226.43 100.72 226.85 100.45 C 229.92 98.41 233.50 97.13 235.93 94.29 Q 238.31 91.51 239.65 87.88 Z"/>
  <path fill="#fff9b7" d=" M 211.21 88.81 Q 211.46 89.23 211.73 89.26 Q 210.90 92.34 212.13 96.51 Q 208.61 99.34 203.91 101.84 Q 197.61 105.19 195.39 106.60 Q 188.50 110.98 181.67 115.44 Q 180.50 116.20 179.48 117.13 Q 170.27 125.49 162.06 134.84 Q 158.69 138.68 155.21 144.28 Q 152.11 149.26 149.05 154.25 Q 149.17 154.07 149.09 153.89 Q 149.02 153.72 148.85 153.65 Q 148.71 153.59 148.55 153.67 Q 148.28 153.80 148.08 153.57 Q 145.91 151.17 143.45 148.94 Q 143.05 148.58 143.45 148.22 Q 143.68 148.01 143.54 147.72 Q 143.30 147.23 142.79 147.14 Q 142.34 147.07 141.72 147.15 Q 146.20 139.24 151.92 132.23 Q 154.90 128.57 158.19 124.41 C 162.98 118.37 168.96 113.88 174.88 109.04 Q 179.96 104.87 185.10 101.58 Q 192.65 96.74 197.38 94.67 Q 204.16 91.71 210.01 89.02 Q 210.55 88.77 211.21 88.81 Z"/>
  <path fill="#fcdd5a" d=" M 211.73 89.26 Q 213.10 89.88 213.51 91.08 Q 213.77 91.87 213.19 93.33 Q 212.70 94.56 212.13 96.51 Q 210.90 92.34 211.73 89.26 Z"/>
  <path fill="#fffcd2" d=" M 223.87 89.40 Q 224.35 93.04 223.74 96.98 C 223.56 98.13 222.84 98.80 222.87 99.98 Q 222.88 100.49 222.60 100.91 Q 221.84 102.05 221.61 103.52 L 218.48 107.28 Q 218.17 107.65 218.11 108.14 Q 218.06 108.55 217.79 108.87 C 214.89 112.24 211.51 115.41 209.54 119.57 Q 209.32 120.03 208.83 120.19 Q 206.63 120.92 205.68 119.01 Q 206.37 115.39 208.83 112.32 C 213.14 106.95 222.94 98.36 220.34 89.98 Q 220.16 89.42 220.74 89.42 L 223.87 89.40 Z"/>
  <path fill="#fcdd5a" d=" M 223.93 101.05 Q 223.09 102.37 221.61 103.52 Q 221.84 102.05 222.60 100.91 Q 222.88 100.49 222.87 99.98 C 222.84 98.80 223.56 98.13 223.74 96.98 Q 224.35 93.04 223.87 89.40 Q 224.27 89.24 224.79 89.48 Q 225.26 89.68 225.37 90.18 Q 226.58 95.61 223.93 101.05 Z"/>
  <path fill="#fff9b7" d=" M 337.67 118.49 Q 330.81 115.84 323.26 114.89 Q 322.21 114.76 321.30 114.13 Q 307.40 104.54 293.48 98.50 A 0.81 0.80 25.7 0 1 293.08 97.39 L 296.69 90.47 Q 303.19 92.23 308.19 94.83 Q 321.33 101.67 334.06 111.94 C 336.70 114.07 339.44 115.82 342.01 118.26 Q 344.22 120.37 341.34 119.36 Q 339.89 118.85 337.67 118.49 Z"/>
  <path fill="#fffcd2" d=" M 253.91 104.45 Q 250.17 105.16 247.43 107.93 Q 243.04 112.37 238.37 117.48 C 238.01 113.42 239.02 108.77 242.20 106.19 Q 247.15 102.17 252.28 101.24 Q 255.69 100.62 258.12 99.67 Q 258.81 99.40 258.40 100.02 Q 256.66 102.68 253.91 104.45 Z"/>
  <path fill="#fffcd2" d=" M 232.33 110.87 Q 228.50 113.84 226.70 118.25 Q 224.06 116.04 220.73 117.17 A 0.48 0.48 0.0 0 1 220.14 116.51 C 223.04 110.56 227.75 106.18 234.15 104.62 Q 236.67 104.01 239.08 103.67 Q 239.84 103.55 239.29 104.09 L 232.33 110.87 Z"/>
  <path fill="#d08a12" d=" M 253.91 104.45 C 251.46 106.77 248.75 108.76 246.90 111.49 C 244.86 114.48 242.69 117.35 239.66 119.34 Q 239.24 119.62 238.87 119.27 Q 237.78 118.24 238.37 117.48 Q 243.04 112.37 247.43 107.93 Q 250.17 105.16 253.91 104.45 Z"/>
  <path fill="#d08a12" d=" M 290.24 109.15 Q 279.84 110.93 274.43 120.44 Q 271.86 124.96 266.24 126.99 Q 258.76 129.70 251.00 131.42 Q 248.14 132.05 245.28 131.20 Q 255.42 129.01 264.03 124.03 C 268.48 121.45 272.53 117.43 276.98 113.62 Q 282.82 108.62 290.24 109.15 Z"/>
  <path fill="#a35e03" d=" M 232.33 110.87 Q 231.58 112.97 231.05 117.76 Q 230.84 119.62 228.99 120.72 Q 228.54 121.00 228.24 120.56 L 226.70 118.25 Q 228.50 113.84 232.33 110.87 Z"/>
  <path fill="#3b8594" d=" M 336.57 141.42 L 332.44 148.82 L 320.72 138.38 Q 319.80 137.56 321.01 137.29 L 324.22 136.58 Q 324.91 136.42 324.51 135.84 Q 315.29 122.58 301.77 115.67 Q 299.81 114.67 297.75 114.45 Q 297.06 114.38 297.58 113.92 Q 298.63 112.98 300.03 112.52 Q 300.52 112.35 300.97 112.60 Q 315.21 120.31 321.46 125.79 Q 325.74 129.53 336.57 141.42 Z"/>
  <path fill="#3b8594" d=" M 175.27 151.49 Q 173.40 145.48 167.94 141.87 Q 170.21 139.28 172.83 136.84 Q 174.71 135.10 176.64 132.78 C 180.21 128.50 184.83 124.99 189.15 121.40 C 191.70 119.27 194.55 117.86 197.36 116.16 Q 197.95 115.80 197.75 116.46 Q 196.85 119.46 196.77 122.80 Q 196.75 123.43 196.23 123.76 Q 194.43 124.90 192.60 126.25 C 190.86 127.53 188.90 127.59 186.88 128.15 C 176.58 131.01 172.90 142.22 178.93 150.96 A 0.28 0.27 -18.5 0 1 178.71 151.39 L 175.27 151.49 Z"/>
  <path fill="#af7113" d=" M 293.03 120.11 L 284.29 120.10 Q 284.30 118.04 286.75 118.08 Q 290.04 118.13 293.03 120.11 Z"/>
  <path fill="#fffcd2" d=" M 293.03 120.11 Q 302.15 121.59 308.41 128.72 Q 309.28 129.72 308.11 129.10 Q 308.10 129.09 307.43 128.94 Q 304.70 127.61 301.63 127.35 Q 293.11 122.16 282.97 121.43 Q 282.38 121.39 282.70 120.89 Q 283.07 120.32 284.29 120.10 L 293.03 120.11 Z"/>
  <path fill="#af7113" d=" M 225.28 130.43 Q 224.19 131.77 222.88 132.86 Q 220.46 134.86 221.37 131.86 C 222.18 129.19 223.70 125.96 223.11 122.75 Q 223.17 122.32 223.01 121.95 Q 222.81 121.46 222.29 121.41 L 221.58 121.35 Q 222.87 121.00 223.77 121.09 Q 224.27 121.14 224.56 121.56 Q 225.48 122.88 225.51 124.51 Q 225.57 127.13 225.28 130.43 Z"/>
  <path fill="#fffcd2" d=" M 221.58 121.35 L 222.29 121.41 Q 222.81 121.46 223.01 121.95 Q 223.17 122.32 223.11 122.75 Q 223.44 125.94 221.08 126.70 Q 220.60 126.85 220.30 127.25 Q 218.91 129.15 215.85 132.11 Q 212.37 135.47 209.56 134.07 Q 210.86 130.39 212.99 127.96 Q 216.82 123.59 221.58 121.35 Z"/>
  <path fill="#af7113" d=" M 209.46 133.76 Q 209.65 134.13 209.10 134.81 Q 208.45 134.05 207.56 134.92 Q 206.44 136.17 205.50 135.96 Q 204.98 135.85 205.21 135.36 Q 206.55 132.57 206.50 129.49 Q 206.74 127.78 205.23 126.84 Q 206.56 125.83 207.58 125.95 A 1.15 1.14 -86.4 0 1 208.59 127.10 Q 208.57 130.13 208.33 132.49 Q 208.23 133.54 209.46 133.76 Z"/>
  <path fill="#feec91" d=" M 335.54 126.17 C 335.90 126.32 335.97 126.54 336.37 126.68 Q 343.42 129.23 351.27 132.58 Q 353.76 133.64 355.46 135.77 Q 360.98 142.67 363.67 148.49 Q 365.83 153.13 368.17 157.58 Q 372.23 165.27 376.60 182.40 Q 372.66 184.39 370.25 187.35 Q 370.20 187.41 370.25 187.47 Q 370.35 187.59 370.49 187.50 A 0.05 0.05 0.0 0 1 370.56 187.56 Q 369.67 189.95 369.87 191.48 Q 372.48 211.03 369.29 230.39 Q 368.60 234.55 367.02 240.26 Q 365.67 245.13 364.29 250.01 Q 362.17 257.58 356.46 267.46 Q 355.54 268.09 354.52 267.87 Q 353.98 267.76 354.26 267.29 C 359.28 258.74 362.75 250.29 365.02 240.93 Q 366.12 236.43 367.05 231.76 Q 371.57 209.04 367.21 185.72 Q 364.66 172.04 358.43 159.53 Q 349.47 141.49 335.60 126.92 Q 335.10 126.39 335.54 126.17 Z"/>
  <path fill="#fffcd2" d=" M 205.23 126.84 Q 206.74 127.78 206.50 129.49 Q 205.40 131.76 203.44 133.07 A 0.96 0.89 -6.0 0 0 203.10 133.46 L 199.80 140.35 A 0.88 0.88 0.0 0 1 198.68 140.78 Q 198.05 140.53 197.84 139.90 Q 197.68 139.38 197.13 139.38 Q 196.41 139.39 195.66 139.12 Q 197.98 130.58 205.23 126.84 Z"/>
  <path fill="#af7113" d=" M 301.63 127.35 Q 304.70 127.61 307.43 128.94 Q 304.51 129.58 302.87 129.13 Q 301.53 128.76 301.63 127.35 Z"/>
  <path fill="#fffcd2" d=" M 286.47 131.91 Q 282.75 133.10 278.85 136.17 L 276.58 136.38 Q 276.37 136.40 276.38 136.60 Q 276.38 136.75 276.29 136.85 Q 276.23 136.92 276.15 136.96 Q 272.37 138.49 270.24 138.34 Q 264.76 137.95 259.09 137.37 C 255.31 136.98 251.42 137.41 247.78 138.17 Q 246.00 138.55 244.24 139.45 Q 240.32 141.48 243.02 137.99 C 244.96 135.49 247.19 135.57 249.71 134.06 C 258.16 132.23 266.87 134.70 274.68 131.42 C 280.97 128.77 286.04 127.05 292.97 129.22 Q 293.59 129.42 292.98 129.63 L 286.47 131.91 Z"/>
  <path fill="#af7113" d=" M 286.47 131.91 Q 285.10 133.10 283.65 134.14 C 280.32 136.53 278.21 140.58 276.36 144.22 C 273.64 149.57 266.76 149.87 261.67 149.05 Q 251.85 147.48 241.52 147.89 A 2.38 2.35 -78.6 0 0 239.48 149.26 Q 238.40 151.55 235.43 152.65 Q 236.87 143.25 246.26 144.34 Q 253.82 145.21 261.36 145.93 Q 264.39 146.22 270.49 144.44 Q 275.70 142.92 278.85 136.17 Q 282.75 133.10 286.47 131.91 Z"/>
  <path fill="#af7113" d=" M 236.66 133.48 Q 233.33 136.46 228.76 137.49 C 224.96 138.34 220.45 138.78 217.50 141.40 C 214.50 144.06 208.76 149.76 204.23 147.36 Q 201.71 146.02 201.65 142.39 Q 201.57 141.70 202.14 141.21 Q 202.66 140.78 202.73 141.45 C 203.51 148.97 212.39 142.77 214.95 140.78 C 220.14 136.74 225.31 136.38 231.42 135.18 Q 232.33 135.00 233.95 134.19 Q 235.31 133.50 236.66 133.48 Z"/>
  <path fill="#d08a12" d=" M 209.10 134.81 Q 209.07 135.27 208.87 135.58 Q 208.57 136.05 208.35 135.54 Q 207.98 134.67 207.56 134.92 Q 208.45 134.05 209.10 134.81 Z"/>
  <path fill="#feec91" d=" M 184.10 137.29 L 185.88 136.34 Q 187.73 135.35 187.03 137.33 Q 185.42 141.85 187.88 148.07 Q 188.22 148.92 187.35 148.61 Q 181.14 146.41 181.91 140.46 Q 182.18 138.31 184.10 137.29 Z"/>
  <path fill="#a35e03" d=" M 298.16 137.96 L 292.56 138.66 Q 292.00 138.73 292.23 139.24 Q 292.65 140.22 294.43 140.78 Q 300.09 144.25 304.43 149.21 Q 309.12 154.57 311.45 159.07 Q 313.97 163.93 314.04 170.89 Q 314.06 172.64 313.45 171.00 Q 310.37 162.63 305.03 155.83 C 303.35 153.68 302.56 151.00 300.69 149.05 Q 297.30 145.55 293.80 144.28 Q 291.07 143.29 288.57 146.26 Q 288.27 146.62 288.56 146.99 Q 288.99 147.54 290.32 147.66 L 283.75 147.52 Q 283.22 147.50 283.37 147.00 Q 285.38 140.10 291.52 137.41 Q 295.35 135.73 298.16 137.96 Z"/>
  <path fill="#fffcd2" d=" M 298.16 137.96 Q 311.28 140.42 320.19 148.56 Q 327.25 155.02 336.42 167.16 Q 328.61 164.22 322.50 158.63 C 320.31 156.63 317.77 155.18 315.50 153.18 L 300.81 142.73 Q 300.42 142.45 299.95 142.34 C 298.96 142.09 298.45 141.28 297.44 140.98 Q 295.94 140.54 294.43 140.78 Q 292.65 140.22 292.23 139.24 Q 292.00 138.73 292.56 138.66 L 298.16 137.96 Z"/>
  <path fill="#a35e03" d=" M 267.28 139.36 A 0.04 0.04 0.0 0 1 267.32 139.40 L 267.32 139.45 A 9.89 2.19 1.3 0 1 257.38 141.41 L 257.14 141.41 A 9.89 2.19 1.3 0 1 247.31 138.99 L 247.31 138.94 A 0.04 0.04 0.0 0 1 247.35 138.90 L 267.28 139.36 Z"/>
  <path fill="#facf47" d=" M 294.43 140.78 Q 295.94 140.54 297.44 140.98 C 298.45 141.28 298.96 142.09 299.95 142.34 Q 300.42 142.45 300.81 142.73 L 315.50 153.18 Q 313.43 154.38 313.56 156.05 Q 317.54 165.50 323.49 173.46 Q 322.75 175.58 323.66 177.28 Q 323.93 177.78 323.96 178.35 Q 324.08 180.80 325.31 182.37 Q 325.45 182.54 325.30 182.70 Q 325.20 182.81 325.00 182.80 Q 323.47 181.06 322.11 179.15 C 321.24 177.93 320.09 177.22 318.94 176.38 Q 318.02 175.71 318.28 176.81 Q 318.95 179.73 319.43 182.95 Q 319.55 183.78 318.97 184.37 Q 318.49 184.84 318.07 184.32 Q 316.24 182.02 314.89 179.62 Q 313.76 177.63 312.52 176.24 Q 311.20 174.76 309.95 173.25 Q 309.38 172.57 307.53 172.59 Q 305.66 168.99 302.23 166.15 Q 301.48 165.54 301.79 166.45 Q 302.59 168.78 303.37 170.29 Q 309.38 181.81 310.27 190.49 Q 310.81 195.70 309.75 205.16 Q 309.23 205.96 308.87 206.88 Q 308.68 207.36 308.42 207.53 Q 308.04 207.77 307.63 207.61 Q 307.16 207.42 307.13 206.90 Q 307.06 205.16 306.08 203.67 Q 305.60 200.17 303.71 196.58 Q 303.44 195.41 302.79 194.85 Q 302.33 194.46 302.08 195.01 L 296.31 207.81 Q 293.67 212.32 290.26 216.21 Q 283.88 223.49 283.49 223.99 Q 277.38 231.82 271.41 239.87 Q 264.65 248.17 260.44 258.92 Q 260.93 248.60 264.86 242.12 Q 269.08 235.14 274.28 228.57 Q 274.69 228.05 274.05 228.20 Q 273.78 228.26 273.42 227.87 C 275.80 225.84 278.37 224.25 280.52 221.98 Q 282.72 219.64 284.99 217.68 Q 287.38 215.62 289.40 212.92 Q 295.83 204.30 298.69 195.92 Q 301.98 186.28 300.55 174.72 Q 299.85 169.02 297.29 165.04 Q 294.29 160.37 295.01 165.87 Q 295.65 170.79 296.87 178.00 Q 297.58 182.19 295.35 188.32 C 295.34 184.49 295.54 180.69 294.91 177.01 Q 293.61 169.41 290.02 163.42 Q 289.78 163.01 290.08 162.64 L 299.90 150.44 A 0.54 0.54 0.0 0 0 299.59 149.57 L 290.32 147.66 Q 288.99 147.54 288.56 146.99 Q 288.27 146.62 288.57 146.26 Q 291.07 143.29 293.80 144.28 Q 297.30 145.55 300.69 149.05 C 302.56 151.00 303.35 153.68 305.03 155.83 Q 310.37 162.63 313.45 171.00 Q 314.06 172.64 314.04 170.89 Q 313.97 163.93 311.45 159.07 Q 309.12 154.57 304.43 149.21 Q 300.09 144.25 294.43 140.78 Z"/>
  <path fill="#61aab9" d=" M 336.57 141.42 Q 341.29 147.17 342.64 149.87 C 345.63 155.85 349.42 160.89 351.80 167.52 Q 352.04 168.19 351.33 168.13 L 350.27 168.05 A 1.40 1.38 -17.7 0 1 349.29 167.55 Q 348.09 166.10 344.81 163.19 Q 341.71 160.43 332.44 148.82 L 336.57 141.42 Z"/>
  <path fill="#61aab9" d=" M 167.94 141.87 Q 173.40 145.48 175.27 151.49 Q 169.65 152.95 166.58 156.59 C 163.45 160.28 163.42 164.90 164.17 169.48 A 0.43 0.42 -0.4 0 1 163.68 169.97 L 153.08 168.21 A 0.52 0.52 0.0 0 1 152.70 167.46 Q 155.35 162.14 157.70 156.72 Q 159.70 152.08 167.94 141.87 Z"/>
  <circle fill="#fffcd2" cx="220.92" cy="147.20" r="2.82"/>
  <path fill="#feec91" d=" M 141.72 147.15 Q 142.34 147.07 142.79 147.14 Q 143.30 147.23 143.54 147.72 Q 143.68 148.01 143.45 148.22 Q 143.05 148.58 143.45 148.94 Q 145.91 151.17 148.08 153.57 Q 148.28 153.80 148.55 153.67 Q 148.71 153.59 148.85 153.65 Q 149.02 153.72 149.09 153.89 Q 149.17 154.07 149.05 154.25 Q 138.54 173.49 135.84 193.50 Q 134.94 200.13 135.24 211.06 Q 133.57 210.72 132.69 209.43 Q 132.40 209.03 131.96 208.81 Q 130.09 207.93 128.14 207.21 Q 127.96 207.14 127.89 207.00 Q 127.87 206.94 127.86 206.88 Q 127.82 206.41 127.41 206.65 Q 126.64 207.09 125.98 206.30 Q 125.64 205.88 125.45 206.38 Q 125.25 206.88 125.34 207.72 Q 125.75 191.04 129.28 178.51 Q 132.81 165.98 136.63 156.84 Q 138.23 153.02 141.72 147.15 Z"/>
  <path fill="#fff9b7" d=" M 193.54 171.81 L 192.38 172.33 Q 191.23 171.21 193.08 168.55 Q 194.09 167.11 196.25 167.25 Q 198.88 167.43 201.49 165.58 Q 204.25 163.80 204.83 163.08 Q 208.88 158.07 210.73 157.18 Q 215.22 155.02 222.23 154.07 Q 227.17 153.40 228.94 148.44 Q 232.35 145.89 231.79 151.76 C 231.41 155.67 225.39 157.46 221.21 158.43 Q 214.04 160.08 210.57 164.39 C 208.14 167.40 205.18 169.65 201.27 170.39 Q 197.77 171.05 194.43 171.43 Q 194.08 171.47 193.81 171.70 Q 193.68 171.80 193.54 171.81 Z"/>
  <path fill="#fcdd5a" d=" M 201.49 165.58 Q 198.88 167.43 196.25 167.25 Q 194.09 167.11 193.08 168.55 Q 191.23 171.21 192.38 172.33 Q 190.90 173.57 190.69 174.38 Q 185.09 178.88 178.92 179.32 Q 174.61 176.84 173.79 174.00 Q 173.17 171.86 172.67 169.83 L 172.36 168.97 C 174.10 170.56 175.27 173.24 178.47 172.53 Q 178.98 172.42 179.00 171.90 Q 179.05 170.80 178.50 169.56 Q 178.85 169.68 179.06 169.98 Q 179.07 171.75 180.76 171.89 Q 185.07 172.25 185.49 169.30 Q 187.10 166.80 187.28 163.78 C 190.56 164.58 195.83 162.34 198.18 159.97 Q 200.74 157.38 203.48 154.94 A 1.59 1.56 -13.9 0 0 203.94 154.19 Q 204.28 152.91 203.30 152.65 C 201.64 152.20 200.90 152.76 199.13 151.60 L 203.17 151.38 Q 203.70 151.35 204.20 151.56 Q 205.59 152.15 207.02 152.34 Q 207.67 152.43 207.47 153.06 Q 205.86 158.05 203.20 162.52 Q 202.79 163.19 202.07 163.80 Q 199.86 165.65 201.49 165.58 Z"/>
  <path fill="#fffcd2" d=" M 199.13 151.60 C 200.90 152.76 201.64 152.20 203.30 152.65 Q 204.28 152.91 203.94 154.19 A 1.59 1.56 -13.9 0 1 203.48 154.94 Q 200.74 157.38 198.18 159.97 C 195.83 162.34 190.56 164.58 187.28 163.78 L 186.84 161.05 Q 186.75 160.53 187.22 160.30 Q 190.05 158.88 192.82 157.28 Q 194.43 156.34 196.06 154.56 Q 197.62 152.84 199.13 151.60 Z"/>
  <path fill="#d08a12" d=" M 315.50 153.18 C 317.77 155.18 320.31 156.63 322.50 158.63 Q 328.61 164.22 336.42 167.16 Q 337.31 166.93 337.79 168.36 Q 337.95 168.85 337.44 168.91 Q 328.93 169.90 322.35 164.66 Q 320.10 162.88 313.56 156.05 Q 313.43 154.38 315.50 153.18 Z"/>
  <path fill="#fff9b7" d=" M 271.40 155.66 C 277.32 155.90 282.00 154.51 287.49 154.34 Q 288.02 154.33 287.61 154.66 Q 285.93 156.03 283.82 156.59 L 279.21 158.35 Q 273.39 159.29 267.55 159.08 C 264.80 158.99 262.04 158.19 259.16 157.63 Q 257.81 157.37 255.89 156.71 Q 252.27 155.47 248.48 155.39 A 0.87 0.87 0.0 0 1 247.65 154.74 L 247.58 154.47 Q 247.47 154.06 247.89 154.00 Q 250.88 153.60 252.77 154.03 Q 261.97 156.11 271.40 155.66 Z"/>
  <path fill="#af7113" d=" M 249.70 162.59 Q 250.62 161.96 251.64 161.80 Q 252.66 161.64 251.67 161.37 Q 250.99 161.18 250.45 160.79 Q 249.85 160.36 249.17 160.17 Q 245.31 159.07 241.10 158.27 Q 240.98 158.25 240.92 158.13 Q 240.90 158.08 240.89 158.03 Q 240.86 157.86 240.68 157.82 Q 236.71 156.95 232.40 157.04 Q 233.64 156.78 234.41 156.01 Q 234.73 155.69 235.19 155.63 Q 236.52 155.45 237.96 155.25 C 244.40 154.33 248.99 156.72 254.62 159.13 Q 259.93 161.41 265.76 160.71 Q 265.95 160.69 265.98 160.87 L 266.04 161.18 Q 266.09 161.43 265.85 161.50 Q 258.91 163.42 251.26 163.08 Q 250.17 163.03 249.70 162.59 Z"/>
  <path fill="#af7113" d=" M 283.82 156.59 Q 279.41 160.48 273.48 164.26 Q 267.81 167.87 261.58 169.14 Q 259.28 169.61 257.52 168.73 Q 255.67 167.80 254.07 166.15 Q 260.71 167.19 266.70 165.10 Q 273.51 162.72 279.21 158.35 L 283.82 156.59 Z"/>
  <path fill="#66320a" d=" M 232.40 157.04 Q 236.71 156.95 240.68 157.82 Q 240.86 157.86 240.89 158.03 Q 240.90 158.08 240.92 158.13 Q 240.98 158.25 241.10 158.27 Q 245.31 159.07 249.17 160.17 Q 249.85 160.36 250.45 160.79 Q 250.99 161.18 251.67 161.37 Q 252.66 161.64 251.64 161.80 Q 250.62 161.96 249.70 162.59 Q 248.01 161.92 247.64 162.46 C 243.46 161.11 239.29 159.74 234.79 159.88 Q 231.75 159.98 227.88 161.61 Q 220.83 164.56 216.51 166.99 Q 211.35 169.89 208.15 171.27 L 211.28 167.35 Q 215.36 163.40 220.14 161.42 Q 222.59 160.41 232.40 157.04 Z"/>
  <path fill="#fffcd2" d=" M 178.50 169.56 Q 179.05 170.80 179.00 171.90 Q 178.98 172.42 178.47 172.53 C 175.27 173.24 174.10 170.56 172.36 168.97 Q 170.43 164.76 173.43 160.93 C 176.89 156.51 182.81 159.21 183.27 164.18 Q 183.41 165.76 181.89 165.98 Q 181.35 166.06 181.07 165.59 Q 180.25 164.24 179.11 163.61 A 0.84 0.83 -59.5 0 0 178.00 163.90 Q 176.34 166.59 178.50 169.56 Z"/>
  <path fill="#fff9b7" d=" M 273.42 227.87 L 270.53 231.19 Q 269.22 231.44 266.88 233.12 C 263.40 235.62 260.14 238.36 256.70 240.93 C 252.17 244.31 248.59 248.72 244.63 252.78 C 237.48 260.12 233.87 271.15 232.23 281.38 A 0.82 0.80 5.5 0 1 231.39 282.06 Q 231.05 282.05 230.85 281.80 Q 229.95 280.70 230.05 279.80 Q 230.75 273.70 230.47 268.38 C 232.45 261.90 236.81 255.73 240.51 250.34 C 243.24 246.35 248.55 241.88 252.99 238.51 Q 266.85 227.97 277.65 219.24 Q 280.39 217.02 282.98 213.73 C 289.14 205.92 293.73 198.27 295.35 188.32 Q 297.58 182.19 296.87 178.00 Q 295.65 170.79 295.01 165.87 Q 294.29 160.37 297.29 165.04 Q 299.85 169.02 300.55 174.72 Q 301.98 186.28 298.69 195.92 Q 295.83 204.30 289.40 212.92 Q 287.38 215.62 284.99 217.68 Q 282.72 219.64 280.52 221.98 C 278.37 224.25 275.80 225.84 273.42 227.87 Z"/>
  <path fill="#af7113" d=" M 247.24 168.61 Q 247.81 170.49 246.48 170.18 A 0.62 0.61 -4.7 0 0 245.77 171.01 Q 249.96 181.02 259.26 183.96 Q 261.38 184.63 262.52 184.00 Q 264.59 184.17 266.36 185.24 Q 261.77 186.34 256.26 186.00 Q 246.86 185.42 240.28 179.99 Q 239.85 179.64 239.58 180.13 Q 238.54 182.01 237.14 183.64 Q 232.59 188.93 233.36 195.29 Q 234.27 202.90 238.79 210.49 Q 239.22 211.22 238.44 210.91 Q 232.89 208.72 227.32 204.92 A 0.65 0.65 0.0 0 0 226.31 205.51 C 226.36 206.14 227.07 206.87 227.35 207.58 Q 228.83 211.26 229.37 215.13 Q 229.57 216.63 228.50 215.57 C 224.35 211.48 218.51 209.43 212.64 207.68 Q 209.78 206.83 207.98 204.94 Q 205.59 202.44 205.42 198.64 L 207.61 201.34 Q 208.05 202.81 209.01 203.43 Q 216.34 208.22 223.85 204.64 C 225.64 203.78 226.93 202.33 227.60 200.50 Q 228.79 197.24 229.36 193.94 C 230.70 186.17 237.78 181.96 240.42 174.91 Q 240.86 173.73 241.31 174.90 Q 243.36 180.27 249.95 181.33 A 0.37 0.37 0.0 0 0 250.21 180.65 C 247.86 179.14 245.27 177.61 244.08 175.07 Q 242.61 171.92 241.88 168.11 Q 241.77 167.52 241.35 167.11 Q 241.03 166.79 240.64 166.93 Q 240.16 167.09 240.04 167.58 Q 239.03 171.74 235.79 173.95 C 236.44 171.27 238.78 168.38 237.27 164.88 Q 237.07 164.43 237.56 164.51 Q 243.13 165.53 247.24 168.61 Z"/>
  <path fill="#a35e03" d=" M 281.46 167.39 Q 281.95 166.81 282.12 166.11 Q 282.32 165.31 282.76 166.00 L 285.38 170.12 A 1.64 1.64 0.0 0 1 285.14 172.17 Q 279.06 178.06 270.79 175.10 Q 269.89 174.77 270.81 174.52 Q 276.82 172.89 281.46 167.39 Z"/>
  <path fill="#a35e03" d=" M 307.53 172.59 Q 319.03 186.40 313.22 202.98 Q 312.37 205.41 310.84 207.30 A 0.44 0.44 0.0 0 1 310.07 207.10 L 309.75 205.16 Q 310.81 195.70 310.27 190.49 Q 309.38 181.81 303.37 170.29 Q 302.59 168.78 301.79 166.45 Q 301.48 165.54 302.23 166.15 Q 305.66 168.99 307.53 172.59 Z"/>
  <path fill="#facf47" d=" M 207.61 201.34 Q 214.02 203.07 217.99 202.61 Q 223.45 201.98 225.37 197.87 Q 227.78 192.72 227.03 184.85 Q 228.77 181.35 232.32 177.57 Q 234.18 175.59 235.79 173.95 Q 239.03 171.74 240.04 167.58 Q 240.16 167.09 240.64 166.93 Q 241.03 166.79 241.35 167.11 Q 241.77 167.52 241.88 168.11 Q 242.61 171.92 244.08 175.07 C 245.27 177.61 247.86 179.14 250.21 180.65 A 0.37 0.37 0.0 0 1 249.95 181.33 Q 243.36 180.27 241.31 174.90 Q 240.86 173.73 240.42 174.91 C 237.78 181.96 230.70 186.17 229.36 193.94 Q 228.79 197.24 227.60 200.50 C 226.93 202.33 225.64 203.78 223.85 204.64 Q 216.34 208.22 209.01 203.43 Q 208.05 202.81 207.61 201.34 Z"/>
  <path fill="#a35e03" d=" M 211.28 167.35 L 208.15 171.27 Q 205.44 172.94 202.31 173.41 Q 197.53 174.15 197.26 174.23 C 193.64 175.37 191.49 177.62 189.36 180.64 C 186.26 185.01 181.90 184.52 178.14 181.43 C 174.20 178.19 170.94 175.10 172.67 169.83 Q 173.17 171.86 173.79 174.00 Q 174.61 176.84 178.92 179.32 Q 184.06 184.84 190.69 174.38 Q 190.90 173.57 192.38 172.33 L 193.54 171.81 Q 197.11 172.24 200.62 172.19 C 202.61 172.17 204.45 171.16 206.33 170.57 Q 207.73 170.12 208.94 169.20 Q 210.06 168.33 211.28 167.35 Z"/>
  <path fill="#facf47" d=" M 247.24 168.61 L 250.28 171.14 Q 248.92 171.15 250.17 173.21 Q 254.63 180.58 262.52 184.00 Q 261.38 184.63 259.26 183.96 Q 249.96 181.02 245.77 171.01 A 0.62 0.61 -4.7 0 1 246.48 170.18 Q 247.81 170.49 247.24 168.61 Z"/>
  <path fill="#d08a12" d=" M 185.49 169.30 Q 185.07 172.25 180.76 171.89 Q 179.07 171.75 179.06 169.98 Q 182.50 171.41 185.49 169.30 Z"/>
  <path fill="#fee5a4" d=" M 217.27 172.44 Q 213.16 175.91 211.31 181.13 L 209.93 176.89 Q 209.78 176.40 210.17 176.07 C 212.89 173.82 215.11 171.47 218.48 170.10 Q 219.03 169.87 218.79 170.41 Q 218.27 171.56 217.27 172.44 Z"/>
  <path fill="#fffcd2" d=" M 250.28 171.14 Q 257.56 179.92 267.91 184.60 Q 268.77 184.99 267.84 185.09 L 266.36 185.24 Q 264.59 184.17 262.52 184.00 Q 254.63 180.58 250.17 173.21 Q 248.92 171.15 250.28 171.14 Z"/>
  <path fill="#a35e03" d=" M 217.27 172.44 Q 217.70 172.86 217.56 173.62 Q 217.46 174.16 217.09 174.57 Q 213.22 178.85 211.81 183.21 Q 211.57 183.95 211.31 183.21 Q 210.95 182.20 211.31 181.13 Q 213.16 175.91 217.27 172.44 Z"/>
  <path fill="#d08a12" d=" M 307.53 172.59 Q 309.38 172.57 309.95 173.25 Q 311.20 174.76 312.52 176.24 Q 313.76 177.63 314.89 179.62 Q 316.24 182.02 318.07 184.32 Q 318.49 184.84 318.97 184.37 Q 319.55 183.78 319.43 182.95 Q 318.95 179.73 318.28 176.81 Q 318.02 175.71 318.94 176.38 C 320.09 177.22 321.24 177.93 322.11 179.15 Q 323.47 181.06 325.00 182.80 C 325.41 183.11 325.77 183.23 326.06 183.67 Q 329.92 189.61 332.76 197.50 Q 333.15 202.75 330.59 208.90 Q 330.35 209.48 330.18 208.87 L 327.60 199.43 Q 325.45 191.63 319.92 185.21 Q 319.58 184.81 319.48 185.32 Q 318.95 187.85 319.86 190.58 Q 319.74 192.70 319.75 194.85 Q 319.76 196.73 320.49 199.02 Q 322.87 206.53 322.68 214.56 L 322.57 215.66 Q 322.54 216.04 322.16 216.14 Q 321.97 216.18 321.82 216.05 Q 321.53 215.80 321.45 215.46 Q 319.90 209.45 316.12 203.91 A 0.56 0.56 0.0 0 0 315.15 203.98 L 312.82 208.75 Q 310.44 213.24 309.61 218.53 Q 308.58 225.15 308.16 226.36 Q 305.19 235.01 297.59 239.44 Q 296.64 239.19 296.58 238.59 Q 296.53 238.12 297.04 237.63 Q 301.11 233.72 302.59 229.86 Q 303.78 226.76 304.97 223.66 Q 305.79 221.55 305.91 219.81 Q 306.70 211.69 306.08 203.67 Q 307.06 205.16 307.13 206.90 Q 307.16 207.42 307.63 207.61 Q 308.04 207.77 308.42 207.53 Q 308.68 207.36 308.87 206.88 Q 309.23 205.96 309.75 205.16 L 310.07 207.10 A 0.44 0.44 0.0 0 0 310.84 207.30 Q 312.37 205.41 313.22 202.98 Q 319.03 186.40 307.53 172.59 Z"/>
  <path fill="#fff9b7" d=" M 323.49 173.46 Q 327.39 178.29 329.18 181.29 Q 333.28 188.16 332.76 197.50 Q 329.92 189.61 326.06 183.67 C 325.77 183.23 325.41 183.11 325.00 182.80 Q 325.20 182.81 325.30 182.70 Q 325.45 182.54 325.31 182.37 Q 324.08 180.80 323.96 178.35 Q 323.93 177.78 323.66 177.28 Q 322.75 175.58 323.49 173.46 Z"/>
  <path fill="#d08a12" d=" M 190.69 174.38 Q 184.06 184.84 178.92 179.32 Q 185.09 178.88 190.69 174.38 Z"/>
  <path fill="#af7113" d=" M 277.48 188.46 Q 280.90 189.15 282.72 187.22 Q 285.05 184.74 285.06 180.96 Q 285.06 180.32 284.43 180.43 C 283.46 180.61 282.68 180.63 281.71 180.94 Q 279.56 181.61 277.04 180.16 L 286.36 176.91 A 1.09 1.09 0.0 0 1 287.77 177.64 C 288.48 180.10 289.55 186.94 286.47 188.32 Q 282.55 190.08 277.48 188.46 Z"/>
  <path fill="#fff9b7" d=" M 164.03 179.75 Q 165.98 180.55 163.87 180.62 Q 150.43 181.10 145.32 193.53 Q 144.72 194.99 144.91 193.42 Q 145.89 185.63 148.64 177.99 Q 148.81 177.50 149.34 177.46 Q 157.06 176.90 164.03 179.75 Z"/>
  <path fill="#feec91" d=" M 354.80 186.09 Q 351.41 181.22 344.75 182.52 Q 343.10 182.84 342.27 183.65 Q 342.06 183.99 341.83 184.18 Q 341.36 184.56 341.26 183.96 Q 340.99 182.22 340.05 180.90 A 0.83 0.83 0.0 0 1 340.31 179.70 C 341.91 178.77 343.56 177.85 345.43 177.60 Q 350.46 176.94 355.53 177.33 A 0.95 0.93 79.9 0 1 356.32 177.89 Q 359.48 185.05 360.05 193.16 C 360.50 199.50 354.35 203.41 348.64 202.35 C 344.75 201.63 342.45 198.17 343.79 194.44 Q 344.44 192.63 346.84 192.11 Q 347.48 191.97 347.40 192.63 C 346.93 196.25 350.36 197.48 353.19 195.68 Q 358.51 192.30 354.80 186.09 Z"/>
  <path fill="#fffcd2" d=" M 200.65 178.18 L 199.01 186.70 A 0.42 0.42 0.0 0 1 198.25 186.86 L 194.49 181.60 A 0.42 0.42 0.0 0 1 194.62 181.00 L 200.02 177.74 A 0.42 0.42 0.0 0 1 200.65 178.18 Z"/>
  <path fill="#d08a12" d=" M 277.04 180.16 Q 279.56 181.61 281.71 180.94 C 282.68 180.63 283.46 180.61 284.43 180.43 Q 285.06 180.32 285.06 180.96 Q 285.05 184.74 282.72 187.22 Q 280.90 189.15 277.48 188.46 L 277.04 180.16 Z"/>
  <path fill="#66320a" d=" M 354.80 186.09 Q 349.34 182.51 344.26 183.98 C 343.42 184.22 342.99 184.01 342.27 183.65 Q 343.10 182.84 344.75 182.52 Q 351.41 181.22 354.80 186.09 Z"/>
  <path fill="#facf47" d=" M 376.60 182.40 Q 380.46 198.54 379.68 216.50 Q 379.62 218.02 379.41 219.96 Q 377.36 239.17 370.50 256.74 Q 368.86 260.93 366.42 265.28 Q 366.18 265.72 365.73 265.94 Q 363.27 267.13 360.59 267.45 L 356.46 267.46 Q 362.17 257.58 364.29 250.01 Q 365.67 245.13 367.02 240.26 Q 368.60 234.55 369.29 230.39 Q 372.48 211.03 369.87 191.48 Q 369.67 189.95 370.56 187.56 A 0.05 0.05 0.0 0 0 370.49 187.50 Q 370.35 187.59 370.25 187.47 Q 370.20 187.41 370.25 187.35 Q 372.66 184.39 376.60 182.40 Z"/>
  <path fill="#66320a" d=" M 327.60 199.43 Q 324.58 195.76 322.01 192.00 Q 321.18 190.78 320.80 189.38 Q 320.74 189.16 320.52 189.10 Q 320.37 189.06 320.21 189.14 Q 320.10 189.21 320.11 189.34 Q 320.16 190.05 319.86 190.58 Q 318.95 187.85 319.48 185.32 Q 319.58 184.81 319.92 185.21 Q 325.45 191.63 327.60 199.43 Z"/>
  <path fill="#fffcd2" d=" M 227.03 184.85 Q 227.78 192.72 225.37 197.87 Q 223.45 201.98 217.99 202.61 Q 214.02 203.07 207.61 201.34 L 205.42 198.64 L 205.33 197.78 Q 205.28 197.19 205.86 197.30 Q 212.85 198.59 218.05 198.31 Q 222.65 198.06 223.66 193.42 Q 224.80 188.18 227.03 184.85 Z"/>
  <path fill="#11465d" d=" M 213.18 220.54 A 1.31 1.29 5.4 0 0 212.33 219.52 Q 206.11 217.32 199.94 214.12 Q 198.72 213.49 197.87 212.43 Q 196.92 211.23 195.75 210.03 A 1.36 1.36 0.0 0 0 193.78 210.06 Q 188.28 216.05 180.34 218.36 Q 179.95 218.47 179.55 218.39 A 0.47 0.47 0.0 0 1 179.24 217.67 Q 189.07 202.14 177.39 188.76 Q 175.31 186.37 178.09 187.88 C 180.83 189.36 184.43 188.81 187.65 188.15 Q 188.34 188.01 188.89 188.44 Q 192.75 191.49 198.10 192.04 Q 198.82 192.12 198.68 192.83 C 196.49 203.67 203.29 212.19 213.56 215.07 C 216.36 215.85 218.91 217.11 221.06 219.06 A 0.35 0.35 0.0 0 1 221.00 219.62 Q 214.23 223.47 206.55 229.62 Q 205.66 230.32 205.35 229.23 Q 204.99 227.94 205.89 226.63 Q 206.76 225.38 208.14 224.74 Q 210.19 223.78 211.86 222.84 Q 213.40 221.97 213.18 220.54 Z"/>
  <path fill="#fffcd2" d=" M 211.02 195.97 A 0.01 0.01 0.0 0 1 211.02 195.98 L 210.98 196.01 A 3.92 2.30 52.0 0 1 206.75 194.34 L 206.55 194.07 A 3.92 2.30 52.0 0 1 205.94 189.57 L 205.98 189.54 A 0.01 0.01 0.0 0 1 206.00 189.54 L 211.02 195.97 Z"/>
  <path fill="#feec91" d=" M 176.41 202.42 C 175.70 204.97 175.19 207.67 174.02 209.84 Q 170.37 216.58 162.51 218.30 Q 160.60 218.72 154.07 218.73 Q 148.26 217.13 144.42 212.94 Q 144.08 212.56 144.05 212.04 Q 143.81 206.23 144.18 200.48 Q 144.25 199.33 144.65 200.41 C 145.00 201.34 145.05 202.37 145.44 203.28 C 148.32 210.10 154.97 214.32 162.37 212.18 C 166.86 210.88 170.25 206.76 169.35 201.97 C 168.78 198.87 166.02 196.27 162.73 196.33 C 160.64 196.37 157.70 197.75 158.68 200.35 Q 159.27 201.90 160.20 203.13 A 0.86 0.86 0.0 0 1 159.59 204.50 C 152.56 205.08 150.57 198.17 154.59 193.21 C 158.43 188.48 164.77 188.90 169.56 192.04 Q 175.04 195.63 176.41 202.42 Z"/>
  <path fill="#fffcd2" d=" M 218.68 190.33 L 220.17 194.16 A 1.27 1.26 -4.3 0 1 218.71 195.85 C 217.24 195.52 216.26 193.75 216.95 192.28 Q 217.43 191.24 218.06 190.26 A 0.35 0.35 0.0 0 1 218.68 190.33 Z"/>
  <path fill="#11465d" d=" M 247.74 199.85 Q 250.13 199.19 247.70 198.71 Q 243.04 197.79 242.94 192.00 A 0.45 0.45 0.0 0 1 243.52 191.56 Q 247.03 192.67 251.04 193.48 C 255.52 194.39 259.73 193.63 264.10 193.04 A 0.33 0.33 0.0 0 1 264.42 193.55 C 260.28 199.88 253.29 203.90 246.48 206.83 A 0.56 0.56 0.0 0 1 245.73 206.51 L 243.51 200.51 Q 243.26 199.84 243.97 199.97 Q 245.98 200.33 247.74 199.85 Z"/>
  <path fill="#a35e03" d=" M 273.46 203.05 Q 277.71 203.49 279.65 201.81 C 281.75 199.98 280.67 197.07 278.55 195.75 Q 276.85 194.69 274.99 193.62 Q 274.86 193.24 274.97 192.93 Q 275.13 192.46 275.62 192.51 L 285.10 193.47 A 1.26 1.26 0.0 0 1 286.22 194.87 C 285.74 198.90 283.41 204.50 278.72 204.84 Q 275.96 205.05 273.46 203.05 Z"/>
  <path fill="#facf47" d=" M 274.99 193.62 Q 276.85 194.69 278.55 195.75 C 280.67 197.07 281.75 199.98 279.65 201.81 Q 277.71 203.49 273.46 203.05 Q 272.37 202.93 270.92 201.89 Q 270.41 201.53 270.72 200.99 L 274.99 193.62 Z"/>
  <path fill="#d08a12" d=" M 303.71 196.58 Q 304.19 205.19 302.06 213.76 Q 301.40 216.44 300.38 218.12 Q 298.27 221.59 296.30 224.91 Q 290.98 231.57 285.06 237.54 Q 282.14 240.50 279.82 243.36 C 277.87 245.75 274.79 248.62 273.61 251.42 Q 273.56 251.53 273.45 251.47 L 273.14 251.29 Q 272.95 251.18 273.04 250.98 L 276.86 242.89 Q 279.10 239.94 280.90 236.62 Q 282.82 233.08 284.55 230.13 Q 288.49 223.44 292.45 216.75 Q 294.16 213.86 296.26 209.57 Q 297.49 207.06 296.31 207.81 L 302.08 195.01 Q 302.33 194.46 302.79 194.85 Q 303.44 195.41 303.71 196.58 Z"/>
  <path fill="#66320a" d=" M 303.71 196.58 Q 305.60 200.17 306.08 203.67 Q 306.70 211.69 305.91 219.81 Q 305.20 220.87 304.30 217.49 Q 304.17 216.98 303.75 217.29 Q 303.14 217.73 303.04 218.16 Q 301.95 223.18 299.63 227.55 Q 297.81 224.23 296.30 224.91 Q 298.27 221.59 300.38 218.12 Q 301.40 216.44 302.06 213.76 Q 304.19 205.19 303.71 196.58 Z"/>
  <path fill="#a35e03" d=" M 176.41 202.42 Q 176.99 205.62 176.35 208.12 Q 175.40 211.87 172.93 214.71 Q 170.65 217.33 166.93 218.65 Q 160.32 220.99 154.07 218.73 Q 160.60 218.72 162.51 218.30 Q 170.37 216.58 174.02 209.84 C 175.19 207.67 175.70 204.97 176.41 202.42 Z"/>
  <path fill="#af7113" d=" M 322.68 214.56 Q 323.12 222.68 318.27 229.05 Q 317.80 229.67 317.94 228.90 Q 319.87 218.17 312.82 208.75 L 315.15 203.98 A 0.56 0.56 0.0 0 1 316.12 203.91 Q 319.90 209.45 321.45 215.46 Q 321.53 215.80 321.82 216.05 Q 321.97 216.18 322.16 216.14 Q 322.54 216.04 322.57 215.66 L 322.68 214.56 Z"/>
  <path fill="#fffcd2" d=" M 268.42 205.22 Q 265.04 210.24 259.83 213.75 Q 259.12 214.23 257.42 214.71 Q 255.50 215.26 255.48 216.76 Q 253.51 215.87 252.54 214.27 Q 252.28 213.83 252.73 213.59 Q 259.89 209.72 266.02 204.52 Q 266.88 203.79 268.42 205.22 Z"/>
  <path fill="#fcdd5a" d=" M 268.42 205.22 L 270.81 206.29 Q 271.19 206.97 269.75 207.06 Q 269.15 207.10 269.17 207.70 Q 269.19 208.38 269.87 208.69 A 3.44 2.90 28.8 0 1 271.60 213.19 C 268.67 217.54 263.77 219.68 259.02 216.97 Q 258.73 216.81 258.45 216.96 Q 258.18 217.09 258.43 217.26 Q 259.97 218.25 258.99 218.55 Q 256.69 217.98 255.48 216.76 Q 255.50 215.26 257.42 214.71 Q 259.12 214.23 259.83 213.75 Q 265.04 210.24 268.42 205.22 Z"/>
  <path fill="#feec91" d=" M 343.72 218.40 L 338.11 216.04 L 339.90 210.50 Q 340.11 209.87 340.68 210.19 Q 343.22 211.60 345.73 211.86 Q 355.24 212.84 360.81 205.69 A 0.14 0.14 0.0 0 1 361.05 205.78 L 361.07 211.09 Q 361.07 211.40 360.85 211.64 Q 353.55 219.64 343.72 218.40 Z"/>
  <path fill="#facf47" d=" M 135.24 211.06 L 135.79 224.78 Q 134.89 229.87 136.50 236.26 Q 141.35 255.44 151.34 271.25 Q 150.12 271.43 149.29 270.95 Q 148.79 270.66 148.25 270.83 Q 146.84 271.28 145.33 271.10 Q 144.80 271.04 144.38 271.37 Q 144.00 271.65 143.56 271.77 Q 143.08 271.90 142.72 271.57 Q 142.11 270.99 141.21 270.74 Q 140.07 268.98 139.07 266.93 C 134.82 258.24 132.09 250.14 129.11 240.10 C 127.98 236.29 127.45 232.40 126.73 228.47 C 126.16 225.37 126.22 222.41 125.66 219.36 C 124.99 215.65 125.27 211.48 125.34 207.72 Q 125.25 206.88 125.45 206.38 Q 125.64 205.88 125.98 206.30 Q 126.64 207.09 127.41 206.65 Q 127.82 206.41 127.86 206.88 Q 127.87 206.94 127.89 207.00 Q 127.96 207.14 128.14 207.21 Q 130.09 207.93 131.96 208.81 Q 132.40 209.03 132.69 209.43 Q 133.57 210.72 135.24 211.06 Z"/>
  <path fill="#af7113" d=" M 270.81 206.29 L 276.51 209.67 A 1.17 1.16 30.0 0 1 276.93 211.23 Q 272.96 218.45 264.52 220.03 Q 262.79 220.36 258.99 218.55 Q 259.97 218.25 258.43 217.26 Q 258.18 217.09 258.45 216.96 Q 258.73 216.81 259.02 216.97 C 263.77 219.68 268.67 217.54 271.60 213.19 A 3.44 2.90 28.8 0 0 269.87 208.69 Q 269.19 208.38 269.17 207.70 Q 269.15 207.10 269.75 207.06 Q 271.19 206.97 270.81 206.29 Z"/>
  <path fill="#66320a" d=" M 276.86 242.89 Q 275.11 240.56 271.41 239.87 Q 277.38 231.82 283.49 223.99 Q 283.88 223.49 290.26 216.21 Q 293.67 212.32 296.31 207.81 Q 297.49 207.06 296.26 209.57 Q 294.16 213.86 292.45 216.75 Q 288.49 223.44 284.55 230.13 Q 282.82 233.08 280.90 236.62 Q 279.10 239.94 276.86 242.89 Z"/>
  <path fill="#fff9b7" d=" M 202.18 221.39 Q 200.33 220.31 198.51 220.93 Q 198.02 221.09 197.69 221.48 L 195.78 223.77 Q 195.34 224.29 194.82 223.86 L 188.99 219.16 Q 191.15 218.28 191.82 217.56 Q 194.18 215.04 194.73 211.49 Q 194.87 210.64 195.19 211.44 L 197.61 217.51 A 1.08 1.08 0.0 0 0 198.18 218.08 L 203.57 220.30 Q 204.09 220.52 203.62 220.82 Q 203.03 221.20 202.18 221.39 Z"/>
  <path fill="#fffcd2" d=" M 250.67 218.18 Q 250.39 219.13 248.50 219.41 Q 246.89 219.65 245.63 220.41 Q 241.37 222.95 237.23 224.51 Q 236.68 224.71 236.75 225.30 Q 236.81 225.70 237.15 225.93 A 0.51 0.48 -76.2 0 1 237.36 226.30 Q 237.40 226.85 236.77 227.04 L 233.37 224.33 Q 232.31 223.48 233.40 222.65 C 237.38 219.65 242.88 218.20 247.57 216.27 Q 247.98 216.10 248.33 216.37 L 250.67 218.18 Z"/>
  <path fill="#66320a" d=" M 338.11 216.04 L 343.72 218.40 Q 336.44 219.39 338.11 216.04 Z"/>
  <path fill="#a35e03" d=" M 305.91 219.81 Q 305.79 221.55 304.97 223.66 Q 303.78 226.76 302.59 229.86 Q 301.11 233.72 297.04 237.63 Q 296.53 238.12 296.58 238.59 Q 296.64 239.19 297.59 239.44 L 290.99 241.10 Q 289.55 241.47 290.68 240.51 Q 296.62 235.50 299.63 227.55 Q 301.95 223.18 303.04 218.16 Q 303.14 217.73 303.75 217.29 Q 304.17 216.98 304.30 217.49 Q 305.20 220.87 305.91 219.81 Z"/>
  <path fill="#fcdd5a" d=" M 250.67 218.18 L 259.76 223.61 Q 257.59 223.28 257.19 224.75 Q 256.98 225.49 256.44 226.04 C 252.98 229.54 248.41 231.07 243.90 229.22 Q 242.53 228.66 241.02 228.15 Q 240.42 227.94 240.53 228.57 Q 240.63 229.12 240.12 229.28 L 236.77 227.04 Q 237.40 226.85 237.36 226.30 A 0.51 0.48 -76.2 0 0 237.15 225.93 Q 236.81 225.70 236.75 225.30 Q 236.68 224.71 237.23 224.51 Q 241.37 222.95 245.63 220.41 Q 246.89 219.65 248.50 219.41 Q 250.39 219.13 250.67 218.18 Z"/>
  <path fill="#fcdd5a" d=" M 188.99 219.16 L 194.82 223.86 Q 195.34 224.29 195.78 223.77 L 197.69 221.48 Q 198.02 221.09 198.51 220.93 Q 200.33 220.31 202.18 221.39 Q 196.26 223.16 195.59 229.65 Q 195.50 230.53 195.10 229.74 C 194.19 227.98 193.67 225.88 192.29 224.46 Q 189.61 221.71 185.83 220.90 Q 185.15 220.75 185.75 220.41 Q 187.80 219.22 188.99 219.16 Z"/>
  <path fill="#fffcd2" d=" M 360.05 221.48 Q 352.89 224.13 350.29 228.76 Q 346.88 234.83 343.41 240.91 Q 341.41 244.43 334.56 248.46 Q 334.04 247.90 333.97 247.38 Q 333.89 246.86 334.37 246.63 C 339.36 244.23 342.68 240.62 344.96 235.51 C 348.14 228.37 352.10 222.86 359.76 219.89 Q 360.30 219.68 360.32 220.25 Q 360.35 220.89 360.05 221.48 Z"/>
  <path fill="#fcdd5a" d=" M 165.13 231.98 Q 178.39 224.06 190.86 232.82 Q 195.07 236.54 194.05 243.13 Q 193.10 249.23 186.21 250.86 Q 185.15 251.12 183.08 249.85 Q 182.60 249.56 183.02 249.17 C 191.35 241.58 179.95 231.18 171.86 238.89 C 168.48 242.12 168.88 247.92 171.29 251.46 C 174.07 255.53 179.70 259.88 184.60 260.33 Q 185.33 260.40 185.14 261.11 L 184.59 263.16 Q 183.45 262.15 181.35 261.13 Q 174.82 257.96 168.12 261.53 Q 161.04 256.01 157.62 251.14 Q 152.76 244.21 148.93 240.33 Q 146.71 235.36 145.97 231.49 Q 144.93 226.02 144.30 220.62 A 0.24 0.23 -79.9 0 1 144.64 220.38 Q 151.52 223.89 155.08 231.11 C 156.59 234.18 157.63 238.15 160.09 240.58 Q 160.45 240.94 160.57 240.44 Q 161.96 234.71 165.13 231.98 Z"/>
  <path fill="#facf47" d=" M 360.05 221.48 Q 359.32 230.07 356.94 237.32 Q 352.87 241.92 349.46 246.22 Q 345.30 251.45 337.26 257.27 L 334.56 248.46 Q 341.41 244.43 343.41 240.91 Q 346.88 234.83 350.29 228.76 Q 352.89 224.13 360.05 221.48 Z"/>
  <path fill="#a35e03" d=" M 259.76 223.61 Q 260.60 223.98 260.52 225.11 Q 260.48 225.62 260.13 225.99 C 254.49 231.88 247.61 234.56 240.12 229.28 Q 240.63 229.12 240.53 228.57 Q 240.42 227.94 241.02 228.15 Q 242.53 228.66 243.90 229.22 C 248.41 231.07 252.98 229.54 256.44 226.04 Q 256.98 225.49 257.19 224.75 Q 257.59 223.28 259.76 223.61 Z"/>
  <path fill="#fff9b7" d=" M 135.79 224.78 Q 138.67 243.26 146.60 259.37 C 149.32 264.89 153.11 270.37 156.28 275.93 Q 158.00 278.96 160.27 281.56 Q 168.54 291.03 177.35 299.05 C 181.20 302.55 186.10 305.16 190.62 308.10 Q 202.68 315.93 216.71 320.57 C 222.17 322.37 227.67 323.08 233.24 324.16 Q 250.64 327.52 270.41 324.41 Q 274.77 323.72 279.60 322.80 Q 284.47 321.87 288.80 320.39 Q 325.18 307.97 347.98 276.92 Q 348.28 276.50 348.79 276.47 L 359.01 275.75 Q 358.74 275.98 358.65 276.23 Q 358.49 276.67 358.02 276.71 L 350.99 277.36 Q 350.08 277.44 349.51 278.15 Q 345.80 282.79 342.08 287.39 Q 337.79 292.69 330.39 299.22 C 328.13 301.21 325.70 302.71 323.41 304.55 C 314.78 311.50 303.94 317.07 293.90 320.94 C 290.21 322.36 286.32 322.95 282.49 324.07 C 260.63 330.44 237.76 328.82 216.28 322.43 Q 206.36 319.48 198.04 314.90 Q 184.90 307.67 177.47 301.44 Q 168.83 294.20 159.49 283.24 C 156.39 279.60 154.04 275.30 151.34 271.25 Q 141.35 255.44 136.50 236.26 Q 134.89 229.87 135.79 224.78 Z"/>
  <path fill="#fffcd2" d=" M 236.10 231.21 Q 230.42 229.44 227.51 231.32 Q 222.85 234.34 220.06 236.50 A 1.03 1.02 -19.2 0 0 219.66 237.31 L 219.66 239.02 Q 216.75 237.74 215.07 235.46 A 0.68 0.68 0.0 0 1 215.14 234.58 Q 220.73 228.93 227.75 225.97 Q 228.25 225.76 228.70 226.07 L 236.10 231.21 Z"/>
  <path fill="#fffcd2" d=" M 190.86 232.82 Q 178.39 224.06 165.13 231.98 Q 171.38 224.42 181.50 226.48 Q 187.47 227.70 190.86 232.82 Z"/>
  <path fill="#66320a" d=" M 273.42 227.87 Q 273.78 228.26 274.05 228.20 Q 274.69 228.05 274.28 228.57 Q 269.08 235.14 264.86 242.12 Q 260.93 248.60 260.44 258.92 L 256.19 270.63 Q 255.93 271.35 255.57 270.67 Q 254.96 269.52 254.66 267.95 A 0.40 0.39 -5.2 0 0 254.27 267.63 L 253.77 267.63 Q 252.95 267.63 252.97 268.44 L 253.32 281.25 Q 251.09 279.10 250.50 277.21 Q 249.77 274.84 249.45 277.30 C 248.94 281.22 249.10 285.49 250.55 289.21 Q 253.77 297.45 261.60 302.11 Q 262.90 303.06 261.11 305.10 Q 259.22 307.26 262.01 307.90 Q 266.38 308.89 270.00 311.14 C 262.86 311.20 258.54 308.07 253.42 303.08 C 248.35 298.14 246.03 290.67 245.55 283.85 Q 245.32 280.64 246.49 275.25 Q 247.53 270.42 248.20 265.39 Q 253.14 254.58 259.80 244.46 Q 261.62 241.71 265.10 237.79 Q 267.92 234.62 270.53 231.19 L 273.42 227.87 Z"/>
  <path fill="#fcdd5a" d=" M 236.10 231.21 L 242.24 235.39 Q 242.53 235.88 241.44 235.97 Q 240.87 236.02 240.93 236.60 Q 241.08 237.92 240.14 238.93 Q 236.52 242.85 230.95 241.37 Q 226.45 240.17 221.90 238.65 Q 221.29 238.44 221.65 238.98 Q 222.03 239.54 222.08 239.91 Q 220.69 239.65 219.66 239.02 L 219.66 237.31 A 1.03 1.02 -19.2 0 1 220.06 236.50 Q 222.85 234.34 227.51 231.32 Q 230.42 229.44 236.10 231.21 Z"/>
  <path fill="#fff9b7" d=" M 335.59 232.88 C 335.24 234.54 335.00 236.72 333.59 237.67 Q 331.82 238.86 329.66 237.33 Q 327.76 235.99 327.85 233.70 A 4.52 4.35 0.8 0 1 335.59 232.88 Z"/>
  <path fill="#facf47" d=" M 270.53 231.19 Q 267.92 234.62 265.10 237.79 Q 261.62 241.71 259.80 244.46 Q 253.14 254.58 248.20 265.39 Q 245.83 269.53 245.00 273.97 Q 244.88 274.62 244.21 274.62 L 243.75 274.62 A 0.45 0.45 0.0 0 1 243.31 274.07 Q 243.79 272.12 242.67 270.87 Q 243.09 268.03 243.70 265.14 C 244.64 260.63 246.70 256.53 248.66 252.53 Q 249.28 251.24 248.41 252.37 C 244.90 256.89 241.58 261.67 239.84 267.31 Q 237.37 275.31 237.30 283.68 L 236.98 285.15 Q 236.87 285.67 236.43 285.96 Q 235.34 286.68 235.31 287.93 Q 235.22 291.40 236.42 295.62 A 0.88 0.88 0.0 0 1 236.16 296.50 L 235.92 296.72 Q 235.54 297.07 235.38 296.58 Q 234.78 294.74 234.27 292.99 Q 234.21 292.77 233.96 292.72 Q 233.45 292.62 233.51 293.14 C 233.92 296.86 235.60 300.61 237.32 303.96 C 240.12 309.40 242.08 313.07 246.79 315.96 A 0.69 0.69 0.0 0 1 247.03 316.89 Q 246.94 317.06 246.54 317.08 L 236.82 315.96 A 1.43 1.40 77.8 0 1 235.76 315.26 C 231.80 308.39 228.68 301.25 227.74 293.20 Q 226.27 280.65 230.47 268.38 Q 230.75 273.70 230.05 279.80 Q 229.95 280.70 230.85 281.80 Q 231.05 282.05 231.39 282.06 A 0.82 0.80 5.5 0 0 232.23 281.38 C 233.87 271.15 237.48 260.12 244.63 252.78 C 248.59 248.72 252.17 244.31 256.70 240.93 C 260.14 238.36 263.40 235.62 266.88 233.12 Q 269.22 231.44 270.53 231.19 Z"/>
  <path fill="#d08a12" d=" M 335.59 232.88 A 4.51 4.35 0.0 0 1 334.85 238.84 A 4.52 4.35 1.2 0 1 329.55 239.15 A 4.51 4.34 1.1 0 1 327.85 233.70 Q 327.76 235.99 329.66 237.33 Q 331.82 238.86 333.59 237.67 C 335.00 236.72 335.24 234.54 335.59 232.88 Z"/>
  <path fill="#af7113" d=" M 242.24 235.39 Q 243.70 235.84 244.14 237.05 A 1.77 1.76 -28.9 0 1 243.56 239.05 Q 241.84 240.38 240.19 242.03 C 235.54 246.67 226.70 242.36 222.08 239.91 Q 222.03 239.54 221.65 238.98 Q 221.29 238.44 221.90 238.65 Q 226.45 240.17 230.95 241.37 Q 236.52 242.85 240.14 238.93 Q 241.08 237.92 240.93 236.60 Q 240.87 236.02 241.44 235.97 Q 242.53 235.88 242.24 235.39 Z"/>
  <path fill="#66320a" d=" M 320.68 243.09 Q 318.57 242.85 316.80 241.87 Q 316.41 241.66 316.52 242.10 L 318.04 248.26 Q 318.61 258.65 313.36 266.58 Q 302.82 282.48 283.51 282.49 Q 280.42 282.49 275.80 281.10 Q 272.14 279.41 269.17 276.58 Q 267.67 275.14 269.61 275.89 Q 283.49 281.25 296.49 274.78 C 302.16 271.96 308.32 264.82 308.52 258.27 Q 308.62 254.71 308.09 251.11 Q 307.34 246.02 307.07 251.16 Q 306.72 257.63 301.33 264.39 Q 296.73 262.48 293.36 258.94 A 0.63 0.62 -37.8 0 1 293.49 257.98 C 296.10 256.35 298.11 254.22 298.81 251.13 Q 299.23 249.26 299.88 247.55 A 1.40 1.38 -2.4 0 1 300.60 246.78 Q 307.27 243.69 311.36 238.02 Q 311.71 237.52 312.31 237.67 Q 317.17 238.91 320.68 243.09 Z"/>
  <path fill="#66320a" d=" M 356.94 237.32 Q 354.24 248.93 349.58 257.54 Q 348.08 260.30 341.92 270.67 Q 338.45 276.51 331.30 282.52 L 327.56 278.90 L 330.42 269.92 Q 338.06 266.04 342.35 260.95 Q 346.08 256.52 341.25 259.71 Q 340.27 260.37 336.34 260.69 Q 337.32 259.54 337.26 257.27 Q 345.30 251.45 349.46 246.22 Q 352.87 241.92 356.94 237.32 Z"/>
  <path fill="#fffcd2" d=" M 220.61 243.16 Q 219.70 244.13 217.49 242.96 Q 214.53 241.39 211.86 243.80 Q 208.92 246.44 207.01 250.08 Q 206.82 250.44 206.86 250.83 Q 206.90 251.18 207.02 251.49 Q 207.25 252.06 206.65 251.93 Q 206.48 251.89 206.32 251.93 Q 205.99 252.01 205.94 252.35 Q 205.89 252.78 206.21 252.62 Q 206.66 253.16 206.62 253.50 Q 206.60 253.78 206.19 253.89 L 201.90 251.74 A 1.51 1.51 0.0 0 1 201.22 249.74 C 202.94 246.13 206.71 240.79 210.59 238.82 Q 211.01 238.61 211.47 238.74 Q 216.27 240.12 220.61 243.16 Z"/>
  <path fill="#66320a" d=" M 148.93 240.33 Q 152.76 244.21 157.62 251.14 Q 161.04 256.01 168.12 261.53 Q 174.46 266.83 182.01 271.11 Q 179.74 279.87 180.86 288.67 Q 181.15 290.95 179.59 289.27 L 172.07 281.16 L 176.25 276.10 Q 176.43 275.89 176.22 275.70 L 171.47 271.28 A 0.19 0.18 38.5 0 0 171.19 271.31 L 167.70 276.43 Q 154.37 260.38 148.93 240.33 Z"/>
  <path fill="#facf47" d=" M 320.68 243.09 Q 322.83 249.72 322.18 258.00 Q 321.58 265.66 318.31 272.11 C 312.88 282.86 301.65 289.70 289.81 291.42 L 279.42 287.24 Q 278.84 286.40 279.98 284.27 Q 298.37 286.80 311.05 274.02 Q 319.31 265.70 320.04 254.50 Q 320.30 250.61 318.04 248.26 L 316.52 242.10 Q 316.41 241.66 316.80 241.87 Q 318.57 242.85 320.68 243.09 Z"/>
  <path fill="#fcdd5a" d=" M 220.61 243.16 L 228.87 247.64 Q 228.02 248.68 225.99 247.19 Q 225.86 247.09 225.70 247.07 Q 225.53 247.05 225.38 247.09 Q 225.00 247.20 225.29 247.46 Q 226.65 248.67 228.17 249.02 A 1.32 1.31 -66.3 0 1 228.96 251.05 C 226.29 254.93 224.86 257.19 219.47 255.94 Q 212.13 254.24 209.00 253.10 Q 208.36 252.87 207.75 252.56 Q 206.77 252.06 206.21 252.62 Q 205.89 252.78 205.94 252.35 Q 205.99 252.01 206.32 251.93 Q 206.48 251.89 206.65 251.93 Q 207.25 252.06 207.02 251.49 Q 206.90 251.18 206.86 250.83 Q 206.82 250.44 207.01 250.08 Q 208.92 246.44 211.86 243.80 Q 214.53 241.39 217.49 242.96 Q 219.70 244.13 220.61 243.16 Z"/>
  <path fill="#a35e03" d=" M 228.87 247.64 Q 230.55 248.21 231.44 249.81 Q 231.71 250.29 231.51 250.81 Q 229.95 254.87 226.93 257.62 C 225.68 258.76 223.49 258.88 221.99 258.55 Q 215.33 257.09 206.19 253.89 Q 206.60 253.78 206.62 253.50 Q 206.66 253.16 206.21 252.62 Q 206.77 252.06 207.75 252.56 Q 208.36 252.87 209.00 253.10 Q 212.13 254.24 219.47 255.94 C 224.86 257.19 226.29 254.93 228.96 251.05 A 1.32 1.31 -66.3 0 0 228.17 249.02 Q 226.65 248.67 225.29 247.46 Q 225.00 247.20 225.38 247.09 Q 225.53 247.05 225.70 247.07 Q 225.86 247.09 225.99 247.19 Q 228.02 248.68 228.87 247.64 Z"/>
  <path fill="#fff9b7" d=" M 318.04 248.26 Q 320.30 250.61 320.04 254.50 Q 319.31 265.70 311.05 274.02 Q 298.37 286.80 279.98 284.27 Q 275.53 283.52 275.80 281.10 Q 280.42 282.49 283.51 282.49 Q 302.82 282.48 313.36 266.58 Q 318.61 258.65 318.04 248.26 Z"/>
  <path fill="#d08a12" d=" M 275.80 281.10 Q 275.53 283.52 279.98 284.27 Q 278.84 286.40 279.42 287.24 Q 271.35 283.50 267.86 279.63 Q 264.56 275.96 267.21 271.49 Q 268.84 268.76 270.30 268.64 Q 271.56 269.67 273.00 270.19 Q 288.83 275.88 301.33 264.39 Q 306.72 257.63 307.07 251.16 Q 307.34 246.02 308.09 251.11 Q 308.62 254.71 308.52 258.27 C 308.32 264.82 302.16 271.96 296.49 274.78 Q 283.49 281.25 269.61 275.89 Q 267.67 275.14 269.17 276.58 Q 272.14 279.41 275.80 281.10 Z"/>
  <path fill="#66320a" d=" M 242.67 270.87 Q 241.27 278.35 241.53 283.24 Q 242.76 306.83 263.73 316.68 L 251.67 317.33 Q 251.99 317.48 252.14 317.34 A 0.30 0.30 0.0 0 0 252.14 316.88 C 241.99 308.17 238.06 297.18 237.30 283.68 Q 237.37 275.31 239.84 267.31 C 241.58 261.67 244.90 256.89 248.41 252.37 Q 249.28 251.24 248.66 252.53 C 246.70 256.53 244.64 260.63 243.70 265.14 Q 243.09 268.03 242.67 270.87 Z"/>
  <path fill="#fff9b7" d=" M 286.92 261.38 C 285.72 261.78 284.27 262.25 283.44 263.28 C 282.76 264.13 282.66 265.00 282.22 265.95 Q 281.86 266.76 281.72 265.89 Q 281.09 261.98 277.42 260.89 Q 276.77 260.70 277.42 260.51 Q 280.77 259.50 281.77 255.68 Q 282.04 254.67 282.37 255.66 Q 283.72 259.65 286.89 260.49 Q 288.39 260.89 286.92 261.38 Z"/>
  <path fill="#fffcd2" d=" M 213.68 260.03 Q 209.94 260.05 206.28 259.00 Q 203.90 258.32 202.64 258.64 Q 200.53 259.17 199.50 261.03 Q 197.46 264.72 197.96 270.16 Q 197.79 270.89 197.01 271.23 Q 193.56 269.94 194.13 266.63 Q 195.12 260.88 197.70 256.53 Q 198.47 255.23 199.95 255.56 Q 207.13 257.16 213.68 260.03 Z"/>
  <path fill="#d08a12" d=" M 330.42 269.92 L 331.29 263.79 Q 331.42 262.85 332.29 262.47 L 336.34 260.69 Q 340.27 260.37 341.25 259.71 Q 346.08 256.52 342.35 260.95 Q 338.06 266.04 330.42 269.92 Z"/>
  <path fill="#facf47" d=" M 213.68 260.03 Q 215.61 259.90 218.31 261.12 Q 218.41 261.43 218.08 261.99 Q 217.80 262.46 218.30 262.70 C 221.76 264.35 219.87 267.42 218.65 269.75 C 217.60 271.75 216.59 271.86 214.50 271.71 Q 203.13 270.89 197.96 270.16 Q 197.46 264.72 199.50 261.03 Q 200.53 259.17 202.64 258.64 Q 203.90 258.32 206.28 259.00 Q 209.94 260.05 213.68 260.03 Z"/>
  <path fill="#d08a12" d=" M 184.59 263.16 L 182.01 271.11 Q 174.46 266.83 168.12 261.53 Q 174.82 257.96 181.35 261.13 Q 183.45 262.15 184.59 263.16 Z"/>
  <path fill="#af7113" d=" M 218.31 261.12 Q 220.85 261.79 222.34 263.81 Q 222.65 264.23 222.57 264.73 Q 221.97 268.77 220.36 271.51 C 218.69 274.34 215.17 273.76 212.42 273.54 Q 204.56 272.90 197.01 271.23 Q 197.79 270.89 197.96 270.16 Q 203.13 270.89 214.50 271.71 C 216.59 271.86 217.60 271.75 218.65 269.75 C 219.87 267.42 221.76 264.35 218.30 262.70 Q 217.80 262.46 218.08 261.99 Q 218.41 261.43 218.31 261.12 Z"/>
  <path fill="#d08a12" d=" M 248.20 265.39 Q 247.53 270.42 246.49 275.25 Q 245.32 280.64 245.55 283.85 C 246.03 290.67 248.35 298.14 253.42 303.08 C 258.54 308.07 262.86 311.20 270.00 311.14 L 275.06 314.70 Q 275.53 315.03 274.96 315.11 L 263.73 316.68 Q 242.76 306.83 241.53 283.24 Q 241.27 278.35 242.67 270.87 Q 243.79 272.12 243.31 274.07 A 0.45 0.45 0.0 0 0 243.75 274.62 L 244.21 274.62 Q 244.88 274.62 245.00 273.97 Q 245.83 269.53 248.20 265.39 Z"/>
  <path fill="#66320a" d=" M 270.30 268.64 Q 268.84 268.76 267.21 271.49 Q 264.56 275.96 267.86 279.63 Q 271.35 283.50 279.42 287.24 L 289.81 291.42 Q 288.05 292.02 287.07 291.79 Q 286.53 291.10 285.55 291.08 Q 284.71 291.07 283.87 290.94 Q 280.12 290.33 276.91 289.69 C 272.17 288.73 267.56 285.52 263.44 282.62 Q 262.66 277.51 264.23 272.65 C 264.84 270.77 266.13 269.20 266.74 267.32 Q 266.95 266.67 267.54 267.02 L 270.30 268.64 Z"/>
  <path fill="#d08a12" d=" M 151.34 271.25 C 154.04 275.30 156.39 279.60 159.49 283.24 Q 168.83 294.20 177.47 301.44 Q 184.90 307.67 198.04 314.90 Q 206.36 319.48 216.28 322.43 C 237.76 328.82 260.63 330.44 282.49 324.07 C 286.32 322.95 290.21 322.36 293.90 320.94 C 303.94 317.07 314.78 311.50 323.41 304.55 C 325.70 302.71 328.13 301.21 330.39 299.22 Q 337.79 292.69 342.08 287.39 Q 345.80 282.79 349.51 278.15 Q 350.08 277.44 350.99 277.36 L 358.02 276.71 Q 358.49 276.67 358.65 276.23 Q 358.74 275.98 359.01 275.75 L 360.08 275.79 A 0.65 0.65 0.0 0 1 360.59 276.80 Q 354.29 286.10 346.92 294.46 Q 340.88 301.30 334.06 306.96 Q 327.48 312.40 320.96 316.71 Q 313.34 321.74 300.23 327.19 Q 274.23 338.00 245.98 336.69 Q 241.70 336.49 237.24 335.85 Q 231.19 334.98 224.52 333.70 A 19.57 13.31 14.1 0 1 221.83 333.05 Q 209.24 329.37 198.02 324.29 Q 197.83 324.20 197.73 324.02 Q 197.70 323.98 197.67 323.94 Q 197.63 323.87 197.55 323.83 Q 187.17 319.63 178.08 312.69 Q 171.80 307.89 165.28 302.36 Q 162.25 299.79 159.70 296.80 Q 154.71 290.97 150.07 284.85 Q 145.05 278.23 141.21 270.74 Q 142.11 270.99 142.72 271.57 Q 143.08 271.90 143.56 271.77 Q 144.00 271.65 144.38 271.37 Q 144.80 271.04 145.33 271.10 Q 146.84 271.28 148.25 270.83 Q 148.79 270.66 149.29 270.95 Q 150.12 271.43 151.34 271.25 Z"/>
  <path fill="#feec91" d=" M 172.07 281.16 L 167.70 276.43 L 171.19 271.31 A 0.19 0.18 38.5 0 1 171.47 271.28 L 176.22 275.70 Q 176.43 275.89 176.25 276.10 L 172.07 281.16 Z"/>
  <path fill="#fff9b7" d=" M 203.15 275.38 Q 199.73 276.88 196.18 276.49 A 2.19 2.19 0.0 0 0 193.86 277.99 Q 191.92 284.07 194.75 288.84 Q 194.95 289.16 194.84 289.52 Q 194.80 289.66 194.74 289.82 Q 193.12 289.42 192.04 288.37 A 1.36 1.30 -72.7 0 1 191.65 287.58 Q 190.96 281.56 191.98 275.82 A 1.92 1.92 0.0 0 1 194.11 274.25 L 203.15 275.38 Z"/>
  <path fill="#facf47" d=" M 203.15 275.38 L 215.00 277.12 Q 217.97 279.78 218.02 281.81 Q 218.04 282.93 217.31 284.60 C 216.13 287.31 214.62 287.86 211.53 287.99 Q 205.39 288.25 198.19 288.47 A 0.39 0.38 74.6 0 0 197.87 289.04 L 198.07 289.41 Q 198.22 289.68 198.02 289.90 Q 197.90 290.03 197.71 290.17 L 194.74 289.82 Q 194.80 289.66 194.84 289.52 Q 194.95 289.16 194.75 288.84 Q 191.92 284.07 193.86 277.99 A 2.19 2.19 0.0 0 1 196.18 276.49 Q 199.73 276.88 203.15 275.38 Z"/>
  <path fill="#a35e03" d=" M 253.32 281.25 Q 256.52 291.44 261.60 302.11 Q 253.77 297.45 250.55 289.21 C 249.10 285.49 248.94 281.22 249.45 277.30 Q 249.77 274.84 250.50 277.21 Q 251.09 279.10 253.32 281.25 Z"/>
  <path fill="#af7113" d=" M 215.00 277.12 Q 219.44 276.72 219.41 280.25 Q 219.39 283.62 219.08 286.60 C 218.78 289.47 215.26 289.66 212.91 289.79 Q 205.32 290.24 197.71 290.17 Q 197.90 290.03 198.02 289.90 Q 198.22 289.68 198.07 289.41 L 197.87 289.04 A 0.39 0.38 74.6 0 1 198.19 288.47 Q 205.39 288.25 211.53 287.99 C 214.62 287.86 216.13 287.31 217.31 284.60 Q 218.04 282.93 218.02 281.81 Q 217.97 279.78 215.00 277.12 Z"/>
  <path fill="#fcdd5a" d=" M 327.56 278.90 L 331.30 282.52 L 326.46 287.16 L 322.40 283.78 Q 322.93 281.94 324.17 280.48 Q 324.49 280.10 324.99 280.09 Q 326.59 280.05 327.56 278.90 Z"/>
  <path fill="#af7113" d=" M 263.44 282.62 C 267.56 285.52 272.17 288.73 276.91 289.69 Q 280.12 290.33 283.87 290.94 Q 284.71 291.07 285.55 291.08 Q 286.53 291.10 287.07 291.79 Q 275.74 293.06 266.31 288.92 Q 262.96 287.45 263.44 282.62 Z"/>
  <path fill="#d08a12" d=" M 237.30 283.68 C 238.06 297.18 241.99 308.17 252.14 316.88 A 0.30 0.30 0.0 0 1 252.14 317.34 Q 251.99 317.48 251.67 317.33 L 246.54 317.08 Q 246.94 317.06 247.03 316.89 A 0.69 0.69 0.0 0 0 246.79 315.96 C 242.08 313.07 240.12 309.40 237.32 303.96 C 235.60 300.61 233.92 296.86 233.51 293.14 Q 233.45 292.62 233.96 292.72 Q 234.21 292.77 234.27 292.99 Q 234.78 294.74 235.38 296.58 Q 235.54 297.07 235.92 296.72 L 236.16 296.50 A 0.88 0.88 0.0 0 0 236.42 295.62 Q 235.22 291.40 235.31 287.93 Q 235.34 286.68 236.43 285.96 Q 236.87 285.67 236.98 285.15 L 237.30 283.68 Z"/>
  <path fill="#a35e03" d=" M 322.40 283.78 L 326.46 287.16 Q 319.12 295.75 309.01 301.23 Q 304.63 303.60 300.10 306.07 Q 297.91 307.27 293.40 308.79 Q 292.93 308.95 292.92 308.45 L 292.77 303.17 Q 300.69 301.95 305.79 296.70 Q 312.91 292.72 316.09 290.35 Q 319.12 288.09 322.40 283.78 Z"/>
  <path fill="#a35e03" d=" M 207.04 307.25 Q 210.34 305.85 213.73 304.84 Q 220.74 302.73 218.26 295.83 A 1.69 1.68 -10.5 0 0 216.63 294.72 Q 211.40 294.86 205.50 294.58 Q 204.98 294.55 204.61 294.17 Q 204.27 293.81 203.78 293.87 Q 201.42 294.14 199.22 293.53 Q 208.46 293.30 217.51 292.82 C 219.61 292.71 220.04 294.60 220.39 296.18 Q 221.10 299.28 220.99 302.13 Q 220.97 302.66 220.57 303.00 Q 214.46 308.33 207.04 307.25 Z"/>
  <path fill="#facf47" d=" M 199.22 293.53 Q 201.42 294.14 203.78 293.87 Q 204.27 293.81 204.61 294.17 Q 204.98 294.55 205.50 294.58 Q 211.40 294.86 216.63 294.72 A 1.69 1.68 -10.5 0 1 218.26 295.83 Q 220.74 302.73 213.73 304.84 Q 210.34 305.85 207.04 307.25 Q 202.47 305.02 198.03 302.77 C 194.43 300.94 191.21 300.62 192.10 295.00 Q 192.25 294.03 193.22 293.81 Q 196.35 293.12 199.22 293.53 Z"/>
  <path fill="#d08a12" d=" M 305.79 296.70 Q 300.69 301.95 292.77 303.17 Q 292.41 302.46 292.40 301.74 Q 292.39 301.23 292.87 301.07 L 305.79 296.70 Z"/>
  <path fill="#af7113" d=" M 284.20 309.58 L 273.99 301.64 A 0.33 0.33 0.0 0 1 274.22 301.06 L 284.00 302.04 A 0.33 0.33 0.0 0 1 284.30 302.35 L 284.73 309.30 A 0.33 0.33 0.0 0 1 284.20 309.58 Z"/>
  <path fill="#af7113" d=" M 215.90 309.76 L 222.39 307.20 A 0.61 0.61 0.0 0 1 223.15 307.47 L 226.13 312.95 A 0.61 0.61 0.0 0 1 225.42 313.82 L 215.94 310.91 A 0.61 0.61 0.0 0 1 215.90 309.76 Z"/>
</svg>