<?xml version="1.0" encoding="utf-8"?>
<svg viewBox="21.698 261.274 220.501 216.078" xmlns="http://www.w3.org/2000/svg">
  <path fill="#efdaa3" d=" M 237.96 276.91 Q 237.51 278.19 236.66 279.01 Q 236.30 279.36 235.82 279.25 Q 234.62 278.97 233.36 279.26 Q 229.67 272.42 222.93 269.70 Q 219.35 268.26 214.49 268.28 Q 132.78 268.74 50.42 268.33 Q 44.45 268.30 40.68 269.75 Q 30.77 273.58 28.76 285.26 Q 28.40 287.35 28.54 294.51 Q 27.36 294.23 26.99 294.75 A 0.66 0.66 0.0 0 1 25.84 294.63 Q 25.33 293.42 23.44 293.18 C 23.35 285.88 23.58 279.04 27.82 273.65 Q 32.53 267.65 39.37 264.85 C 45.21 262.46 53.54 263.00 60.00 263.00 Q 117.75 262.98 175.50 263.09 C 187.12 263.11 203.20 262.88 218.00 263.24 C 226.36 263.45 233.99 269.97 237.96 276.91 Z" transform="matrix(1, 0, 0, 1, 0, -2.842170943040401e-14)"/>
  <path fill="#010000" d=" M 233.36 279.26 Q 235.45 283.15 235.46 286.25 Q 235.52 316.14 235.48 346.05 Q 235.47 396.29 235.52 446.54 Q 235.53 454.46 234.13 458.27 Q 231.18 466.29 223.30 469.24 Q 219.37 470.71 210.52 470.70 Q 130.70 470.66 50.88 470.64 Q 45.21 470.63 41.93 469.77 Q 36.57 468.36 33.74 465.02 Q 28.33 458.63 28.36 449.75 Q 28.51 403.88 28.51 358.05 L 28.54 294.51 Q 28.40 287.35 28.76 285.26 Q 30.77 273.58 40.68 269.75 Q 44.45 268.30 50.42 268.33 Q 132.78 268.74 214.49 268.28 Q 219.35 268.26 222.93 269.70 Q 229.67 272.42 233.36 279.26 Z M 36.95 289.02 L 36.95 356.97 L 36.95 431.83 Q 36.87 440.33 36.97 448.93 C 37.03 454.24 38.27 457.89 42.83 460.38 Q 45.49 461.84 51.89 461.86 Q 66.78 461.90 83.76 461.78 C 93.78 461.70 110.54 462.22 124.02 461.54 Q 124.76 461.51 124.13 461.12 C 120.44 458.82 116.25 458.07 112.26 456.74 Q 109.65 455.87 106.95 457.01 Q 100.28 456.11 93.91 456.82 L 93.73 450.86 Q 93.71 450.08 92.94 450.20 Q 92.04 450.35 91.13 450.15 A 0.62 0.61 7.0 0 0 90.38 450.73 L 90.25 455.87 A 0.63 0.62 -89.0 0 1 89.63 456.48 L 87.01 456.47 Q 86.46 456.47 86.47 455.92 L 86.55 447.81 Q 86.76 444.71 86.46 439.25 Q 86.32 436.63 84.74 435.27 Q 84.33 434.91 84.33 435.45 Q 84.35 436.74 84.30 438.00 Q 84.23 439.93 82.69 440.97 Q 80.86 442.20 81.48 443.81 L 81.39 456.93 L 64.09 457.25 L 57.24 456.89 Q 49.43 457.85 44.01 455.70 Q 42.49 452.36 42.44 450.50 Q 42.27 444.02 42.44 424.20 L 42.52 414.23 Q 42.52 413.77 42.98 413.76 L 57.76 413.56 A 0.34 0.34 0.0 0 0 57.99 412.98 C 56.07 411.06 53.90 409.14 50.89 409.19 Q 47.31 409.25 43.17 409.12 A 0.67 0.67 0.0 0 1 42.52 408.45 L 42.45 377.05 A 0.25 0.24 15.8 0 1 42.82 376.85 Q 46.01 378.73 48.79 381.27 Q 52.92 385.04 54.30 386.09 C 60.68 390.94 67.08 395.64 72.99 400.98 C 76.84 404.46 82.24 407.96 85.04 410.10 Q 90.75 414.47 96.28 419.19 A 1.75 1.74 51.4 0 0 98.20 419.41 Q 110.36 413.19 122.48 404.84 Q 111.30 395.63 101.09 387.81 C 98.84 386.09 96.30 385.01 94.27 383.13 Q 92.08 381.11 89.73 379.35 Q 81.06 372.84 72.97 366.27 C 70.11 363.95 66.86 361.77 63.85 359.47 C 62.97 358.79 62.01 358.52 60.99 358.79 Q 55.24 360.31 49.64 363.75 L 42.51 366.73 L 42.46 354.16 L 42.50 326.98 A 0.50 0.50 0.0 0 1 43.02 326.48 C 45.93 326.60 48.45 324.43 50.42 322.55 A 0.30 0.30 0.0 0 0 50.22 322.03 L 42.99 322.01 Q 42.47 322.01 42.48 321.49 L 42.50 318.93 Q 42.51 318.44 43.00 318.45 Q 47.00 318.53 51.21 318.60 Q 53.75 318.64 55.18 317.61 Q 57.19 316.18 59.22 314.94 A 0.39 0.39 0.0 0 0 59.02 314.21 L 43.14 314.10 Q 42.53 314.10 42.53 313.48 L 42.72 285.87 Q 45.08 281.50 49.75 281.50 Q 65.40 281.51 81.31 281.46 L 81.10 305.20 Q 81.09 306.20 81.82 305.53 L 85.43 302.21 Q 86.28 301.43 86.27 300.27 L 86.20 281.96 A 0.49 0.49 0.0 0 1 86.67 281.47 L 90.59 281.34 L 90.45 290.90 Q 90.43 292.11 91.49 291.55 L 92.88 290.84 Q 93.91 290.30 93.94 289.13 L 94.10 281.40 Q 98.20 282.08 101.71 281.50 L 169.67 281.40 L 169.53 290.71 A 2.01 2.01 0.0 0 0 170.44 292.41 L 173.08 294.13 Q 173.75 294.56 173.75 293.77 L 173.71 282.49 Q 173.71 281.43 174.76 281.42 L 176.32 281.40 Q 177.49 281.39 177.49 282.57 L 177.44 306.16 A 1.80 1.79 23.5 0 0 177.93 307.39 L 181.72 311.33 Q 182.20 311.83 182.21 311.13 Q 182.35 296.83 182.13 282.50 Q 182.11 281.58 183.06 281.47 Q 198.88 281.51 214.75 281.56 Q 218.67 281.57 220.21 284.87 Q 220.98 286.45 220.98 287.25 Q 221.03 300.62 220.98 313.81 A 0.33 0.33 0.0 0 1 220.65 314.14 L 190.24 314.09 Q 188.40 314.09 189.80 315.28 Q 191.63 316.82 193.48 318.16 A 3.29 3.23 62.1 0 0 195.46 318.79 L 220.21 318.48 Q 220.94 318.48 221.00 319.21 L 221.14 321.01 A 0.91 0.90 87.7 0 1 220.24 321.99 L 209.75 322.02 Q 208.74 322.03 209.52 322.67 C 211.63 324.37 212.76 326.16 215.96 326.16 Q 218.03 326.16 220.09 325.95 A 0.78 0.78 0.0 0 1 220.95 326.73 L 220.99 347.28 L 220.86 408.67 A 0.53 0.52 -0.6 0 1 220.34 409.19 L 203.79 409.37 L 183.41 409.51 Q 182.06 409.52 183.15 410.33 Q 183.78 410.80 185.03 411.35 Q 187.22 413.77 188.75 413.75 Q 204.50 413.60 220.58 413.73 Q 220.89 413.74 220.89 414.05 L 220.91 452.58 Q 219.05 456.87 216.25 456.82 Q 199.34 456.51 182.14 457.29 L 182.27 445.44 L 182.08 441.10 Q 182.05 440.52 181.64 440.93 Q 179.00 443.53 177.49 446.48 L 177.50 456.00 Q 177.50 456.52 176.98 456.53 L 174.51 456.57 Q 173.93 456.58 173.94 456.01 L 174.01 449.76 Q 174.02 448.78 173.35 449.50 Q 172.34 450.57 170.87 450.28 Q 170.17 450.14 170.01 450.83 Q 169.54 452.88 169.84 454.58 L 169.75 455.90 Q 169.71 456.46 169.15 456.47 L 153.74 456.66 Q 151.36 457.08 153.46 456.99 C 150.37 456.97 146.22 456.41 143.98 458.09 Q 142.21 459.42 140.57 461.02 Q 140.00 461.57 140.80 461.59 L 150.11 461.81 Q 184.12 461.85 217.25 461.71 Q 218.83 461.71 220.80 460.30 Q 226.43 456.95 226.45 451.00 Q 226.58 396.39 226.48 341.78 L 226.56 288.03 Q 225.81 280.51 220.01 278.04 Q 217.29 276.88 209.34 276.88 Q 132.49 276.86 55.63 276.91 Q 47.74 276.92 46.89 277.07 C 41.19 278.11 36.68 282.83 36.95 289.02 Z M 96.86 286.53 L 97.44 289.07 Q 97.55 289.54 98.03 289.55 Q 100.78 289.58 103.56 288.59 Q 105.32 288.48 106.92 287.34 Q 107.31 287.27 107.60 286.95 L 110.06 286.22 Q 110.72 286.02 110.04 285.94 Q 103.32 285.10 96.86 286.53 Z M 155.57 287.43 L 165.25 290.41 Q 165.77 290.57 165.90 290.04 Q 166.20 288.72 165.85 287.57 Q 166.06 286.82 165.96 286.33 Q 165.86 285.81 165.33 285.79 Q 158.23 285.57 151.53 286.05 Q 150.63 286.12 151.51 286.35 L 155.57 287.43 Z M 208.96 286.33 A 0.74 0.74 0.0 0 0 207.70 286.88 L 207.75 288.70 A 0.74 0.74 0.0 0 0 207.81 288.97 L 208.24 289.98 A 0.74 0.74 0.0 0 0 209.45 290.20 L 210.62 289.01 A 0.74 0.74 0.0 0 0 210.61 287.96 L 208.96 286.33 Z M 193.85 288.63 A 0.86 0.86 0.0 0 0 193.82 287.90 L 193.19 286.69 A 0.86 0.86 0.0 0 0 191.88 286.42 L 190.20 287.80 A 0.86 0.86 0.0 0 0 190.09 289.03 L 191.58 290.78 A 0.86 0.86 0.0 0 0 193.03 290.56 L 193.85 288.63 Z M 49.83 291.82 A 0.30 0.30 0.0 0 0 49.60 292.11 L 49.45 301.49 A 0.30 0.30 0.0 0 0 49.86 301.77 L 73.56 292.19 A 0.30 0.30 0.0 0 0 73.74 291.92 L 73.81 287.16 A 0.30 0.30 0.0 0 0 73.44 286.87 L 49.83 291.82 Z M 190.79 298.49 C 192.85 300.94 195.47 302.85 197.20 305.33 Q 199.24 308.26 201.09 311.25 A 0.45 0.45 0.0 0 0 201.87 311.22 Q 205.52 303.89 211.95 298.64 Q 212.36 298.31 212.23 297.80 Q 212.18 297.61 212.03 297.54 L 201.91 287.20 A 0.60 0.60 0.0 0 0 201.01 287.24 Q 196.53 292.74 190.55 297.18 A 0.69 0.68 66.7 0 0 190.29 297.84 Q 190.35 298.22 190.79 298.49 Z M 100.74 348.83 Q 105.19 351.49 113.50 355.55 Q 113.97 355.78 114.41 355.49 Q 120.80 351.14 126.17 346.49 C 128.80 344.20 132.16 342.71 135.02 340.31 Q 140.13 336.04 140.20 335.98 Q 147.54 330.44 155.38 324.68 C 156.26 324.04 157.18 322.99 158.28 322.30 Q 160.25 321.07 160.60 320.80 C 164.27 317.92 168.54 315.07 171.70 311.66 Q 172.74 310.53 171.37 309.86 C 159.68 304.14 147.09 299.42 135.13 293.57 Q 131.44 291.76 127.64 290.17 C 125.95 289.46 124.44 289.90 122.97 290.67 Q 111.44 296.68 102.39 301.01 Q 99.19 302.53 96.05 304.09 Q 87.85 308.15 78.82 312.78 C 71.85 316.36 65.08 320.41 57.50 323.31 A 0.68 0.67 54.8 0 0 57.31 324.45 Q 59.61 326.42 62.44 328.01 Q 75.73 335.50 89.31 342.45 Q 94.63 345.17 100.74 348.83 Z M 49.62 306.74 Q 49.49 307.04 49.66 307.54 Q 49.83 308.04 50.35 308.01 L 63.29 307.27 Q 69.43 307.47 73.34 304.67 L 73.74 297.35 L 73.76 295.58 Q 73.77 294.94 73.18 295.19 Q 59.87 300.96 52.39 303.38 Q 48.89 304.50 49.62 306.74 Z M 167.50 320.49 L 118.42 357.77 A 0.32 0.32 0.0 0 0 118.45 358.30 L 125.56 362.31 L 133.46 366.08 Q 133.92 366.30 134.37 366.04 L 188.72 333.92 Q 189.53 332.98 188.08 331.66 Q 180.34 324.66 172.60 317.54 Q 172.23 317.20 171.81 317.49 L 167.50 320.49 Z M 188.66 327.33 Q 189.65 328.98 191.58 331.19 C 193.00 332.82 193.79 335.26 191.43 336.69 Q 188.86 338.24 186.11 339.72 Q 183.47 341.51 180.66 343.11 Q 176.78 345.31 175.12 346.34 Q 169.42 349.84 163.85 352.88 Q 160.36 354.78 152.71 359.73 Q 146.91 363.49 140.37 366.42 A 0.76 0.75 -42.3 0 0 140.30 367.77 Q 141.77 368.59 142.21 368.59 C 145.15 370.41 148.90 369.73 152.03 369.18 C 155.15 368.63 158.01 366.27 161.14 364.85 Q 163.53 363.76 164.79 363.05 Q 172.16 358.84 179.37 354.37 Q 183.71 351.69 196.09 345.59 Q 196.13 345.57 202.23 342.82 Q 207.70 340.35 212.53 336.71 Q 212.09 334.92 211.56 334.65 Q 203.41 330.51 196.02 326.21 Q 189.82 322.62 182.82 320.95 Q 181.91 320.73 182.58 321.38 L 188.66 327.33 Z M 67.83 335.60 Q 63.41 332.90 59.49 331.68 Q 57.45 331.05 58.84 332.66 Q 60.09 334.10 62.23 334.90 Q 66.35 336.44 70.47 337.85 Q 71.92 338.35 70.66 337.46 Q 69.30 336.50 67.83 335.60 Z M 50.49 339.66 A 1.31 1.31 0.0 0 0 49.18 338.35 A 1.31 1.31 0.0 0 0 47.87 339.66 A 1.31 1.31 0.0 0 0 49.18 340.97 A 1.31 1.31 0.0 0 0 50.49 339.66 Z M 73.20 355.20 Q 77.63 359.44 82.68 362.83 Q 92.23 369.25 92.30 369.30 Q 114.49 385.56 136.82 401.46 Q 137.24 401.76 137.49 401.30 L 137.66 400.98 A 0.31 0.30 33.7 0 0 137.58 400.60 Q 130.33 394.76 123.36 388.64 Q 121.98 387.43 121.05 385.58 L 139.75 397.66 Q 140.18 397.94 140.67 397.81 Q 142.56 397.31 144.26 396.32 Q 149.71 393.18 155.22 389.88 Q 158.65 387.82 166.40 383.90 Q 170.83 381.65 175.55 378.73 C 182.87 374.20 189.74 370.69 196.75 366.72 Q 197.43 366.33 202.38 364.10 Q 205.35 362.76 207.63 360.62 Q 208.58 358.82 207.43 358.06 Q 201.00 353.76 197.08 350.37 A 1.00 0.99 59.1 0 0 196.21 350.15 Q 194.35 350.57 192.99 351.92 Q 193.34 352.71 192.48 353.01 Q 190.34 353.75 189.83 354.07 Q 184.98 357.14 180.12 360.18 Q 176.60 362.38 170.12 365.84 Q 161.85 370.25 154.18 375.63 Q 148.65 379.86 144.52 381.24 C 141.39 382.29 137.08 380.88 134.25 378.83 Q 133.22 378.08 132.10 378.10 C 129.11 378.16 126.88 378.33 124.05 376.73 C 118.45 373.58 113.78 368.97 108.22 365.55 Q 100.32 360.69 89.52 352.53 Q 81.74 346.65 70.90 343.49 L 61.72 340.39 Q 61.11 340.19 61.06 340.83 C 60.91 342.70 60.29 346.19 62.14 347.39 Q 68.77 351.65 73.20 355.20 Z M 109.01 357.78 L 90.89 347.11 A 0.11 0.11 0.0 0 0 90.73 347.14 L 90.72 347.16 A 8.49 1.09 30.5 0 0 97.49 352.41 L 101.17 354.58 A 8.49 1.09 30.5 0 0 109.04 357.95 L 109.05 357.93 A 0.11 0.11 0.0 0 0 109.01 357.78 Z M 217.88 355.48 A 1.24 1.24 0.0 0 0 216.64 354.24 A 1.24 1.24 0.0 0 0 215.40 355.48 A 1.24 1.24 0.0 0 0 216.64 356.72 A 1.24 1.24 0.0 0 0 217.88 355.48 Z M 49.15 355.73 A 1.23 1.23 0.0 0 0 47.92 354.50 A 1.23 1.23 0.0 0 0 46.69 355.73 A 1.23 1.23 0.0 0 0 47.92 356.96 A 1.23 1.23 0.0 0 0 49.15 355.73 Z M 114.75 361.77 A 0.35 0.35 0.0 0 0 114.63 361.73 L 110.67 361.18 A 0.35 0.35 0.0 0 0 110.41 361.80 L 127.66 374.34 A 0.35 0.35 0.0 0 0 128.04 374.36 L 132.47 371.90 A 0.35 0.35 0.0 0 0 132.47 371.29 L 114.75 361.77 Z M 196.91 370.70 L 145.38 400.18 Q 144.20 400.86 145.37 401.56 Q 148.30 403.34 151.36 404.35 Q 153.44 405.04 155.37 404.00 Q 171.77 395.10 188.77 386.51 C 191.00 385.38 193.37 384.50 195.70 383.18 Q 202.11 379.53 208.66 376.16 Q 210.15 375.39 211.00 374.23 Q 211.76 373.72 211.77 373.60 A 1.68 1.55 20.3 0 0 210.96 372.01 Q 207.00 369.63 203.36 367.39 A 0.80 0.79 -44.1 0 0 202.53 367.38 L 196.91 370.70 Z M 139.01 374.03 Q 137.41 373.48 136.08 374.04 A 0.46 0.45 54.3 0 0 135.96 374.80 Q 138.42 377.04 141.59 377.69 Q 142.99 377.97 144.23 377.26 L 149.34 374.31 Q 150.77 373.49 149.14 373.69 Q 140.99 374.73 139.01 374.03 Z M 207.68 381.62 Q 187.12 391.48 171.44 400.10 Q 164.76 403.78 155.17 407.96 C 153.37 408.74 149.89 407.38 148.00 406.79 Q 147.81 406.73 147.81 406.92 L 147.80 407.32 Q 147.80 407.47 147.93 407.54 L 153.62 410.46 A 2.21 2.21 0.0 0 0 155.66 410.46 L 207.97 383.27 A 0.91 0.91 0.0 0 0 208.41 382.16 L 208.32 381.89 A 0.47 0.47 0.0 0 0 207.68 381.62 Z M 102.46 421.46 Q 100.10 422.79 97.55 424.37 A 1.46 1.44 48.7 0 1 95.86 424.25 C 94.25 422.90 92.87 421.22 91.34 419.98 Q 84.08 414.07 76.83 408.63 C 72.64 405.49 67.75 401.07 62.84 397.65 Q 59.56 395.37 49.89 387.03 Q 49.36 386.57 49.29 387.27 C 48.94 390.54 51.57 392.65 53.81 394.42 Q 62.43 401.22 71.39 408.11 Q 73.30 409.58 75.18 411.06 Q 84.83 418.67 94.65 426.66 Q 95.69 427.51 96.50 427.49 Q 97.42 427.46 98.26 427.00 Q 113.83 418.47 121.62 412.66 A 0.74 0.72 67.5 0 0 121.90 411.96 Q 121.79 411.28 121.34 411.24 Q 120.19 411.15 119.25 411.72 Q 110.91 416.72 102.46 421.46 Z M 196.91 396.44 Q 200.65 394.41 204.25 392.50 Q 206.43 391.35 207.96 389.86 Q 209.16 388.69 207.50 388.87 Q 207.34 388.89 206.51 389.27 Q 202.07 391.29 197.85 393.71 C 191.97 397.08 186.20 399.53 180.47 402.73 Q 176.22 405.11 171.66 407.12 Q 164.94 410.07 158.00 414.02 C 155.75 415.30 154.74 416.35 151.94 414.95 Q 149.28 413.62 146.37 412.81 Q 145.54 412.58 146.14 413.21 C 148.23 415.40 153.54 419.00 156.68 417.31 Q 168.42 410.98 181.34 404.56 Q 189.36 400.56 196.91 396.44 Z M 95.29 432.35 Q 92.76 429.81 89.35 427.43 C 79.73 420.72 71.40 412.51 61.91 405.63 Q 55.65 401.08 49.95 396.11 A 0.41 0.41 0.0 0 0 49.28 396.34 C 49.00 397.94 49.23 399.40 50.41 400.61 C 53.94 404.22 58.91 407.18 61.90 409.62 Q 69.76 416.04 78.20 422.96 C 83.25 427.10 88.54 430.39 93.69 434.74 Q 95.60 436.35 98.09 434.85 Q 101.27 432.94 104.36 431.00 Q 106.66 429.56 110.81 427.42 Q 116.20 424.64 121.09 420.59 Q 122.27 419.61 121.34 419.07 A 0.69 0.67 -44.2 0 0 120.67 419.07 L 96.85 432.56 A 1.30 1.30 0.0 0 1 95.29 432.35 Z M 170.68 415.08 Q 168.16 415.59 165.72 417.44 Q 165.31 417.75 165.77 417.98 Q 172.49 421.39 179.90 422.37 Q 181.81 422.51 182.49 423.33 L 174.29 432.73 Q 173.93 433.14 173.41 432.96 Q 172.95 432.79 172.70 432.16 L 171.63 428.11 A 0.54 0.54 0.0 0 0 170.68 427.91 L 163.94 436.34 Q 163.58 436.79 164.10 437.04 L 174.33 441.92 A 1.46 1.44 -56.3 0 0 176.04 441.57 L 192.47 422.99 L 174.31 413.90 Q 173.89 413.69 173.46 413.87 L 170.68 415.08 Z M 51.62 429.39 Q 56.16 431.46 57.79 433.21 C 60.12 435.70 60.78 440.54 61.64 443.62 Q 62.40 446.35 63.12 443.61 C 64.08 439.96 65.26 436.42 67.81 433.65 Q 69.88 431.39 72.40 429.54 A 0.90 0.90 0.0 0 0 72.53 428.21 L 62.94 417.65 Q 63.01 417.55 62.77 417.31 Q 62.48 417.03 62.18 417.30 Q 59.49 419.64 56.96 422.32 Q 54.15 425.30 49.94 428.37 Q 49.53 428.66 49.97 428.91 Q 50.56 429.26 51.62 429.39 Z M 169.08 422.57 L 163.07 419.81 Q 160.72 419.99 158.34 421.01 Q 156.76 421.69 155.39 421.83 Q 153.61 422.00 152.30 421.40 Q 147.25 419.11 142.22 417.16 Q 141.77 416.98 141.39 417.28 Q 136.27 421.28 131.20 426.36 Q 129.93 427.63 128.32 428.40 A 0.42 0.42 0.0 0 0 128.30 429.15 Q 141.44 436.06 155.04 442.11 A 0.49 0.49 0.0 0 0 155.65 441.93 C 159.27 436.46 163.22 431.20 167.95 426.65 Q 170.64 424.06 169.08 422.57 Z M 55.17 419.24 A 0.88 0.88 0.0 0 0 54.29 418.36 A 0.88 0.88 0.0 0 0 53.41 419.24 A 0.88 0.88 0.0 0 0 54.29 420.12 A 0.88 0.88 0.0 0 0 55.17 419.24 Z M 192.98 446.73 L 201.65 438.75 Q 202.98 437.83 203.82 437.68 L 213.84 447.05 Q 214.99 448.13 214.94 446.55 L 214.66 437.45 L 209.06 429.48 L 204.32 422.77 Q 204.03 421.78 203.88 421.53 Q 203.20 420.41 202.47 421.51 Q 196.91 429.85 191.73 436.86 A 3.84 3.84 0.0 0 0 191.00 439.05 L 190.90 447.72 Q 190.89 448.25 191.37 448.03 Q 192.30 447.59 192.98 446.73 Z M 45.86 425.73 A 0.36 0.36 0.0 0 0 46.47 426.02 L 49.60 423.08 A 0.36 0.36 0.0 0 0 49.36 422.46 L 46.39 422.42 A 0.36 0.36 0.0 0 0 46.02 422.76 L 45.86 425.73 Z M 214.29 425.13 L 216.45 427.09 A 0.72 0.72 0.0 0 0 217.47 427.04 L 217.57 426.93 A 2.77 2.06 -47.8 0 0 217.90 423.49 L 217.72 423.33 A 2.77 2.06 -47.8 0 0 214.34 424.00 L 214.24 424.11 A 0.72 0.72 0.0 0 0 214.29 425.13 Z M 54.96 445.60 L 58.18 445.16 Q 58.65 445.10 58.57 444.63 Q 57.11 436.71 50.92 431.39 L 49.27 430.05 Q 47.63 428.71 48.15 430.76 Q 49.31 435.33 51.39 440.24 C 52.15 442.04 52.29 443.70 52.55 445.62 Q 53.24 450.76 58.76 451.73 Q 59.50 451.86 59.53 451.10 L 59.63 448.78 Q 59.66 447.98 58.87 448.08 Q 58.05 448.17 56.53 447.91 Q 54.07 447.49 54.96 445.60 Z M 69.30 446.01 Q 69.42 446.91 68.88 447.47 Q 68.45 447.92 67.34 447.98 Q 65.26 448.09 63.62 448.19 Q 62.82 448.24 62.92 449.04 L 63.14 450.82 Q 63.25 451.71 64.15 451.75 C 68.08 451.89 70.59 449.58 71.31 445.63 Q 72.40 439.61 74.26 433.46 Q 75.61 429.01 72.46 432.43 Q 68.30 436.93 65.68 444.66 Q 65.42 445.45 66.24 445.31 Q 67.50 445.09 68.67 445.33 Q 69.23 445.45 69.30 446.01 Z M 111.23 445.25 Q 109.74 445.96 109.16 447.30 Q 108.92 447.86 109.45 448.15 L 133.36 461.34 A 1.49 1.49 0.0 0 0 135.09 461.13 L 152.56 444.85 L 126.71 432.27 A 1.22 1.21 36.7 0 0 125.35 432.46 L 111.23 445.25 Z M 195.63 447.50 A 0.35 0.35 0.0 0 0 195.88 448.10 L 210.00 448.10 A 0.35 0.35 0.0 0 0 210.25 447.50 L 203.18 440.65 A 0.35 0.35 0.0 0 0 202.70 440.65 L 195.63 447.50 Z M 103.70 451.75 L 97.72 449.08 A 0.52 0.51 12.5 0 0 97.00 449.53 L 96.96 451.21 Q 96.94 451.98 97.71 452.02 L 103.55 452.35 Q 105.26 452.44 103.70 451.75 Z M 165.29 449.33 L 161.65 451.96 Q 161.22 452.27 161.74 452.24 L 165.10 452.06 Q 166.21 452.00 166.19 450.90 L 166.18 449.78 Q 166.17 448.69 165.29 449.33 Z" transform="matrix(1, 0, 0, 1, 0, -2.842170943040401e-14)"/>
  <path fill="#fdf9ea" d=" M 226.56 288.03 Q 224.40 288.03 223.05 285.85 Q 222.80 285.44 222.37 285.23 Q 221.52 284.84 221.02 283.99 Q 220.62 283.31 220.42 284.07 L 220.21 284.87 Q 218.67 281.57 214.75 281.56 Q 198.88 281.51 183.06 281.47 L 169.67 281.40 L 101.71 281.50 L 94.10 281.40 L 93.94 289.13 Q 93.91 290.30 92.88 290.84 L 91.49 291.55 Q 90.43 292.11 90.45 290.90 L 90.59 281.34 L 81.31 281.46 Q 65.40 281.51 49.75 281.50 Q 45.08 281.50 42.72 285.87 L 39.28 286.40 Q 38.79 286.48 38.61 286.95 Q 38.11 288.27 36.95 289.02 C 36.68 282.83 41.19 278.11 46.89 277.07 Q 47.74 276.92 55.63 276.91 Q 132.49 276.86 209.34 276.88 Q 217.29 276.88 220.01 278.04 Q 225.81 280.51 226.56 288.03 Z" transform="matrix(1, 0, 0, 1, 0, -2.842170943040401e-14)"/>
  <path fill="#e0b759" d=" M 237.96 276.91 C 240.52 282.73 240.36 288.52 240.41 295.25 Q 240.56 319.48 240.44 343.71 L 239.87 345.71 A 0.93 0.92 -67.5 0 1 238.53 346.27 Q 236.42 345.10 235.48 346.05 Q 235.52 316.14 235.46 286.25 Q 235.45 283.15 233.36 279.26 Q 234.62 278.97 235.82 279.25 Q 236.30 279.36 236.66 279.01 Q 237.51 278.19 237.96 276.91 Z" transform="matrix(1, 0, 0, 1, 0, -2.842170943040401e-14)"/>
  <path fill="#efdaa3" d=" M 90.59 281.34 L 86.67 281.47 A 0.49 0.49 0.0 0 0 86.20 281.96 L 86.27 300.27 Q 86.28 301.43 85.43 302.21 L 81.82 305.53 Q 81.09 306.20 81.10 305.20 L 81.31 281.46 L 90.59 281.34 Z" transform="matrix(1, 0, 0, 1, 0, -2.842170943040401e-14)"/>
  <path fill="#a06610" d=" M 101.71 281.50 Q 98.20 282.08 94.10 281.40 L 101.71 281.50 Z" transform="matrix(1, 0, 0, 1, 0, -2.842170943040401e-14)"/>
  <path fill="#efdaa3" d=" M 183.06 281.47 Q 182.11 281.58 182.13 282.50 Q 182.35 296.83 182.21 311.13 Q 182.20 311.83 181.72 311.33 L 177.93 307.39 A 1.80 1.79 23.5 0 1 177.44 306.16 L 177.49 282.57 Q 177.49 281.39 176.32 281.40 L 174.76 281.42 Q 173.71 281.43 173.71 282.49 L 173.75 293.77 Q 173.75 294.56 173.08 294.13 L 170.44 292.41 A 2.01 2.01 0.0 0 1 169.53 290.71 L 169.67 281.40 L 183.06 281.47 Z" transform="matrix(1, 0, 0, 1, 0, -2.842170943040401e-14)"/>
  <path fill="#e5c375" d=" M 226.56 288.03 L 226.48 341.78 L 226.19 344.28 Q 226.13 344.80 225.61 344.82 Q 223.61 344.88 222.18 346.18 Q 221.90 346.44 221.89 346.83 Q 221.88 347.05 221.83 347.26 Q 221.74 347.61 221.52 347.60 Q 221.30 347.59 220.99 347.28 L 220.95 326.73 A 0.78 0.78 0.0 0 0 220.09 325.95 Q 218.03 326.16 215.96 326.16 C 212.76 326.16 211.63 324.37 209.52 322.67 Q 208.74 322.03 209.75 322.02 L 220.24 321.99 A 0.91 0.90 87.7 0 0 221.14 321.01 L 221.00 319.21 Q 220.94 318.48 220.21 318.48 L 195.46 318.79 A 3.29 3.23 62.1 0 1 193.48 318.16 Q 191.63 316.82 189.80 315.28 Q 188.40 314.09 190.24 314.09 L 220.65 314.14 A 0.33 0.33 0.0 0 0 220.98 313.81 Q 221.03 300.62 220.98 287.25 Q 220.98 286.45 220.21 284.87 L 220.42 284.07 Q 220.62 283.31 221.02 283.99 Q 221.52 284.84 222.37 285.23 Q 222.80 285.44 223.05 285.85 Q 224.40 288.03 226.56 288.03 Z" transform="matrix(1, 0, 0, 1, 0, -2.842170943040401e-14)"/>
  <path fill="#e5c375" d=" M 42.72 285.87 L 42.53 313.48 Q 42.53 314.10 43.14 314.10 L 59.02 314.21 A 0.39 0.39 0.0 0 1 59.22 314.94 Q 57.19 316.18 55.18 317.61 Q 53.75 318.64 51.21 318.60 Q 47.00 318.53 43.00 318.45 Q 42.51 318.44 42.50 318.93 L 42.48 321.49 Q 42.47 322.01 42.99 322.01 L 50.22 322.03 A 0.30 0.30 0.0 0 1 50.42 322.55 C 48.45 324.43 45.93 326.60 43.02 326.48 A 0.50 0.50 0.0 0 0 42.50 326.98 L 42.46 354.16 Q 41.84 354.77 41.69 355.89 Q 41.61 356.52 40.98 356.47 Q 40.26 356.42 39.62 356.05 A 1.42 1.36 18.5 0 0 37.50 357.05 Q 37.48 357.19 37.46 357.33 Q 37.41 357.55 37.37 357.33 Q 37.29 356.93 36.95 356.97 L 36.95 289.02 Q 38.11 288.27 38.61 286.95 Q 38.79 286.48 39.28 286.40 L 42.72 285.87 Z" transform="matrix(1, 0, 0, 1, 0, -2.842170943040401e-14)"/>
  <path fill="#efdaa3" d=" M 107.60 286.95 Q 102.20 287.71 96.86 286.53 Q 103.32 285.10 110.04 285.94 Q 110.72 286.02 110.06 286.22 L 107.60 286.95 Z" transform="matrix(1, 0, 0, 1, 0, -2.842170943040401e-14)"/>
  <path fill="#efdaa3" d=" M 165.85 287.57 Q 160.94 286.68 155.57 287.43 L 151.51 286.35 Q 150.63 286.12 151.53 286.05 Q 158.23 285.57 165.33 285.79 Q 165.86 285.81 165.96 286.33 Q 166.06 286.82 165.85 287.57 Z" transform="matrix(1, 0, 0, 1, 0, -2.842170943040401e-14)"/>
  <path fill="#efdaa3" d=" M 208.96 286.33 L 210.61 287.96 A 0.74 0.74 0.0 0 1 210.62 289.01 L 209.45 290.20 A 0.74 0.74 0.0 0 1 208.24 289.98 L 207.81 288.97 A 0.74 0.74 0.0 0 1 207.75 288.70 L 207.70 286.88 A 0.74 0.74 0.0 0 1 208.96 286.33 Z" transform="matrix(1, 0, 0, 1, 0, -2.842170943040401e-14)"/>
  <path fill="#e5c375" d=" M 193.85 288.63 L 193.03 290.56 A 0.86 0.86 0.0 0 1 191.58 290.78 L 190.09 289.03 A 0.86 0.86 0.0 0 1 190.20 287.80 L 191.88 286.42 A 0.86 0.86 0.0 0 1 193.19 286.69 L 193.82 287.90 A 0.86 0.86 0.0 0 1 193.85 288.63 Z" transform="matrix(1, 0, 0, 1, 0, -2.842170943040401e-14)"/>
  <path fill="#efdaa3" d=" M 49.83 291.82 L 73.44 286.87 A 0.30 0.30 0.0 0 1 73.81 287.16 L 73.74 291.92 A 0.30 0.30 0.0 0 1 73.56 292.19 L 49.86 301.77 A 0.30 0.30 0.0 0 1 49.45 301.49 L 49.60 292.11 A 0.30 0.30 0.0 0 1 49.83 291.82 Z" transform="matrix(1, 0, 0, 1, 0, -2.842170943040401e-14)"/>
  <path fill="#c89b3f" d=" M 96.86 286.53 Q 102.20 287.71 107.60 286.95 Q 107.31 287.27 106.92 287.34 Q 103.29 286.82 103.56 288.59 Q 100.78 289.58 98.03 289.55 Q 97.55 289.54 97.44 289.07 L 96.86 286.53 Z" transform="matrix(1, 0, 0, 1, 0, -2.842170943040401e-14)"/>
  <path fill="#c89b3f" d=" M 165.85 287.57 Q 166.20 288.72 165.90 290.04 Q 165.77 290.57 165.25 290.41 L 155.57 287.43 Q 160.94 286.68 165.85 287.57 Z" transform="matrix(1, 0, 0, 1, 0, -2.842170943040401e-14)"/>
  <path fill="#fcf4d3" d=" M 212.03 297.54 Q 212.04 297.94 211.75 297.93 C 208.68 297.79 205.06 300.53 202.55 301.96 A 2.13 2.12 46.9 0 1 200.33 301.88 Q 196.67 299.46 192.43 297.84 A 1.12 1.10 41.5 0 0 191.50 297.89 Q 191.07 298.12 190.79 298.49 Q 190.35 298.22 190.29 297.84 A 0.69 0.68 66.7 0 1 190.55 297.18 Q 196.53 292.74 201.01 287.24 A 0.60 0.60 0.0 0 1 201.91 287.20 L 212.03 297.54 Z" transform="matrix(1, 0, 0, 1, 0, -2.842170943040401e-14)"/>
  <path fill="#a06610" d=" M 106.92 287.34 Q 105.32 288.48 103.56 288.59 Q 103.29 286.82 106.92 287.34 Z" transform="matrix(1, 0, 0, 1, 0, -2.842170943040401e-14)"/>
  <path fill="#fcf4d3" d=" M 100.74 348.83 Q 94.63 345.17 89.31 342.45 Q 75.73 335.50 62.44 328.01 Q 59.61 326.42 57.31 324.45 A 0.68 0.67 54.8 0 1 57.50 323.31 C 65.08 320.41 71.85 316.36 78.82 312.78 Q 87.85 308.15 96.05 304.09 Q 99.19 302.53 102.39 301.01 Q 111.44 296.68 122.97 290.67 C 124.44 289.90 125.95 289.46 127.64 290.17 Q 131.44 291.76 135.13 293.57 C 147.09 299.42 159.68 304.14 171.37 309.86 Q 172.74 310.53 171.70 311.66 C 168.54 315.07 164.27 317.92 160.60 320.80 Q 160.25 321.07 158.28 322.30 C 157.18 322.99 156.26 324.04 155.38 324.68 Q 147.54 330.44 140.20 335.98 Q 140.13 336.04 135.02 340.31 C 132.16 342.71 128.80 344.20 126.17 346.49 Q 120.80 351.14 114.41 355.49 Q 113.97 355.78 113.50 355.55 Q 105.19 351.49 100.74 348.83 Z M 116.50 299.00 Q 113.96 300.74 108.34 302.84 Q 104.50 304.28 96.98 308.55 C 89.02 313.07 81.25 316.74 73.22 321.02 C 69.41 323.04 70.69 325.86 73.65 327.42 Q 84.87 333.32 96.55 340.16 C 101.72 343.20 107.39 345.51 112.83 348.52 A 1.81 1.80 41.4 0 0 114.77 348.40 L 130.22 336.93 Q 134.12 334.59 137.84 330.56 Q 145.14 325.50 152.92 319.50 C 155.60 317.42 158.06 315.05 160.71 312.81 A 1.12 1.11 39.7 0 0 160.54 310.99 Q 149.13 304.42 136.17 300.27 Q 131.67 296.98 126.25 295.92 C 122.65 295.22 119.63 297.11 116.50 299.00 Z" transform="matrix(1, 0, 0, 1, 0, -2.842170943040401e-14)"/>
  <path fill="#d8af62" d=" M 23.44 293.18 Q 25.33 293.42 25.84 294.63 A 0.66 0.66 0.0 0 0 26.99 294.75 Q 27.36 294.23 28.54 294.51 L 28.51 358.05 Q 28.06 358.67 27.74 357.38 Q 27.63 356.93 27.26 357.22 Q 26.17 358.07 24.74 357.85 Q 24.25 357.78 24.03 357.33 L 23.33 355.95 L 23.44 293.18 Z" transform="matrix(1, 0, 0, 1, 0, -2.842170943040401e-14)"/>
  <path fill="#efdaa3" d=" M 73.74 297.35 Q 72.09 298.18 69.96 298.63 Q 67.42 299.17 66.12 299.66 Q 61.46 301.41 56.81 303.18 Q 55.26 303.77 53.23 304.94 Q 51.42 305.98 49.62 306.74 Q 48.89 304.50 52.39 303.38 Q 59.87 300.96 73.18 295.19 Q 73.77 294.94 73.76 295.58 L 73.74 297.35 Z" transform="matrix(1, 0, 0, 1, 0, -2.842170943040401e-14)"/>
  <path fill="#efdaa3" d=" M 136.17 300.27 Q 135.04 300.00 131.75 298.73 Q 128.56 297.49 126.19 298.96 Q 124.92 300.60 124.39 302.88 Q 121.19 316.46 117.85 329.88 Q 117.70 330.52 117.13 330.17 L 104.13 322.33 A 0.37 0.37 0.0 0 1 104.04 321.76 Q 112.54 312.21 120.02 301.95 Q 120.34 301.51 119.86 301.24 Q 119.29 300.92 119.28 301.33 Q 118.85 300.71 118.85 300.02 Q 118.85 299.50 118.34 299.39 L 116.50 299.00 C 119.63 297.11 122.65 295.22 126.25 295.92 Q 131.67 296.98 136.17 300.27 Z" transform="matrix(1, 0, 0, 1, 0, -2.842170943040401e-14)"/>
  <path fill="#e0b759" d=" M 73.74 297.35 L 73.34 304.67 Q 68.15 305.25 63.29 307.27 L 50.35 308.01 Q 49.83 308.04 49.66 307.54 Q 49.49 307.04 49.62 306.74 Q 51.42 305.98 53.23 304.94 Q 55.26 303.77 56.81 303.18 Q 61.46 301.41 66.12 299.66 Q 67.42 299.17 69.96 298.63 Q 72.09 298.18 73.74 297.35 Z" transform="matrix(1, 0, 0, 1, 0, -2.842170943040401e-14)"/>
  <path fill="#ba852a" d=" M 212.03 297.54 Q 212.18 297.61 212.23 297.80 Q 212.36 298.31 211.95 298.64 Q 205.52 303.89 201.87 311.22 A 0.45 0.45 0.0 0 1 201.09 311.25 Q 199.24 308.26 197.20 305.33 C 195.47 302.85 192.85 300.94 190.79 298.49 Q 191.07 298.12 191.50 297.89 A 1.12 1.10 41.5 0 1 192.43 297.84 Q 196.67 299.46 200.33 301.88 A 2.13 2.12 46.9 0 0 202.55 301.96 C 205.06 300.53 208.68 297.79 211.75 297.93 Q 212.04 297.94 212.03 297.54 Z" transform="matrix(1, 0, 0, 1, 0, -2.842170943040401e-14)"/>
  <path fill="#d5a543" d=" M 136.17 300.27 Q 149.13 304.42 160.54 310.99 A 1.12 1.11 39.7 0 1 160.71 312.81 C 158.06 315.05 155.60 317.42 152.92 319.50 Q 145.14 325.50 137.84 330.56 Q 128.01 333.19 120.13 339.11 A 1.13 1.13 0.0 0 1 118.35 338.46 Q 118.29 338.19 117.29 338.37 Q 121.18 337.81 119.53 335.33 L 139.56 325.37 A 0.75 0.74 62.6 0 0 139.88 324.34 L 126.19 298.96 Q 128.56 297.49 131.75 298.73 Q 135.04 300.00 136.17 300.27 Z" transform="matrix(1, 0, 0, 1, 0, -2.842170943040401e-14)"/>
  <path fill="#c89b3f" d=" M 116.50 299.00 L 118.34 299.39 Q 118.85 299.50 118.85 300.02 Q 118.85 300.71 119.28 301.33 Q 115.20 302.98 113.50 306.52 Q 111.53 306.87 109.82 307.29 Q 107.99 307.73 106.29 308.51 Q 100.28 311.26 94.05 313.85 Q 93.09 314.25 92.43 314.94 Q 91.18 316.25 92.74 317.16 L 100.19 321.53 Q 99.51 323.25 102.60 324.92 Q 111.47 329.72 119.53 335.33 Q 121.18 337.81 117.29 338.37 L 97.19 327.44 A 1.08 1.05 -29.2 0 0 96.74 327.32 Q 95.14 327.26 95.13 328.39 A 0.76 0.73 -75.8 0 0 95.50 329.04 Q 104.24 333.98 113.24 338.89 C 115.83 340.31 118.13 342.62 121.26 340.52 Q 124.84 338.10 128.87 336.19 Q 129.17 336.05 129.47 336.22 Q 129.83 336.42 130.22 336.93 L 114.77 348.40 A 1.81 1.80 41.4 0 1 112.83 348.52 C 107.39 345.51 101.72 343.20 96.55 340.16 Q 84.87 333.32 73.65 327.42 C 70.69 325.86 69.41 323.04 73.22 321.02 C 81.25 316.74 89.02 313.07 96.98 308.55 Q 104.50 304.28 108.34 302.84 Q 113.96 300.74 116.50 299.00 Z M 91.35 320.19 L 91.23 316.17 A 0.25 0.25 0.0 0 0 90.97 315.93 L 90.83 315.93 A 1.79 1.67 88.2 0 0 89.22 317.77 L 89.25 318.71 A 1.79 1.67 88.2 0 0 90.97 320.45 L 91.11 320.44 A 0.25 0.25 0.0 0 0 91.35 320.19 Z" transform="matrix(1, 0, 0, 1, 0, -2.842170943040401e-14)"/>
  <path fill="#010000" d=" M 126.19 298.96 L 139.88 324.34 A 0.75 0.74 62.6 0 1 139.56 325.37 L 119.53 335.33 Q 111.47 329.72 102.60 324.92 Q 99.51 323.25 100.19 321.53 L 113.50 306.52 Q 115.20 302.98 119.28 301.33 Q 119.29 300.92 119.86 301.24 Q 120.34 301.51 120.02 301.95 Q 112.54 312.21 104.04 321.76 A 0.37 0.37 0.0 0 0 104.13 322.33 L 117.13 330.17 Q 117.70 330.52 117.85 329.88 Q 121.19 316.46 124.39 302.88 Q 124.92 300.60 126.19 298.96 Z M 127.09 306.69 A 0.31 0.31 0.0 0 0 126.51 306.76 L 120.79 331.09 A 0.31 0.31 0.0 0 0 121.23 331.44 L 135.90 324.16 A 0.31 0.31 0.0 0 0 136.03 323.74 L 127.09 306.69 Z" transform="matrix(1, 0, 0, 1, 0, -2.842170943040401e-14)"/>
  <path fill="#7c4710" d=" M 73.34 304.67 Q 69.43 307.47 63.29 307.27 Q 68.15 305.25 73.34 304.67 Z" transform="matrix(1, 0, 0, 1, 0, -2.842170943040401e-14)"/>
  <path fill="#fcf4d3" d=" M 113.50 306.52 L 100.19 321.53 L 92.74 317.16 Q 91.18 316.25 92.43 314.94 Q 93.09 314.25 94.05 313.85 Q 100.28 311.26 106.29 308.51 Q 107.99 307.73 109.82 307.29 Q 111.53 306.87 113.50 306.52 Z" transform="matrix(1, 0, 0, 1, 0, -2.842170943040401e-14)"/>
  <path fill="#ba852a" d=" M 127.09 306.69 L 136.03 323.74 A 0.31 0.31 0.0 0 1 135.90 324.16 L 121.23 331.44 A 0.31 0.31 0.0 0 1 120.79 331.09 L 126.51 306.76 A 0.31 0.31 0.0 0 1 127.09 306.69 Z" transform="matrix(1, 0, 0, 1, 0, -2.842170943040401e-14)"/>
  <path fill="#af7b28" d=" M 91.35 320.19 A 0.25 0.25 0.0 0 1 91.11 320.44 L 90.97 320.45 A 1.79 1.67 88.2 0 1 89.25 318.71 L 89.22 317.77 A 1.79 1.67 88.2 0 1 90.83 315.93 L 90.97 315.93 A 0.25 0.25 0.0 0 1 91.23 316.17 L 91.35 320.19 Z" transform="matrix(1, 0, 0, 1, 0, -2.842170943040401e-14)"/>
  <path fill="#fcf4d3" d=" M 188.72 333.92 Q 181.90 335.16 180.49 336.50 Q 175.99 340.78 172.06 342.54 Q 164.58 345.90 157.42 349.76 C 156.35 350.33 155.52 351.32 154.63 351.88 Q 146.52 356.90 138.02 361.23 Q 136.33 362.09 134.98 363.01 A 1.26 1.24 42.7 0 1 133.66 363.05 Q 130.37 361.15 126.98 359.28 Q 126.13 358.82 123.61 358.39 L 126.27 356.02 C 128.35 357.22 131.06 358.75 133.44 358.20 Q 136.79 357.43 139.33 355.41 C 140.94 354.12 142.89 353.49 144.60 352.34 C 148.80 349.54 152.76 347.61 156.84 345.13 Q 158.77 343.95 160.97 342.91 Q 168.31 339.42 177.22 333.95 Q 178.53 333.14 179.31 332.01 Q 179.60 331.59 179.34 331.15 Q 177.95 328.77 176.71 327.80 Q 172.52 324.53 169.43 322.09 L 167.50 320.49 L 171.81 317.49 Q 172.23 317.20 172.60 317.54 Q 180.34 324.66 188.08 331.66 Q 189.53 332.98 188.72 333.92 Z" transform="matrix(1, 0, 0, 1, 0, -2.842170943040401e-14)"/>
  <path fill="#af7b28" d=" M 167.50 320.49 L 169.43 322.09 Q 163.86 327.21 157.61 330.83 A 0.78 0.78 0.0 0 0 157.45 332.06 Q 159.28 333.92 160.60 336.26 A 2.27 2.26 -39.0 0 1 160.32 338.87 Q 158.08 341.40 156.79 340.65 Q 156.84 339.14 156.69 338.46 A 0.96 0.95 -22.1 0 0 155.24 337.85 Q 150.93 340.58 146.48 342.96 Q 143.59 344.50 141.19 346.34 Q 138.72 348.23 136.15 350.10 Q 136.00 350.22 135.97 350.37 Q 135.93 350.51 135.96 350.63 Q 136.08 351.07 136.50 350.88 L 141.73 348.47 Q 140.32 351.82 135.74 352.14 Q 135.17 352.18 134.92 351.66 Q 134.53 350.85 133.80 350.34 Q 133.30 349.99 132.77 350.31 Q 128.94 352.58 126.27 356.02 L 123.61 358.39 Q 123.40 358.13 123.43 359.07 Q 123.46 360.06 124.32 360.31 Q 124.79 360.44 124.97 360.89 L 125.56 362.31 L 118.45 358.30 A 0.32 0.32 0.0 0 1 118.42 357.77 L 167.50 320.49 Z" transform="matrix(1, 0, 0, 1, 0, -2.842170943040401e-14)"/>
  <path fill="#fcf4d3" d=" M 212.53 336.71 Q 207.78 338.12 203.56 340.19 Q 196.34 343.73 196.28 343.76 Q 191.03 346.10 185.73 348.52 Q 180.39 350.96 175.46 353.76 Q 165.67 359.33 156.15 364.32 Q 154.21 365.34 152.02 365.85 Q 151.53 365.96 151.14 365.66 Q 150.21 364.95 149.50 365.10 Q 148.41 365.32 148.37 364.72 Q 151.85 363.23 155.10 361.17 Q 160.45 357.78 161.55 357.17 Q 167.15 354.07 172.78 351.03 Q 172.80 351.02 179.48 347.07 Q 182.93 345.03 186.52 343.71 Q 194.69 340.79 201.78 335.89 A 0.56 0.55 47.2 0 0 201.81 335.00 Q 196.00 330.24 188.66 327.33 L 182.58 321.38 Q 181.91 320.73 182.82 320.95 Q 189.82 322.62 196.02 326.21 Q 203.41 330.51 211.56 334.65 Q 212.09 334.92 212.53 336.71 Z" transform="matrix(1, 0, 0, 1, 0, -2.842170943040401e-14)"/>
  <path fill="#d5a543" d=" M 169.43 322.09 Q 172.52 324.53 176.71 327.80 Q 177.95 328.77 179.34 331.15 Q 179.60 331.59 179.31 332.01 Q 178.53 333.14 177.22 333.95 Q 168.31 339.42 160.97 342.91 Q 158.77 343.95 156.84 345.13 C 152.76 347.61 148.80 349.54 144.60 352.34 C 142.89 353.49 140.94 354.12 139.33 355.41 Q 136.79 357.43 133.44 358.20 C 131.06 358.75 128.35 357.22 126.27 356.02 Q 128.94 352.58 132.77 350.31 Q 133.30 349.99 133.80 350.34 Q 134.53 350.85 134.92 351.66 Q 135.17 352.18 135.74 352.14 Q 140.32 351.82 141.73 348.47 L 156.79 340.65 Q 158.08 341.40 160.32 338.87 A 2.27 2.26 -39.0 0 0 160.60 336.26 Q 159.28 333.92 157.45 332.06 A 0.78 0.78 0.0 0 1 157.61 330.83 Q 163.86 327.21 169.43 322.09 Z" transform="matrix(1, 0, 0, 1, 0, -2.842170943040401e-14)"/>
  <path fill="#a06610" d=" M 117.29 338.37 Q 118.29 338.19 118.35 338.46 A 1.13 1.13 0.0 0 0 120.13 339.11 Q 128.01 333.19 137.84 330.56 Q 134.12 334.59 130.22 336.93 Q 129.83 336.42 129.47 336.22 Q 129.17 336.05 128.87 336.19 Q 124.84 338.10 121.26 340.52 C 118.13 342.62 115.83 340.31 113.24 338.89 Q 104.24 333.98 95.50 329.04 A 0.76 0.73 -75.8 0 1 95.13 328.39 Q 95.14 327.26 96.74 327.32 A 1.08 1.05 -29.2 0 1 97.19 327.44 L 117.29 338.37 Z" transform="matrix(1, 0, 0, 1, 0, -2.842170943040401e-14)"/>
  <path fill="#e0b759" d=" M 188.66 327.33 Q 196.00 330.24 201.81 335.00 A 0.56 0.55 47.2 0 1 201.78 335.89 Q 194.69 340.79 186.52 343.71 Q 188.70 341.82 187.54 341.21 Q 187.04 340.95 186.11 339.72 Q 188.86 338.24 191.43 336.69 C 193.79 335.26 193.00 332.82 191.58 331.19 Q 189.65 328.98 188.66 327.33 Z" transform="matrix(1, 0, 0, 1, 0, -2.842170943040401e-14)"/>
  <path fill="#a06610" d=" M 67.83 335.60 Q 69.30 336.50 70.66 337.46 Q 71.92 338.35 70.47 337.85 Q 66.35 336.44 62.23 334.90 Q 60.09 334.10 58.84 332.66 Q 57.45 331.05 59.49 331.68 Q 63.41 332.90 67.83 335.60 Z" transform="matrix(1, 0, 0, 1, 0, -2.842170943040401e-14)"/>
  <path fill="#c89b3f" d=" M 188.72 333.92 L 134.37 366.04 Q 133.92 366.30 133.46 366.08 L 125.56 362.31 L 124.97 360.89 Q 124.79 360.44 124.32 360.31 Q 123.46 360.06 123.43 359.07 Q 123.40 358.13 123.61 358.39 Q 126.13 358.82 126.98 359.28 Q 130.37 361.15 133.66 363.05 A 1.26 1.24 42.7 0 0 134.98 363.01 Q 136.33 362.09 138.02 361.23 Q 146.52 356.90 154.63 351.88 C 155.52 351.32 156.35 350.33 157.42 349.76 Q 164.58 345.90 172.06 342.54 Q 175.99 340.78 180.49 336.50 Q 181.90 335.16 188.72 333.92 Z" transform="matrix(1, 0, 0, 1, 0, -2.842170943040401e-14)"/>
  <path fill="#c89b3f" d=" M 212.53 336.71 Q 207.70 340.35 202.23 342.82 Q 196.13 345.57 196.09 345.59 Q 183.71 351.69 179.37 354.37 Q 172.16 358.84 164.79 363.05 Q 163.53 363.76 161.14 364.85 C 158.01 366.27 155.15 368.63 152.03 369.18 C 148.90 369.73 145.15 370.41 142.21 368.59 Q 144.02 365.96 148.37 364.72 Q 148.41 365.32 149.50 365.10 Q 150.21 364.95 151.14 365.66 Q 151.53 365.96 152.02 365.85 Q 154.21 365.34 156.15 364.32 Q 165.67 359.33 175.46 353.76 Q 180.39 350.96 185.73 348.52 Q 191.03 346.10 196.28 343.76 Q 196.34 343.73 203.56 340.19 Q 207.78 338.12 212.53 336.71 Z" transform="matrix(1, 0, 0, 1, 0, -2.842170943040401e-14)"/>
  <path fill="#efdaa3" d=" M 156.79 340.65 L 141.73 348.47 L 136.50 350.88 Q 136.08 351.07 135.96 350.63 Q 135.93 350.51 135.97 350.37 Q 136.00 350.22 136.15 350.10 Q 138.72 348.23 141.19 346.34 Q 143.59 344.50 146.48 342.96 Q 150.93 340.58 155.24 337.85 A 0.96 0.95 -22.1 0 1 156.69 338.46 Q 156.84 339.14 156.79 340.65 Z" transform="matrix(1, 0, 0, 1, 0, -2.842170943040401e-14)"/>
  <circle fill="#fdf9ea" cx="49.18" cy="339.66" r="1.31" transform="matrix(1, 0, 0, 1, 0, -2.842170943040401e-14)"/>
  <path fill="#a06610" d=" M 186.11 339.72 Q 187.04 340.95 187.54 341.21 Q 188.70 341.82 186.52 343.71 Q 182.93 345.03 179.48 347.07 Q 172.80 351.02 172.78 351.03 Q 167.15 354.07 161.55 357.17 Q 160.45 357.78 155.10 361.17 Q 151.85 363.23 148.37 364.72 Q 144.02 365.96 142.21 368.59 Q 141.77 368.59 140.30 367.77 A 0.76 0.75 -42.3 0 1 140.37 366.42 Q 146.91 363.49 152.71 359.73 Q 160.36 354.78 163.85 352.88 Q 169.42 349.84 175.12 346.34 Q 176.78 345.31 180.66 343.11 Q 183.47 341.51 186.11 339.72 Z" transform="matrix(1, 0, 0, 1, 0, -2.842170943040401e-14)"/>
  <path fill="#ba852a" d=" M 70.90 343.49 Q 82.66 354.20 88.25 357.72 Q 93.24 360.86 96.03 363.43 Q 100.93 367.94 106.20 367.89 Q 104.37 368.61 106.10 370.17 Q 114.69 377.91 121.38 382.68 Q 126.34 386.22 136.79 393.72 Q 138.29 394.80 140.05 395.68 Q 140.49 395.90 140.99 395.82 Q 142.43 395.59 143.75 394.86 C 150.38 391.22 156.80 387.11 163.72 383.84 Q 170.62 380.60 175.39 377.44 Q 181.32 373.51 186.74 370.92 Q 189.53 369.59 191.46 367.91 Q 192.41 367.08 193.57 366.68 Q 194.74 366.28 195.82 365.70 Q 201.39 362.70 207.63 360.62 Q 205.35 362.76 202.38 364.10 Q 197.43 366.33 196.75 366.72 C 189.74 370.69 182.87 374.20 175.55 378.73 Q 170.83 381.65 166.40 383.90 Q 158.65 387.82 155.22 389.88 Q 149.71 393.18 144.26 396.32 Q 142.56 397.31 140.67 397.81 Q 140.18 397.94 139.75 397.66 L 121.05 385.58 Q 117.80 383.23 113.88 380.89 C 112.02 379.79 110.39 378.35 108.57 377.21 Q 106.03 375.61 102.87 373.98 C 98.28 371.63 94.09 368.23 89.63 365.44 Q 86.55 363.52 82.05 360.53 Q 77.80 357.69 73.20 355.20 Q 68.77 351.65 62.14 347.39 C 60.29 346.19 60.91 342.70 61.06 340.83 Q 61.11 340.19 61.72 340.39 L 70.90 343.49 Z" transform="matrix(1, 0, 0, 1, 0, -2.842170943040401e-14)"/>
  <path fill="#c89b3f" d=" M 226.48 341.78 Q 226.58 396.39 226.45 451.00 Q 226.43 456.95 220.80 460.30 Q 220.36 460.10 219.88 460.10 Q 219.36 460.09 219.43 459.57 Q 219.48 459.18 219.14 458.94 Q 219.01 458.85 218.88 458.92 Q 218.71 459.00 218.75 459.18 A 0.04 0.04 0.0 0 1 218.68 459.21 L 217.48 457.71 Q 221.61 455.87 220.91 452.58 L 220.89 414.05 Q 220.89 413.74 220.58 413.73 Q 204.50 413.60 188.75 413.75 Q 187.22 413.77 185.03 411.35 L 214.84 410.91 Q 215.40 410.90 215.53 410.35 L 215.60 410.06 A 0.55 0.55 0.0 0 0 215.06 409.38 L 203.79 409.37 L 220.34 409.19 A 0.53 0.52 -0.6 0 0 220.86 408.67 L 220.99 347.28 Q 221.30 347.59 221.52 347.60 Q 221.74 347.61 221.83 347.26 Q 221.88 347.05 221.89 346.83 Q 221.90 346.44 222.18 346.18 Q 223.61 344.88 225.61 344.82 Q 226.13 344.80 226.19 344.28 L 226.48 341.78 Z" transform="matrix(1, 0, 0, 1, 0, -2.842170943040401e-14)"/>
  <path fill="#a06610" d=" M 70.90 343.49 Q 81.74 346.65 89.52 352.53 Q 100.32 360.69 108.22 365.55 C 113.78 368.97 118.45 373.58 124.05 376.73 C 126.88 378.33 129.11 378.16 132.10 378.10 Q 133.22 378.08 134.25 378.83 C 137.08 380.88 141.39 382.29 144.52 381.24 Q 148.65 379.86 154.18 375.63 Q 155.90 376.37 158.67 374.69 Q 164.01 371.46 169.01 369.70 Q 168.78 370.29 168.87 370.68 Q 169.01 371.22 169.55 371.09 Q 171.41 370.65 172.94 370.83 Q 174.32 370.99 173.14 371.72 Q 170.78 373.19 168.06 374.34 Q 164.53 375.83 162.86 376.70 Q 152.37 382.16 143.76 384.95 Q 140.64 385.96 134.12 386.25 L 106.20 367.89 Q 100.93 367.94 96.03 363.43 Q 93.24 360.86 88.25 357.72 Q 82.66 354.20 70.90 343.49 Z" transform="matrix(1, 0, 0, 1, 0, -2.842170943040401e-14)"/>
  <path fill="#af7b28" d=" M 240.44 343.71 Q 240.62 396.27 240.39 448.83 C 240.36 456.27 239.38 463.45 233.57 468.67 Q 229.02 472.75 223.75 474.63 C 218.84 476.40 211.95 475.91 206.38 475.91 Q 123.88 475.85 46.00 475.80 C 36.17 475.80 27.63 468.52 24.54 459.45 Q 23.31 455.86 23.36 444.37 Q 23.54 400.17 23.33 355.95 L 24.03 357.33 Q 24.25 357.78 24.74 357.85 Q 26.17 358.07 27.26 357.22 Q 27.63 356.93 27.74 357.38 Q 28.06 358.67 28.51 358.05 Q 28.51 403.88 28.36 449.75 Q 28.33 458.63 33.74 465.02 Q 36.57 468.36 41.93 469.77 Q 45.21 470.63 50.88 470.64 Q 130.70 470.66 210.52 470.70 Q 219.37 470.71 223.30 469.24 Q 231.18 466.29 234.13 458.27 Q 235.53 454.46 235.52 446.54 Q 235.47 396.29 235.48 346.05 Q 236.42 345.10 238.53 346.27 A 0.93 0.92 -67.5 0 0 239.87 345.71 L 240.44 343.71 Z" transform="matrix(1, 0, 0, 1, 0, -2.842170943040401e-14)"/>
  <path fill="#a06610" d=" M 109.01 357.78 A 0.11 0.11 0.0 0 1 109.05 357.93 L 109.04 357.95 A 8.49 1.09 30.5 0 1 101.17 354.58 L 97.49 352.41 A 8.49 1.09 30.5 0 1 90.72 347.16 L 90.73 347.14 A 0.11 0.11 0.0 0 1 90.89 347.11 L 109.01 357.78 Z" transform="matrix(1, 0, 0, 1, 0, -2.842170943040401e-14)"/>
  <path fill="#fcf4d3" d=" M 207.63 360.62 Q 201.39 362.70 195.82 365.70 Q 194.74 366.28 193.57 366.68 Q 192.41 367.08 191.46 367.91 Q 189.53 369.59 186.74 370.92 Q 181.32 373.51 175.39 377.44 Q 170.62 380.60 163.72 383.84 C 156.80 387.11 150.38 391.22 143.75 394.86 Q 142.43 395.59 140.99 395.82 Q 140.49 395.90 140.05 395.68 Q 138.29 394.80 136.79 393.72 Q 126.34 386.22 121.38 382.68 Q 114.69 377.91 106.10 370.17 Q 104.37 368.61 106.20 367.89 L 134.12 386.25 Q 137.90 389.04 141.78 390.15 Q 142.26 390.29 142.72 390.10 C 145.55 388.89 148.13 386.90 151.40 385.64 Q 154.08 384.62 156.44 383.13 C 162.93 379.04 169.73 375.65 176.92 371.32 Q 184.98 366.47 194.35 362.42 Q 200.33 359.84 197.93 357.11 Q 195.82 353.80 193.90 352.54 L 192.99 351.92 Q 194.35 350.57 196.21 350.15 A 1.00 0.99 59.1 0 1 197.08 350.37 Q 201.00 353.76 207.43 358.06 Q 208.58 358.82 207.63 360.62 Z" transform="matrix(1, 0, 0, 1, 0, -2.842170943040401e-14)"/>
  <path fill="#7c4710" d=" M 192.99 351.92 L 193.90 352.54 Q 192.81 353.44 191.88 354.45 Q 190.82 355.60 189.78 356.20 Q 186.55 358.07 183.25 359.83 C 182.24 360.37 181.41 361.17 180.55 361.92 Q 180.21 362.21 178.96 363.01 Q 178.14 363.54 177.50 364.31 Q 177.20 364.68 177.67 364.59 L 179.34 364.25 L 169.01 369.70 Q 164.01 371.46 158.67 374.69 Q 155.90 376.37 154.18 375.63 Q 161.85 370.25 170.12 365.84 Q 176.60 362.38 180.12 360.18 Q 184.98 357.14 189.83 354.07 Q 190.34 353.75 192.48 353.01 Q 193.34 352.71 192.99 351.92 Z" transform="matrix(1, 0, 0, 1, 0, -2.842170943040401e-14)"/>
  <path fill="#a06610" d=" M 193.90 352.54 Q 195.82 353.80 197.93 357.11 L 179.34 364.25 L 177.67 364.59 Q 177.20 364.68 177.50 364.31 Q 178.14 363.54 178.96 363.01 Q 180.21 362.21 180.55 361.92 C 181.41 361.17 182.24 360.37 183.25 359.83 Q 186.55 358.07 189.78 356.20 Q 190.82 355.60 191.88 354.45 Q 192.81 353.44 193.90 352.54 Z" transform="matrix(1, 0, 0, 1, 0, -2.842170943040401e-14)"/>
  <path fill="#c89b3f" d=" M 42.46 354.16 L 42.51 366.73 Q 42.75 368.63 43.85 369.66 Q 45.14 370.87 49.19 373.50 Q 48.83 375.49 49.40 378.04 Q 49.52 378.53 49.88 378.89 Q 53.73 382.64 59.54 386.61 Q 66.40 391.29 73.81 397.87 C 75.60 399.46 77.60 400.86 79.49 402.42 Q 81.61 404.16 83.84 405.70 Q 90.24 410.11 96.28 415.33 Q 97.50 416.39 98.93 415.64 Q 104.42 412.74 110.51 409.41 Q 116.42 406.18 122.48 404.84 Q 110.36 413.19 98.20 419.41 A 1.75 1.74 51.4 0 1 96.28 419.19 Q 90.75 414.47 85.04 410.10 C 82.24 407.96 76.84 404.46 72.99 400.98 C 67.08 395.64 60.68 390.94 54.30 386.09 Q 52.92 385.04 48.79 381.27 Q 46.01 378.73 42.82 376.85 A 0.25 0.24 15.8 0 0 42.45 377.05 L 42.52 408.45 A 0.67 0.67 0.0 0 0 43.17 409.12 Q 47.31 409.25 50.89 409.19 C 53.90 409.14 56.07 411.06 57.99 412.98 A 0.34 0.34 0.0 0 1 57.76 413.56 L 42.98 413.76 Q 42.52 413.77 42.52 414.23 L 42.44 424.20 Q 42.44 426.50 41.53 428.17 Q 41.31 428.59 40.84 428.64 L 38.50 428.93 Q 38.06 428.98 37.99 429.42 Q 37.76 430.98 36.95 431.83 L 36.95 356.97 Q 37.29 356.93 37.37 357.33 Q 37.41 357.55 37.46 357.33 Q 37.48 357.19 37.50 357.05 A 1.42 1.36 18.5 0 1 39.62 356.05 Q 40.26 356.42 40.98 356.47 Q 41.61 356.52 41.69 355.89 Q 41.84 354.77 42.46 354.16 Z" transform="matrix(1, 0, 0, 1, 0, -2.842170943040401e-14)"/>
  <circle fill="#fdf9ea" cx="216.64" cy="355.48" r="1.24" transform="matrix(1, 0, 0, 1, 0, -2.842170943040401e-14)"/>
  <circle fill="#fdf9ea" cx="47.92" cy="355.73" r="1.23" transform="matrix(1, 0, 0, 1, 0, -2.842170943040401e-14)"/>
  <path fill="#af7b28" d=" M 73.20 355.20 Q 77.80 357.69 82.05 360.53 Q 86.55 363.52 89.63 365.44 C 94.09 368.23 98.28 371.63 102.87 373.98 Q 106.03 375.61 108.57 377.21 C 110.39 378.35 112.02 379.79 113.88 380.89 Q 117.80 383.23 121.05 385.58 Q 121.98 387.43 123.36 388.64 Q 130.33 394.76 137.58 400.60 A 0.31 0.30 33.7 0 1 137.66 400.98 L 137.49 401.30 Q 137.24 401.76 136.82 401.46 Q 114.49 385.56 92.30 369.30 Q 92.23 369.25 82.68 362.83 Q 77.63 359.44 73.20 355.20 Z" transform="matrix(1, 0, 0, 1, 0, -2.842170943040401e-14)"/>
  <path fill="#c89b3f" d=" M 197.93 357.11 Q 200.33 359.84 194.35 362.42 Q 184.98 366.47 176.92 371.32 C 169.73 375.65 162.93 379.04 156.44 383.13 Q 154.08 384.62 151.40 385.64 C 148.13 386.90 145.55 388.89 142.72 390.10 Q 142.26 390.29 141.78 390.15 Q 137.90 389.04 134.12 386.25 Q 140.64 385.96 143.76 384.95 Q 152.37 382.16 162.86 376.70 Q 164.53 375.83 168.06 374.34 Q 170.78 373.19 173.14 371.72 Q 174.32 370.99 172.94 370.83 Q 171.41 370.65 169.55 371.09 Q 169.01 371.22 168.87 370.68 Q 168.78 370.29 169.01 369.70 L 179.34 364.25 L 197.93 357.11 Z" transform="matrix(1, 0, 0, 1, 0, -2.842170943040401e-14)"/>
  <path fill="#fcf4d3" d=" M 122.48 404.84 Q 116.42 406.18 110.51 409.41 Q 104.42 412.74 98.93 415.64 Q 97.50 416.39 96.28 415.33 Q 90.24 410.11 83.84 405.70 Q 81.61 404.16 79.49 402.42 C 77.60 400.86 75.60 399.46 73.81 397.87 Q 66.40 391.29 59.54 386.61 Q 53.73 382.64 49.88 378.89 Q 49.52 378.53 49.40 378.04 Q 48.83 375.49 49.19 373.50 L 49.64 363.75 Q 55.24 360.31 60.99 358.79 C 62.01 358.52 62.97 358.79 63.85 359.47 C 66.86 361.77 70.11 363.95 72.97 366.27 Q 81.06 372.84 89.73 379.35 Q 92.08 381.11 94.27 383.13 C 96.30 385.01 98.84 386.09 101.09 387.81 Q 111.30 395.63 122.48 404.84 Z M 104.97 407.87 C 108.93 406.09 108.64 404.46 109.34 401.01 Q 109.53 400.04 108.80 399.46 Q 97.12 390.25 78.79 376.34 C 75.05 373.49 71.70 370.16 67.96 367.59 C 65.47 365.88 59.57 366.99 56.99 367.75 Q 52.57 369.05 52.22 373.41 C 52.07 375.26 52.71 376.08 54.07 377.17 Q 58.38 380.61 62.59 383.71 Q 67.88 387.59 71.05 390.25 C 78.35 396.37 85.60 402.47 93.12 408.03 C 97.01 410.90 100.69 409.79 104.97 407.87 Z" transform="matrix(1, 0, 0, 1, 0, -2.842170943040401e-14)"/>
  <path fill="#a06610" d=" M 114.75 361.77 L 132.47 371.29 A 0.35 0.35 0.0 0 1 132.47 371.90 L 128.04 374.36 A 0.35 0.35 0.0 0 1 127.66 374.34 L 110.41 361.80 A 0.35 0.35 0.0 0 1 110.67 361.18 L 114.63 361.73 A 0.35 0.35 0.0 0 1 114.75 361.77 Z" transform="matrix(1, 0, 0, 1, 0, -2.842170943040401e-14)"/>
  <path fill="#a06610" d=" M 49.64 363.75 L 49.19 373.50 Q 45.14 370.87 43.85 369.66 Q 42.75 368.63 42.51 366.73 L 49.64 363.75 Z" transform="matrix(1, 0, 0, 1, 0, -2.842170943040401e-14)"/>
  <path fill="#d5a543" d=" M 104.97 407.87 C 100.69 409.79 97.01 410.90 93.12 408.03 C 85.60 402.47 78.35 396.37 71.05 390.25 Q 67.88 387.59 62.59 383.71 Q 58.38 380.61 54.07 377.17 C 52.71 376.08 52.07 375.26 52.22 373.41 Q 52.57 369.05 56.99 367.75 C 59.57 366.99 65.47 365.88 67.96 367.59 C 71.70 370.16 75.05 373.49 78.79 376.34 Q 97.12 390.25 108.80 399.46 Q 109.53 400.04 109.34 401.01 C 108.64 404.46 108.93 406.09 104.97 407.87 Z M 92.64 401.45 C 94.45 402.86 98.18 404.41 99.52 401.45 Q 100.33 399.67 99.77 398.12 Q 99.64 397.75 99.32 397.51 Q 95.68 394.79 91.58 391.10 Q 87.86 387.75 82.40 384.24 Q 78.22 381.55 71.03 374.79 C 69.60 373.45 67.85 372.03 65.84 371.92 Q 62.55 371.74 60.23 372.34 A 1.90 1.90 0.0 0 0 59.54 375.68 Q 76.37 388.81 92.64 401.45 Z" transform="matrix(1, 0, 0, 1, 0, -2.842170943040401e-14)"/>
  <path fill="#fcf4d3" d=" M 211.00 374.23 Q 209.78 374.05 209.11 374.34 Q 202.68 377.12 193.30 381.71 Q 190.01 383.32 186.63 384.76 Q 183.17 386.23 179.97 387.86 Q 166.54 394.69 152.81 401.64 Q 151.90 402.10 151.17 401.38 Q 150.80 401.01 150.55 400.54 Q 150.12 399.73 150.92 399.28 Q 172.46 387.09 195.85 376.25 Q 197.22 375.62 198.04 374.58 A 1.48 1.48 0.0 0 0 197.86 372.53 Q 197.04 371.82 196.91 370.70 L 202.53 367.38 A 0.80 0.79 -44.1 0 1 203.36 367.39 Q 207.00 369.63 210.96 372.01 A 1.68 1.55 20.3 0 1 211.77 373.60 Q 211.76 373.72 211.00 374.23 Z" transform="matrix(1, 0, 0, 1, 0, -2.842170943040401e-14)"/>
  <path fill="#af7b28" d=" M 196.91 370.70 Q 197.04 371.82 197.86 372.53 A 1.48 1.48 0.0 0 1 198.04 374.58 Q 197.22 375.62 195.85 376.25 Q 172.46 387.09 150.92 399.28 Q 150.12 399.73 150.55 400.54 Q 150.80 401.01 151.17 401.38 Q 151.90 402.10 152.81 401.64 Q 166.54 394.69 179.97 387.86 Q 183.17 386.23 186.63 384.76 Q 190.01 383.32 193.30 381.71 Q 202.68 377.12 209.11 374.34 Q 209.78 374.05 211.00 374.23 Q 210.15 375.39 208.66 376.16 Q 202.11 379.53 195.70 383.18 C 193.37 384.50 191.00 385.38 188.77 386.51 Q 171.77 395.10 155.37 404.00 Q 153.44 405.04 151.36 404.35 Q 148.30 403.34 145.37 401.56 Q 144.20 400.86 145.38 400.18 L 196.91 370.70 Z" transform="matrix(1, 0, 0, 1, 0, -2.842170943040401e-14)"/>
  <path fill="#fcf4d3" d=" M 99.52 401.45 C 98.18 404.41 94.45 402.86 92.64 401.45 Q 76.37 388.81 59.54 375.68 A 1.90 1.90 0.0 0 1 60.23 372.34 Q 62.55 371.74 65.84 371.92 C 67.85 372.03 69.60 373.45 71.03 374.79 Q 78.22 381.55 82.40 384.24 Q 87.86 387.75 91.58 391.10 Q 95.68 394.79 99.32 397.51 Q 99.64 397.75 99.77 398.12 Q 100.33 399.67 99.52 401.45 Z" transform="matrix(1, 0, 0, 1, 0, -2.842170943040401e-14)"/>
  <path fill="#af7b28" d=" M 139.01 374.03 Q 140.99 374.73 149.14 373.69 Q 150.77 373.49 149.34 374.31 L 144.23 377.26 Q 142.99 377.97 141.59 377.69 Q 138.42 377.04 135.96 374.80 A 0.46 0.45 54.3 0 1 136.08 374.04 Q 137.41 373.48 139.01 374.03 Z" transform="matrix(1, 0, 0, 1, 0, -2.842170943040401e-14)"/>
  <path fill="#af7b28" d=" M 207.68 381.62 A 0.47 0.47 0.0 0 1 208.32 381.89 L 208.41 382.16 A 0.91 0.91 0.0 0 1 207.97 383.27 L 155.66 410.46 A 2.21 2.21 0.0 0 1 153.62 410.46 L 147.93 407.54 Q 147.80 407.47 147.80 407.32 L 147.81 406.92 Q 147.81 406.73 148.00 406.79 C 149.89 407.38 153.37 408.74 155.17 407.96 Q 164.76 403.78 171.44 400.10 Q 187.12 391.48 207.68 381.62 Z" transform="matrix(1, 0, 0, 1, 0, -2.842170943040401e-14)"/>
  <path fill="#af7b28" d=" M 102.46 421.46 Q 110.91 416.72 119.25 411.72 Q 120.19 411.15 121.34 411.24 Q 121.79 411.28 121.90 411.96 A 0.74 0.72 67.5 0 1 121.62 412.66 Q 113.83 418.47 98.26 427.00 Q 97.42 427.46 96.50 427.49 Q 95.69 427.51 94.65 426.66 Q 84.83 418.67 75.18 411.06 Q 73.30 409.58 71.39 408.11 Q 62.43 401.22 53.81 394.42 C 51.57 392.65 48.94 390.54 49.29 387.27 Q 49.36 386.57 49.89 387.03 Q 59.56 395.37 62.84 397.65 C 67.75 401.07 72.64 405.49 76.83 408.63 Q 84.08 414.07 91.34 419.98 C 92.87 421.22 94.25 422.90 95.86 424.25 A 1.46 1.44 48.7 0 0 97.55 424.37 Q 100.10 422.79 102.46 421.46 Z" transform="matrix(1, 0, 0, 1, 0, -2.842170943040401e-14)"/>
  <path fill="#af7b28" d=" M 196.91 396.44 Q 189.36 400.56 181.34 404.56 Q 168.42 410.98 156.68 417.31 C 153.54 419.00 148.23 415.40 146.14 413.21 Q 145.54 412.58 146.37 412.81 Q 149.28 413.62 151.94 414.95 C 154.74 416.35 155.75 415.30 158.00 414.02 Q 164.94 410.07 171.66 407.12 Q 176.22 405.11 180.47 402.73 C 186.20 399.53 191.97 397.08 197.85 393.71 Q 202.07 391.29 206.51 389.27 Q 207.34 388.89 207.50 388.87 Q 209.16 388.69 207.96 389.86 Q 206.43 391.35 204.25 392.50 Q 200.65 394.41 196.91 396.44 Z" transform="matrix(1, 0, 0, 1, 0, -2.842170943040401e-14)"/>
  <path fill="#af7b28" d=" M 95.29 432.35 A 1.30 1.30 0.0 0 0 96.85 432.56 L 120.67 419.07 A 0.69 0.67 -44.2 0 1 121.34 419.07 Q 122.27 419.61 121.09 420.59 Q 116.20 424.64 110.81 427.42 Q 106.66 429.56 104.36 431.00 Q 101.27 432.94 98.09 434.85 Q 95.60 436.35 93.69 434.74 C 88.54 430.39 83.25 427.10 78.20 422.96 Q 69.76 416.04 61.90 409.62 C 58.91 407.18 53.94 404.22 50.41 400.61 C 49.23 399.40 49.00 397.94 49.28 396.34 A 0.41 0.41 0.0 0 1 49.95 396.11 Q 55.65 401.08 61.91 405.63 C 71.40 412.51 79.73 420.72 89.35 427.43 Q 92.76 429.81 95.29 432.35 Z" transform="matrix(1, 0, 0, 1, 0, -2.842170943040401e-14)"/>
  <path fill="#d8af62" d=" M 203.79 409.37 L 215.06 409.38 A 0.55 0.55 0.0 0 1 215.60 410.06 L 215.53 410.35 Q 215.40 410.90 214.84 410.91 L 185.03 411.35 Q 183.78 410.80 183.15 410.33 Q 182.06 409.52 183.41 409.51 L 203.79 409.37 Z" transform="matrix(1, 0, 0, 1, 0, -2.842170943040401e-14)"/>
  <path fill="#fcf4d3" d=" M 192.47 422.99 Q 182.65 427.39 175.78 437.02 A 0.74 0.74 0.0 0 1 175.00 437.31 Q 172.53 436.72 170.48 434.98 Q 170.08 434.65 170.20 434.14 Q 170.70 431.98 172.70 432.16 Q 172.95 432.79 173.41 432.96 Q 173.93 433.14 174.29 432.73 L 182.49 423.33 Q 182.57 422.35 182.33 422.09 Q 176.02 419.33 170.68 415.08 L 173.46 413.87 Q 173.89 413.69 174.31 413.90 L 192.47 422.99 Z" transform="matrix(1, 0, 0, 1, 0, -2.842170943040401e-14)"/>
  <path fill="#af7b28" d=" M 170.68 415.08 Q 176.02 419.33 182.33 422.09 L 179.90 422.37 Q 172.49 421.39 165.77 417.98 Q 165.31 417.75 165.72 417.44 Q 168.16 415.59 170.68 415.08 Z" transform="matrix(1, 0, 0, 1, 0, -2.842170943040401e-14)"/>
  <path fill="#fcf4d3" d=" M 62.94 417.65 Q 62.33 426.92 63.17 429.26 Q 63.66 430.62 64.01 431.96 Q 65.04 435.88 62.09 433.10 Q 58.84 430.04 54.63 428.18 Q 52.53 427.26 51.62 429.39 Q 50.56 429.26 49.97 428.91 Q 49.53 428.66 49.94 428.37 Q 54.15 425.30 56.96 422.32 Q 59.49 419.64 62.18 417.30 Q 62.48 417.03 62.77 417.31 Q 63.01 417.55 62.94 417.65 Z" transform="matrix(1, 0, 0, 1, 0, -2.842170943040401e-14)"/>
  <path fill="#ba852a" d=" M 163.07 419.81 Q 161.99 423.73 158.70 426.73 Q 157.18 428.11 156.25 429.24 C 155.13 430.59 152.98 433.72 150.99 432.51 Q 146.16 429.59 141.01 427.26 C 139.32 426.49 138.10 425.33 136.68 424.20 A 0.36 0.36 0.0 0 0 136.24 424.20 L 132.34 427.15 Q 132.23 427.23 132.36 427.29 L 154.73 437.74 A 0.55 0.54 30.4 0 0 155.39 437.57 Q 161.22 429.65 169.08 422.57 Q 170.64 424.06 167.95 426.65 C 163.22 431.20 159.27 436.46 155.65 441.93 A 0.49 0.49 0.0 0 1 155.04 442.11 Q 141.44 436.06 128.30 429.15 A 0.42 0.42 0.0 0 1 128.32 428.40 Q 129.93 427.63 131.20 426.36 Q 136.27 421.28 141.39 417.28 Q 141.77 416.98 142.22 417.16 Q 147.25 419.11 152.30 421.40 Q 153.61 422.00 155.39 421.83 Q 156.76 421.69 158.34 421.01 Q 160.72 419.99 163.07 419.81 Z M 152.6696 431.3816 A 6.02 0.96 50.0 0 0 149.5354 426.1529 A 6.02 0.96 50.0 0 0 144.9304 422.1584 A 6.02 0.96 50.0 0 0 148.0646 427.3871 A 6.02 0.96 50.0 0 0 152.6696 431.3816 Z" transform="matrix(1, 0, 0, 1, 0, -2.842170943040401e-14)"/>
  <path fill="#af7b28" d=" M 62.94 417.65 L 72.53 428.21 A 0.90 0.90 0.0 0 1 72.40 429.54 Q 69.88 431.39 67.81 433.65 C 65.26 436.42 64.08 439.96 63.12 443.61 Q 62.40 446.35 61.64 443.62 C 60.78 440.54 60.12 435.70 57.79 433.21 Q 56.16 431.46 51.62 429.39 Q 52.53 427.26 54.63 428.18 Q 58.84 430.04 62.09 433.10 Q 65.04 435.88 64.01 431.96 Q 63.66 430.62 63.17 429.26 Q 62.33 426.92 62.94 417.65 Z" transform="matrix(1, 0, 0, 1, 0, -2.842170943040401e-14)"/>
  <circle fill="#e5c375" cx="54.29" cy="419.24" r="0.88" transform="matrix(1, 0, 0, 1, 0, -2.842170943040401e-14)"/>
  <path fill="#efdaa3" d=" M 163.07 419.81 L 169.08 422.57 Q 161.22 429.65 155.39 437.57 A 0.55 0.54 30.4 0 1 154.73 437.74 L 132.36 427.29 Q 132.23 427.23 132.34 427.15 L 136.24 424.20 A 0.36 0.36 0.0 0 1 136.68 424.20 C 138.10 425.33 139.32 426.49 141.01 427.26 Q 146.16 429.59 150.99 432.51 C 152.98 433.72 155.13 430.59 156.25 429.24 Q 157.18 428.11 158.70 426.73 Q 161.99 423.73 163.07 419.81 Z" transform="matrix(1, 0, 0, 1, 0, -2.842170943040401e-14)"/>
  <path fill="#fcf4d3" d=" M 204.32 422.77 Q 204.49 432.37 204.45 436.50 Q 204.44 437.18 203.82 437.68 Q 202.98 437.83 201.65 438.75 Q 200.75 433.10 201.48 428.36 Q 201.71 426.81 200.99 428.20 Q 198.60 432.79 194.38 436.24 C 191.59 438.52 192.19 443.38 192.98 446.73 Q 192.30 447.59 191.37 448.03 Q 190.89 448.25 190.90 447.72 L 191.00 439.05 A 3.84 3.84 0.0 0 1 191.73 436.86 Q 196.91 429.85 202.47 421.51 Q 203.20 420.41 203.88 421.53 Q 204.03 421.78 204.32 422.77 Z" transform="matrix(1, 0, 0, 1, 0, -2.842170943040401e-14)"/>
  <ellipse fill="#7c4710" cx="0.00" cy="0.00" transform="matrix(0.6427876096865393, 0.7660444431189781, -0.7660444431189781, 0.6427876096865393, 148.8000030517578, 426.7699890136719)" rx="6.02" ry="0.96"/>
  <path fill="#7c4710" d=" M 179.90 422.37 L 182.33 422.09 Q 182.57 422.35 182.49 423.33 Q 181.81 422.51 179.90 422.37 Z" transform="matrix(1, 0, 0, 1, 0, -2.842170943040401e-14)"/>
  <path fill="#a06610" d=" M 45.86 425.73 L 46.02 422.76 A 0.36 0.36 0.0 0 1 46.39 422.42 L 49.36 422.46 A 0.36 0.36 0.0 0 1 49.60 423.08 L 46.47 426.02 A 0.36 0.36 0.0 0 1 45.86 425.73 Z" transform="matrix(1, 0, 0, 1, 0, -2.842170943040401e-14)"/>
  <path fill="#af7b28" d=" M 204.32 422.77 L 209.06 429.48 Q 210.01 434.90 214.66 437.45 L 214.94 446.55 Q 214.99 448.13 213.84 447.05 L 203.82 437.68 Q 204.44 437.18 204.45 436.50 Q 204.49 432.37 204.32 422.77 Z" transform="matrix(1, 0, 0, 1, 0, -2.842170943040401e-14)"/>
  <path fill="#efdaa3" d=" M 214.29 425.13 A 0.72 0.72 0.0 0 1 214.24 424.11 L 214.34 424.00 A 2.77 2.06 -47.8 0 1 217.72 423.33 L 217.90 423.49 A 2.77 2.06 -47.8 0 1 217.57 426.93 L 217.47 427.04 A 0.72 0.72 0.0 0 1 216.45 427.09 L 214.29 425.13 Z" transform="matrix(1, 0, 0, 1, 0, -2.842170943040401e-14)"/>
  <path fill="#ba852a" d=" M 192.47 422.99 L 176.04 441.57 A 1.46 1.44 -56.3 0 1 174.33 441.92 L 164.10 437.04 Q 163.58 436.79 163.94 436.34 L 170.68 427.91 A 0.54 0.54 0.0 0 1 171.63 428.11 L 172.70 432.16 Q 170.70 431.98 170.20 434.14 Q 170.08 434.65 170.48 434.98 Q 172.53 436.72 175.00 437.31 A 0.74 0.74 0.0 0 0 175.78 437.02 Q 182.65 427.39 192.47 422.99 Z" transform="matrix(1, 0, 0, 1, 0, -2.842170943040401e-14)"/>
  <path fill="#af7b28" d=" M 42.44 424.20 Q 42.27 444.02 42.44 450.50 Q 42.49 452.36 44.01 455.70 Q 43.34 456.78 46.27 457.71 Q 48.82 458.52 58.73 457.43 Q 58.75 457.43 58.74 457.40 Q 58.74 457.39 58.74 457.37 Q 58.74 457.32 58.69 457.33 Q 57.63 457.41 57.24 456.89 L 64.09 457.25 L 81.11 457.99 A 0.33 0.33 0.0 0 0 81.39 457.46 Q 81.23 457.24 81.39 456.93 L 81.48 443.81 Q 84.30 444.99 86.55 447.81 L 86.47 455.92 Q 86.46 456.47 87.01 456.47 L 89.63 456.48 A 0.63 0.62 -89.0 0 0 90.25 455.87 L 90.38 450.73 A 0.62 0.61 7.0 0 1 91.13 450.15 Q 92.04 450.35 92.94 450.20 Q 93.71 450.08 93.73 450.86 L 93.91 456.82 Q 92.99 457.25 94.32 457.79 Q 94.72 457.95 95.23 457.97 Q 100.99 458.14 106.95 457.01 Q 109.65 455.87 112.26 456.74 C 116.25 458.07 120.44 458.82 124.13 461.12 Q 124.76 461.51 124.02 461.54 C 110.54 462.22 93.78 461.70 83.76 461.78 Q 66.78 461.90 51.89 461.86 Q 45.49 461.84 42.83 460.38 C 38.27 457.89 37.03 454.24 36.97 448.93 Q 36.87 440.33 36.95 431.83 Q 37.76 430.98 37.99 429.42 Q 38.06 428.98 38.50 428.93 L 40.84 428.64 Q 41.31 428.59 41.53 428.17 Q 42.44 426.50 42.44 424.20 Z" transform="matrix(1, 0, 0, 1, 0, -2.842170943040401e-14)"/>
  <path fill="#e0b759" d=" M 201.65 438.75 L 192.98 446.73 C 192.19 443.38 191.59 438.52 194.38 436.24 Q 198.60 432.79 200.99 428.20 Q 201.71 426.81 201.48 428.36 Q 200.75 433.10 201.65 438.75 Z" transform="matrix(1, 0, 0, 1, 0, -2.842170943040401e-14)"/>
  <path fill="#efdaa3" d=" M 50.92 431.39 L 54.96 445.60 Q 54.07 447.49 56.53 447.91 Q 58.05 448.17 58.87 448.08 Q 59.66 447.98 59.63 448.78 L 59.53 451.10 Q 59.50 451.86 58.76 451.73 Q 53.24 450.76 52.55 445.62 C 52.29 443.70 52.15 442.04 51.39 440.24 Q 49.31 435.33 48.15 430.76 Q 47.63 428.71 49.27 430.05 L 50.92 431.39 Z" transform="matrix(1, 0, 0, 1, 0, -2.842170943040401e-14)"/>
  <path fill="#c89b3f" d=" M 209.06 429.48 L 214.66 437.45 Q 210.01 434.90 209.06 429.48 Z" transform="matrix(1, 0, 0, 1, 0, -2.842170943040401e-14)"/>
  <path fill="#af7b28" d=" M 68.67 445.33 Q 67.50 445.09 66.24 445.31 Q 65.42 445.45 65.68 444.66 Q 68.30 436.93 72.46 432.43 Q 75.61 429.01 74.26 433.46 Q 72.40 439.61 71.31 445.63 C 70.59 449.58 68.08 451.89 64.15 451.75 Q 63.25 451.71 63.14 450.82 L 62.92 449.04 Q 62.82 448.24 63.62 448.19 Q 65.26 448.09 67.34 447.98 Q 68.45 447.92 68.88 447.47 Q 69.42 446.91 69.30 446.01 Q 69.23 445.45 68.67 445.33 Z" transform="matrix(1, 0, 0, 1, 0, -2.842170943040401e-14)"/>
  <path fill="#d5a543" d=" M 50.92 431.39 Q 57.11 436.71 58.57 444.63 Q 58.65 445.10 58.18 445.16 L 54.96 445.60 L 50.92 431.39 Z" transform="matrix(1, 0, 0, 1, 0, -2.842170943040401e-14)"/>
  <path fill="#fcf4d3" d=" M 152.56 444.85 Q 147.75 445.82 144.49 448.62 Q 140.31 452.22 135.78 456.31 A 2.21 2.20 37.5 0 1 133.29 456.63 L 111.23 445.25 L 125.35 432.46 A 1.22 1.21 36.7 0 1 126.71 432.27 L 152.56 444.85 Z M 126.60 445.32 L 134.42 452.55 A 0.28 0.28 0.0 0 0 134.82 452.53 L 142.21 444.46 Q 132.41 439.67 129.01 439.27 C 125.51 438.85 123.98 441.57 123.00 444.37 A 0.79 0.79 0.0 0 0 123.78 445.42 L 126.60 445.32 Z" transform="matrix(1, 0, 0, 1, 0, -2.842170943040401e-14)"/>
  <path fill="#7c4710" d=" M 86.55 447.81 Q 84.30 444.99 81.48 443.81 Q 80.86 442.20 82.69 440.97 Q 84.23 439.93 84.30 438.00 Q 84.35 436.74 84.33 435.45 Q 84.33 434.91 84.74 435.27 Q 86.32 436.63 86.46 439.25 Q 86.76 444.71 86.55 447.81 Z" transform="matrix(1, 0, 0, 1, 0, -2.842170943040401e-14)"/>
  <path fill="#d5a543" d=" M 142.21 444.46 L 126.60 445.32 L 123.78 445.42 A 0.79 0.79 0.0 0 1 123.00 444.37 C 123.98 441.57 125.51 438.85 129.01 439.27 Q 132.41 439.67 142.21 444.46 Z" transform="matrix(1, 0, 0, 1, 0, -2.842170943040401e-14)"/>
  <path fill="#7c4710" d=" M 182.27 445.44 L 177.49 446.48 Q 179.00 443.53 181.64 440.93 Q 182.05 440.52 182.08 441.10 L 182.27 445.44 Z" transform="matrix(1, 0, 0, 1, 0, -2.842170943040401e-14)"/>
  <path fill="#af7b28" d=" M 195.63 447.50 L 202.70 440.65 A 0.35 0.35 0.0 0 1 203.18 440.65 L 210.25 447.50 A 0.35 0.35 0.0 0 1 210.00 448.10 L 195.88 448.10 A 0.35 0.35 0.0 0 1 195.63 447.50 Z" transform="matrix(1, 0, 0, 1, 0, -2.842170943040401e-14)"/>
  <path fill="#010000" d=" M 142.21 444.46 L 134.82 452.53 A 0.28 0.28 0.0 0 1 134.42 452.55 L 126.60 445.32 L 142.21 444.46 Z" transform="matrix(1, 0, 0, 1, 0, -2.842170943040401e-14)"/>
  <path fill="#af7b28" d=" M 152.56 444.85 L 135.09 461.13 A 1.49 1.49 0.0 0 1 133.36 461.34 L 109.45 448.15 Q 108.92 447.86 109.16 447.30 Q 109.74 445.96 111.23 445.25 L 133.29 456.63 A 2.21 2.20 37.5 0 0 135.78 456.31 Q 140.31 452.22 144.49 448.62 Q 147.75 445.82 152.56 444.85 Z" transform="matrix(1, 0, 0, 1, 0, -2.842170943040401e-14)"/>
  <path fill="#af7b28" d=" M 182.27 445.44 L 182.14 457.29 Q 199.86 458.65 217.48 457.71 L 218.68 459.21 A 0.04 0.04 0.0 0 0 218.75 459.18 Q 218.71 459.00 218.88 458.92 Q 219.01 458.85 219.14 458.94 Q 219.48 459.18 219.43 459.57 Q 219.36 460.09 219.88 460.10 Q 220.36 460.10 220.80 460.30 Q 218.83 461.71 217.25 461.71 Q 184.12 461.85 150.11 461.81 Q 149.17 460.63 153.46 456.99 Q 151.36 457.08 153.74 456.66 Q 153.64 456.94 153.59 457.08 A 0.74 0.73 10.2 0 0 154.28 458.07 L 170.37 458.01 A 0.94 0.94 0.0 0 0 171.30 456.96 Q 170.98 454.09 169.84 454.58 Q 169.54 452.88 170.01 450.83 Q 170.17 450.14 170.87 450.28 Q 172.34 450.57 173.35 449.50 Q 174.02 448.78 174.01 449.76 L 173.94 456.01 Q 173.93 456.58 174.51 456.57 L 176.98 456.53 Q 177.50 456.52 177.50 456.00 L 177.49 446.48 L 182.27 445.44 Z" transform="matrix(1, 0, 0, 1, 0, -2.842170943040401e-14)"/>
  <path fill="#a06610" d=" M 103.70 451.75 Q 105.26 452.44 103.55 452.35 L 97.71 452.02 Q 96.94 451.98 96.96 451.21 L 97.00 449.53 A 0.52 0.51 12.5 0 1 97.72 449.08 L 103.70 451.75 Z" transform="matrix(1, 0, 0, 1, 0, -2.842170943040401e-14)"/>
  <path fill="#a06610" d=" M 161.65 451.96 L 165.29 449.33 Q 166.17 448.69 166.18 449.78 L 166.19 450.90 Q 166.21 452.00 165.10 452.06 L 161.74 452.24 Q 161.22 452.27 161.65 451.96 Z" transform="matrix(1, 0, 0, 1, 0, -2.842170943040401e-14)"/>
  <path fill="#e5c375" d=" M 217.48 457.71 Q 199.86 458.65 182.14 457.29 Q 199.34 456.51 216.25 456.82 Q 219.05 456.87 220.91 452.58 Q 221.61 455.87 217.48 457.71 Z" transform="matrix(1, 0, 0, 1, 0, -2.842170943040401e-14)"/>
  <path fill="#c89b3f" d=" M 153.74 456.66 L 169.15 456.47 Q 169.71 456.46 169.75 455.90 L 169.84 454.58 Q 170.98 454.09 171.30 456.96 A 0.94 0.94 0.0 0 1 170.37 458.01 L 154.28 458.07 A 0.74 0.73 10.2 0 1 153.59 457.08 Q 153.64 456.94 153.74 456.66 Z" transform="matrix(1, 0, 0, 1, 0, -2.842170943040401e-14)"/>
  <path fill="#e5c375" d=" M 44.01 455.70 Q 49.43 457.85 57.24 456.89 Q 57.63 457.41 58.69 457.33 Q 58.74 457.32 58.74 457.37 Q 58.74 457.39 58.74 457.40 Q 58.75 457.43 58.73 457.43 Q 48.82 458.52 46.27 457.71 Q 43.34 456.78 44.01 455.70 Z" transform="matrix(1, 0, 0, 1, 0, -2.842170943040401e-14)"/>
  <path fill="#d8af62" d=" M 106.95 457.01 Q 100.99 458.14 95.23 457.97 Q 94.72 457.95 94.32 457.79 Q 92.99 457.25 93.91 456.82 Q 100.28 456.11 106.95 457.01 Z" transform="matrix(1, 0, 0, 1, 0, -2.842170943040401e-14)"/>
  <path fill="#e5c375" d=" M 81.39 456.93 Q 81.23 457.24 81.39 457.46 A 0.33 0.33 0.0 0 1 81.11 457.99 L 64.09 457.25 L 81.39 456.93 Z" transform="matrix(1, 0, 0, 1, 0, -2.842170943040401e-14)"/>
  <path fill="#a06610" d=" M 153.46 456.99 Q 149.17 460.63 150.11 461.81 L 140.80 461.59 Q 140.00 461.57 140.57 461.02 Q 142.21 459.42 143.98 458.09 C 146.22 456.41 150.37 456.97 153.46 456.99 Z" transform="matrix(1, 0, 0, 1, 0, -2.842170943040401e-14)"/>
</svg>