<?xml version="1.0" encoding="utf-8"?>
<svg viewBox="269.262 23.938 221.704 217.281" xmlns="http://www.w3.org/2000/svg">
  <path fill="#efdaa3" d=" M 489.13 57.46 Q 489.00 57.59 488.94 57.78 Q 488.73 58.53 488.81 57.76 Q 488.84 57.51 488.51 57.34 A 0.56 0.56 0.0 0 0 487.75 57.61 L 487.56 58.00 Q 487.36 58.43 486.90 58.33 Q 486.08 58.15 485.24 58.37 Q 484.50 58.57 483.96 57.96 C 484.02 54.31 484.33 50.47 483.32 47.05 C 481.16 39.67 473.94 31.54 465.50 31.54 Q 382.90 31.52 296.36 31.49 C 291.34 31.48 286.07 33.25 282.62 36.86 Q 278.39 41.28 276.35 48.67 Q 275.35 48.84 273.77 48.06 Q 272.86 47.61 272.79 46.95 Q 272.77 46.71 272.60 46.54 Q 272.13 46.05 271.91 45.01 Q 273.83 38.95 277.15 35.40 Q 281.59 30.66 288.64 28.20 Q 292.85 26.74 301.74 26.87 Q 318.51 27.13 336.25 27.15 Q 401.05 27.26 466.63 27.25 C 470.85 27.24 474.77 29.35 478.03 31.38 Q 480.87 33.15 482.61 34.98 C 488.68 41.39 489.31 48.68 489.13 57.46 Z" transform="matrix(1, 0, 0, 1, 0, -1.4210854715202004e-14)"/>
  <path fill="#010000" d=" M 483.96 57.96 L 484.00 114.95 L 483.99 205.20 C 483.88 209.56 484.30 214.86 483.51 218.57 C 481.71 227.09 473.57 234.82 464.75 234.81 Q 379.95 234.77 298.68 234.79 Q 292.20 234.79 289.42 233.90 C 283.44 231.99 279.37 226.89 277.31 221.32 Q 276.19 218.30 276.20 213.12 Q 276.28 167.04 276.21 120.96 L 276.35 48.67 Q 278.39 41.28 282.62 36.86 C 286.07 33.25 291.34 31.48 296.36 31.49 Q 382.90 31.52 465.50 31.54 C 473.94 31.54 481.16 39.67 483.32 47.05 C 484.33 50.47 484.02 54.31 483.96 57.96 Z M 284.84 51.43 Q 285.12 51.32 284.91 51.63 A 0.57 0.53 63.0 0 0 284.83 51.92 L 284.87 211.25 Q 283.63 218.08 288.73 222.51 Q 292.40 225.70 296.25 225.70 Q 333.34 225.75 372.50 225.76 Q 374.95 225.76 377.44 225.45 Q 377.99 225.38 377.73 224.90 L 375.19 220.02 Q 324.47 219.89 296.50 220.17 Q 293.29 220.20 291.40 218.26 Q 290.32 216.09 290.30 214.00 Q 289.97 173.48 290.61 136.00 Q 290.64 134.29 290.82 132.57 Q 290.89 131.98 291.34 132.35 L 291.81 132.74 Q 292.24 135.40 293.75 138.14 L 295.29 147.18 Q 295.55 148.70 295.74 147.17 C 296.03 144.78 297.15 142.45 297.19 140.05 Q 297.45 126.81 297.44 114.25 Q 297.43 101.18 301.28 88.77 L 301.77 105.35 Q 301.79 105.85 302.14 106.19 Q 303.05 107.06 305.07 108.39 C 309.04 111.02 312.75 117.33 315.67 122.16 Q 316.55 123.61 316.44 121.91 C 316.05 115.85 313.35 104.19 307.18 101.21 Q 304.14 99.74 307.49 99.28 C 310.11 98.91 313.36 102.85 314.45 104.79 Q 316.77 108.89 318.15 113.38 Q 318.62 114.89 318.94 113.34 Q 319.56 110.40 320.54 107.41 C 321.30 105.11 320.06 103.38 321.03 100.93 Q 322.62 96.90 324.92 93.29 Q 325.18 92.89 324.70 92.88 Q 318.42 92.83 313.57 96.33 Q 313.13 96.66 312.79 96.23 Q 312.59 95.98 312.52 95.55 C 313.92 94.43 315.07 93.37 316.06 91.77 C 317.99 88.64 320.34 85.85 322.41 82.86 C 327.92 74.87 335.63 70.09 342.73 64.17 Q 352.68 57.32 364.60 52.43 L 378.81 47.37 Q 379.29 47.20 379.69 47.50 Q 380.58 48.16 381.11 49.26 A 0.76 0.75 58.1 0 0 382.25 49.53 L 383.69 48.42 Q 384.08 48.12 384.57 48.21 Q 391.99 49.57 399.39 53.65 Q 404.34 56.38 409.79 62.93 Q 414.49 68.58 418.04 74.83 Q 423.46 84.35 424.81 99.51 Q 424.89 100.36 424.33 100.85 Q 413.82 110.04 406.75 116.01 Q 402.79 119.35 398.89 122.60 Q 394.18 126.53 391.37 132.86 Q 390.62 138.78 390.86 140.90 Q 391.60 147.42 397.39 150.26 Q 398.75 150.93 398.08 149.56 Q 396.42 146.21 395.22 142.22 Q 394.99 141.45 395.57 142.00 Q 398.73 145.02 400.43 149.12 Q 402.77 154.79 405.61 160.54 Q 405.84 161.00 406.28 160.74 Q 407.46 160.05 407.75 158.39 Q 410.11 154.33 414.05 151.68 L 418.57 151.00 Q 419.30 150.89 418.93 150.26 L 415.60 144.62 Q 415.29 144.10 414.69 144.01 Q 412.25 143.68 410.47 144.31 Q 407.13 144.91 405.53 146.58 L 403.72 147.95 Q 403.24 148.31 403.13 147.73 Q 403.04 147.23 403.93 146.32 Q 404.60 145.80 405.43 144.44 Q 406.50 142.70 409.57 141.89 L 413.77 141.85 A 0.33 0.32 79.4 0 0 414.07 141.40 Q 411.38 134.55 404.05 130.30 A 0.32 0.32 0.0 0 1 403.94 129.84 C 404.41 129.19 404.96 128.87 405.45 128.16 Q 409.91 121.66 415.85 116.61 C 420.57 112.59 424.89 108.41 429.28 104.20 Q 429.64 103.85 429.66 103.35 L 429.85 96.85 L 433.79 96.57 Q 434.30 96.53 434.14 96.04 Q 430.36 84.04 426.29 76.25 Q 424.99 73.76 421.12 69.49 Q 421.51 68.53 423.03 70.18 C 424.55 71.38 425.86 72.38 427.01 73.89 C 435.19 84.69 443.20 97.68 446.43 110.63 Q 446.69 111.68 446.52 112.70 Q 446.37 113.64 445.71 112.95 C 442.82 109.90 438.76 106.36 434.34 106.22 A 1.73 1.73 0.0 0 0 432.76 108.77 Q 435.13 113.17 438.74 117.26 Q 438.93 117.49 438.74 117.71 Q 438.48 117.99 438.16 117.78 C 435.06 115.84 429.99 112.10 426.29 114.78 Q 425.78 115.14 426.05 115.70 L 431.00 125.80 Q 432.45 128.76 430.05 126.49 C 426.48 123.11 423.43 118.54 418.22 123.04 A 0.44 0.43 27.6 0 0 418.46 123.80 C 426.16 124.66 429.81 129.18 432.39 136.04 Q 432.77 137.06 433.08 136.01 C 434.73 130.30 438.59 119.50 445.29 118.06 Q 446.36 117.83 447.30 117.44 Q 447.73 117.25 447.82 116.80 Q 450.08 105.43 459.66 100.39 Q 460.20 100.11 459.84 99.62 L 454.10 91.78 L 455.66 85.17 Q 452.29 81.72 448.71 78.08 Q 445.19 74.49 441.50 71.89 Q 433.81 66.46 426.98 61.83 Q 419.56 56.80 412.33 53.92 Q 401.50 49.61 389.74 45.87 Q 388.34 45.42 389.81 45.42 Q 426.35 45.49 463.49 45.30 Q 467.16 45.28 468.93 49.09 L 469.13 127.90 L 469.10 215.32 Q 468.48 220.70 463.49 220.73 Q 455.98 220.77 448.45 220.76 Q 445.70 220.75 438.07 220.33 Q 432.73 220.03 427.66 220.30 Q 406.54 219.69 385.87 220.11 Q 385.54 220.11 385.39 220.25 Q 385.19 220.43 385.15 220.74 L 383.06 225.09 A 0.44 0.43 -77.4 0 0 383.45 225.71 Q 421.82 225.79 460.29 225.79 Q 465.69 225.79 467.81 224.72 Q 471.95 222.64 473.73 218.64 Q 474.63 216.62 474.70 212.00 Q 474.96 193.02 474.69 174.04 L 474.74 108.53 L 474.75 51.03 C 473.94 45.92 469.80 40.05 464.00 40.05 Q 382.69 40.01 301.39 40.00 Q 294.78 40.00 291.85 41.45 Q 286.20 44.25 284.84 51.43 Z M 420.58 54.40 Q 424.17 55.23 427.76 54.60 Q 445.23 54.88 452.25 54.88 Q 454.26 54.88 458.49 54.50 Q 458.35 71.20 458.33 88.00 Q 458.33 89.94 459.95 89.86 Q 460.50 90.49 461.69 90.98 Q 462.17 91.17 462.21 90.66 C 462.97 78.99 462.64 67.07 462.49 51.57 Q 462.49 51.25 462.17 51.24 L 461.86 51.23 Q 445.93 51.24 430.14 51.16 Q 427.24 51.15 424.47 51.96 Q 421.49 52.83 418.72 53.65 Q 418.02 53.86 418.57 54.34 Q 419.14 54.83 420.58 54.40 Z M 332.15 108.95 L 333.57 110.48 Q 333.95 110.89 334.52 110.87 Q 336.63 110.80 338.30 111.93 A 0.40 0.39 -72.5 0 0 338.91 111.61 Q 338.97 109.99 340.12 108.64 Q 340.44 108.27 340.80 108.61 L 343.14 110.89 Q 343.52 111.26 343.60 110.74 L 344.48 104.79 L 346.14 104.84 Q 346.73 104.86 346.77 104.28 Q 346.83 103.43 346.11 102.31 Q 346.46 101.68 346.97 101.52 Q 347.38 101.40 347.97 101.78 Q 348.64 102.20 349.05 102.42 Q 350.86 103.37 350.16 101.45 L 349.74 100.31 Q 349.55 99.81 349.91 99.42 Q 351.17 98.01 352.87 97.67 Q 353.36 97.57 353.73 97.23 Q 356.52 94.69 360.23 93.20 Q 360.72 93.01 361.00 93.44 Q 361.31 93.90 361.34 94.51 Q 360.75 95.51 359.64 96.44 Q 359.26 96.76 359.43 97.23 Q 360.24 99.42 360.22 101.81 Q 360.22 102.43 359.63 102.26 Q 359.26 102.16 358.93 101.96 Q 357.00 100.80 358.04 102.80 C 358.44 103.57 359.44 104.19 359.61 104.94 Q 359.74 105.52 359.44 105.93 Q 359.13 106.35 358.64 106.16 Q 357.80 105.84 356.99 105.45 Q 356.60 105.27 356.25 105.44 Q 355.78 105.66 356.10 106.07 L 358.26 108.91 Q 358.27 110.71 357.78 110.72 Q 356.56 109.34 354.82 109.22 Q 354.29 109.19 354.61 109.61 Q 355.62 110.93 356.41 112.29 Q 357.49 114.15 355.51 113.31 Q 354.94 113.07 354.33 112.95 Q 352.85 112.64 353.86 113.77 L 355.06 115.11 Q 353.34 115.63 351.80 115.31 Q 350.88 115.11 351.18 116.01 L 351.41 116.71 Q 351.73 117.64 352.71 117.66 L 359.79 117.81 A 0.99 0.99 0.0 0 0 360.78 116.96 Q 361.71 110.03 364.60 103.69 C 365.48 101.75 366.94 100.29 368.25 98.55 Q 369.11 98.43 369.44 98.11 Q 369.76 97.79 369.43 97.48 Q 368.95 97.02 367.99 97.72 L 365.85 98.32 Q 365.36 98.46 365.12 98.01 Q 364.83 97.47 365.37 97.16 Q 366.82 96.33 368.31 95.32 Q 369.52 94.51 371.40 93.95 Q 375.13 92.85 377.54 89.76 L 380.57 87.66 Q 381.19 87.22 380.47 87.45 L 365.30 92.24 Q 365.05 92.05 364.96 91.84 Q 364.74 91.33 365.27 91.16 Q 370.68 89.38 374.36 87.10 Q 375.66 86.29 375.29 84.36 Q 376.13 83.98 376.13 83.73 Q 376.15 82.75 375.24 83.12 Q 369.96 85.26 364.77 86.70 Q 364.66 86.65 364.53 86.63 Q 364.37 86.61 364.34 86.45 Q 364.27 85.98 364.62 85.85 Q 368.37 84.46 372.04 82.87 Q 373.48 82.25 375.05 81.90 Q 377.36 81.39 378.11 81.10 Q 380.66 80.11 380.83 78.27 Q 382.14 77.57 382.80 77.06 Q 385.44 75.01 382.31 76.18 Q 373.50 79.47 363.01 82.26 Q 362.80 82.29 362.65 82.27 Q 362.17 82.19 362.46 81.80 L 367.19 75.34 Q 368.44 75.34 368.46 76.77 Q 368.48 77.78 368.32 78.70 Q 368.23 79.26 368.79 79.20 Q 369.61 79.12 370.04 78.73 Q 375.89 73.30 378.60 64.94 Q 380.20 60.76 380.84 55.40 Q 381.00 53.97 380.31 55.23 Q 377.01 61.19 371.43 67.03 C 365.82 72.89 357.40 77.26 350.38 81.85 Q 349.55 82.39 349.95 81.48 Q 351.28 78.48 353.76 76.78 Q 357.01 74.57 361.11 72.32 A 5.20 5.18 86.9 0 0 363.42 69.74 Q 365.28 65.25 366.20 60.55 Q 366.44 59.32 365.75 60.36 C 362.31 65.57 359.34 69.74 354.05 72.41 C 348.38 75.28 344.45 82.12 342.90 87.73 Q 342.77 88.19 342.32 88.35 Q 341.38 88.69 340.32 88.91 Q 339.09 89.16 338.96 90.23 Q 338.90 90.74 339.35 90.99 Q 339.78 91.23 339.92 91.66 Q 340.07 92.15 339.77 92.56 Q 338.01 95.00 336.49 97.81 Q 334.79 100.97 330.72 106.66 Q 330.45 107.04 330.69 107.46 Q 331.10 108.16 332.15 108.95 Z M 425.71 56.69 A 0.45 0.45 0.0 0 0 425.48 57.53 L 431.54 60.95 A 0.45 0.45 0.0 0 0 431.76 61.01 L 444.28 60.96 A 0.45 0.45 0.0 0 0 444.73 60.49 L 444.58 57.21 A 0.45 0.45 0.0 0 0 444.13 56.78 L 425.71 56.69 Z M 450.2370 65.8096 A 2.89 2.76 116.8 0 0 454.0035 64.4744 A 2.89 2.76 116.8 0 0 452.8430 60.6504 A 2.89 2.76 116.8 0 0 449.0765 61.9856 A 2.89 2.76 116.8 0 0 450.2370 65.8096 Z M 379.37 70.22 L 377.65 74.39 Q 377.45 74.88 377.96 74.77 L 386.97 72.77 A 0.92 0.91 -83.9 0 1 388.00 74.05 Q 385.82 78.74 383.07 82.58 Q 382.72 83.08 383.27 83.33 C 386.02 84.57 389.09 90.49 390.30 93.26 Q 391.82 96.75 392.52 102.30 C 393.13 107.25 394.04 112.16 393.14 116.99 Q 392.22 121.99 391.35 126.73 Q 391.20 127.55 391.73 126.91 Q 397.72 119.60 405.56 114.77 Q 407.09 113.85 407.06 113.00 Q 406.81 106.04 406.36 99.20 A 0.24 0.24 0.0 0 1 406.75 98.99 L 409.64 101.34 Q 410.27 101.86 410.00 101.09 C 409.36 99.25 409.12 97.32 408.37 95.44 Q 406.81 91.52 405.38 87.27 Q 405.06 86.34 405.76 87.03 L 407.13 88.38 Q 407.86 89.11 407.58 88.12 Q 406.47 84.15 403.43 80.24 Q 402.86 79.50 403.55 78.90 Q 403.98 78.53 403.50 78.21 L 398.82 75.16 A 0.45 0.45 0.0 0 1 398.88 74.37 Q 399.56 74.07 399.97 73.42 Q 400.25 72.99 399.76 72.83 L 392.50 70.41 A 0.37 0.36 32.2 0 1 392.36 69.80 L 395.48 66.75 Q 396.24 66.02 395.20 66.21 Q 391.02 66.99 386.77 66.98 Q 385.81 66.98 386.51 66.32 Q 388.82 64.17 390.68 62.00 Q 391.74 60.76 390.27 61.45 L 381.53 65.56 Q 381.04 65.79 380.84 66.30 L 379.37 70.22 Z M 450.28 74.74 C 447.99 71.58 445.50 68.36 443.54 65.14 Q 442.58 63.55 440.74 63.77 L 439.89 63.86 A 1.19 1.18 76.1 0 0 438.93 65.46 Q 439.74 67.61 441.44 68.78 Q 445.92 71.88 450.12 74.90 Q 450.68 75.30 450.28 74.74 Z M 366.3076 68.1481 A 2.49 0.36 127.4 0 0 368.1060 66.3887 A 2.49 0.36 127.4 0 0 369.3324 64.1919 A 2.49 0.36 127.4 0 0 367.5340 65.9513 A 2.49 0.36 127.4 0 0 366.3076 68.1481 Z M 410.55 70.82 A 1.29 1.29 0.0 0 0 409.26 69.53 A 1.29 1.29 0.0 0 0 407.97 70.82 A 1.29 1.29 0.0 0 0 409.26 72.11 A 1.29 1.29 0.0 0 0 410.55 70.82 Z M 339.80 76.50 A 1.24 1.24 0.0 0 0 338.56 75.26 A 1.24 1.24 0.0 0 0 337.32 76.50 A 1.24 1.24 0.0 0 0 338.56 77.74 A 1.24 1.24 0.0 0 0 339.80 76.50 Z M 379.74 92.75 A 0.56 0.56 0.0 0 0 379.86 93.68 L 382.60 95.03 A 0.56 0.56 0.0 0 0 383.08 95.04 L 386.60 93.47 A 0.56 0.56 0.0 0 0 386.88 92.74 L 385.29 89.00 A 0.56 0.56 0.0 0 0 384.41 88.79 L 379.74 92.75 Z M 417.83 90.86 A 1.21 1.21 0.0 0 0 416.62 89.65 A 1.21 1.21 0.0 0 0 415.41 90.86 A 1.21 1.21 0.0 0 0 416.62 92.07 A 1.21 1.21 0.0 0 0 417.83 90.86 Z M 464.60 98.63 L 463.88 93.36 A 0.18 0.18 0.0 0 0 463.68 93.20 L 463.62 93.21 A 2.67 1.22 82.2 0 0 462.77 96.02 L 462.82 96.36 A 2.67 1.22 82.2 0 0 464.39 98.84 L 464.45 98.83 A 0.18 0.18 0.0 0 0 464.60 98.63 Z M 386.90 95.65 L 381.49 97.24 Q 381.02 97.38 381.16 97.86 L 383.05 104.02 Q 383.08 104.32 383.30 104.53 Q 383.76 104.98 384.34 104.70 L 389.23 102.34 A 0.89 0.88 76.2 0 0 389.73 101.51 Q 389.57 97.89 388.42 94.72 Q 387.87 93.19 387.61 94.79 Q 387.53 95.31 386.90 95.65 Z M 329.2774 97.1873 A 1.11 0.91 86.0 0 0 330.1078 96.0165 A 1.11 0.91 86.0 0 0 329.1226 94.9727 A 1.11 0.91 86.0 0 0 328.2922 96.1435 A 1.11 0.91 86.0 0 0 329.2774 97.1873 Z M 387.28 104.78 Q 384.18 106.52 381.93 105.16 Q 381.26 104.75 380.99 105.49 L 379.84 108.64 Q 379.62 109.25 379.96 109.80 Q 382.62 114.24 385.92 113.82 L 390.11 112.31 Q 390.58 112.14 390.55 111.63 L 390.08 104.61 Q 390.04 104.08 389.51 104.11 Q 388.10 104.18 387.28 104.78 Z M 373.75 108.66 A 1.24 1.24 0.0 0 0 372.51 107.42 A 1.24 1.24 0.0 0 0 371.27 108.66 A 1.24 1.24 0.0 0 0 372.51 109.90 A 1.24 1.24 0.0 0 0 373.75 108.66 Z M 378.45 126.35 L 388.16 123.36 A 2.05 2.05 0.0 0 0 389.57 121.73 L 390.64 114.86 Q 390.73 114.28 390.15 114.32 Q 389.17 114.37 388.26 114.73 L 383.79 115.52 A 1.36 1.30 -35.3 0 1 382.91 115.39 Q 380.47 114.08 378.77 111.77 Q 378.39 111.25 378.05 111.80 L 372.83 120.27 A 0.97 0.97 0.0 0 0 372.90 121.40 Q 375.90 125.16 378.45 126.35 Z M 457.9301 115.3750 A 1.22 1.04 7.3 0 0 456.8521 114.1884 A 1.22 1.04 7.3 0 0 455.5099 115.0650 A 1.22 1.04 7.3 0 0 456.5879 116.2516 A 1.22 1.04 7.3 0 0 457.9301 115.3750 Z M 330.98 123.31 C 331.97 123.64 332.00 124.12 332.41 124.95 Q 332.74 125.60 333.12 124.98 Q 333.88 123.72 335.15 122.98 A 0.73 0.73 0.0 0 0 335.13 121.71 Q 333.91 121.04 333.28 119.73 Q 332.81 118.77 332.44 119.76 Q 332.02 120.87 330.82 121.54 Q 328.90 122.63 330.98 123.31 Z M 363.93 140.58 C 364.10 133.75 366.60 127.98 369.38 121.84 Q 369.84 120.82 369.00 121.55 Q 365.88 124.25 364.60 127.41 Q 362.00 133.77 363.17 140.63 Q 363.83 144.46 363.93 140.58 Z M 382.51 133.08 L 386.78 132.34 Q 387.31 132.25 387.41 131.72 L 388.49 126.00 Q 388.59 125.45 388.05 125.59 L 384.78 126.42 L 377.61 128.25 Q 377.06 128.39 376.64 128.02 L 371.55 123.57 A 0.17 0.16 -57.8 0 0 371.29 123.63 Q 370.06 126.59 369.04 129.61 A 0.30 0.29 35.2 0 0 369.09 129.87 Q 371.49 132.77 373.92 133.78 C 376.11 134.69 380.16 133.58 382.51 133.08 Z M 439.91 136.38 C 445.07 140.18 446.89 142.62 448.01 148.57 Q 448.07 148.89 448.39 148.98 Q 448.56 149.03 448.70 148.90 Q 448.93 148.68 448.99 148.39 Q 450.15 142.94 451.98 140.48 Q 452.66 139.55 455.69 137.03 Q 456.39 136.93 456.61 136.61 Q 456.94 136.14 456.40 135.95 C 451.70 134.31 450.08 130.65 448.85 126.20 Q 448.33 124.33 447.89 126.23 Q 447.61 127.45 446.96 129.50 Q 445.49 134.12 439.91 136.38 Z M 311.50 134.18 Q 310.92 134.65 311.51 135.28 Q 311.85 135.63 312.16 136.01 C 314.82 139.29 317.58 137.97 320.85 136.89 A 1.04 1.04 0.0 0 1 322.22 137.87 Q 322.24 141.56 324.59 143.97 Q 324.95 144.35 325.42 144.11 C 327.11 143.25 328.92 141.28 331.20 142.48 Q 333.34 143.74 333.33 145.06 Q 330.61 144.29 327.39 145.95 Q 324.67 147.08 323.97 150.55 Q 323.46 153.04 323.46 155.78 Q 323.46 157.93 325.61 157.99 L 329.71 158.09 A 2.29 2.28 4.6 0 0 332.03 156.12 Q 332.75 150.92 337.40 148.57 A 0.42 0.41 -23.5 0 1 337.97 148.79 L 338.86 151.11 Q 339.05 151.62 339.57 151.44 Q 342.95 150.28 344.17 147.15 Q 345.96 142.58 343.88 139.14 Q 343.57 138.56 343.63 138.17 Q 343.72 137.61 344.28 137.66 Q 346.12 137.81 347.08 140.26 L 347.50 144.26 A 0.90 0.90 0.0 0 0 348.63 145.04 Q 353.92 143.65 353.37 137.50 Q 353.34 135.13 351.14 132.53 Q 354.94 133.11 356.10 137.55 L 355.14 143.71 A 0.18 0.18 0.0 0 0 355.35 143.92 L 360.15 143.32 Q 360.41 143.29 360.40 143.03 L 360.17 136.82 Q 360.51 131.71 362.39 127.61 Q 362.60 127.16 362.13 127.30 C 356.03 129.15 349.64 131.05 343.95 133.59 Q 340.02 135.34 335.90 136.92 Q 335.41 137.11 334.90 136.97 Q 330.91 135.81 326.61 135.43 Q 326.11 135.39 325.80 134.99 L 322.54 130.72 Q 321.70 129.61 320.34 129.95 L 317.47 130.68 A 1.06 1.05 -32.1 0 1 316.54 130.47 Q 315.50 129.65 314.45 128.88 C 311.41 126.70 305.64 129.61 303.10 131.77 Q 302.31 132.44 303.33 132.27 Q 307.69 131.53 312.43 131.44 Q 312.79 131.43 313.08 131.63 Q 313.43 131.87 313.42 132.31 Q 313.40 132.66 312.88 133.05 Q 312.15 133.58 311.50 134.18 Z M 462.8251 133.6125 A 1.33 1.09 99.3 0 0 464.1157 132.4761 A 1.33 1.09 99.3 0 0 463.2549 130.9875 A 1.33 1.09 99.3 0 0 461.9643 132.1239 A 1.33 1.09 99.3 0 0 462.8251 133.6125 Z M 370.06 145.20 L 376.07 147.26 Q 376.58 147.44 377.07 147.21 L 386.44 142.84 Q 386.86 142.64 386.87 142.18 L 386.90 135.64 Q 386.91 135.02 386.29 135.07 L 380.12 135.60 Q 377.29 135.64 375.25 135.87 C 372.29 136.22 370.69 134.48 368.72 132.75 A 0.57 0.57 0.0 0 0 367.81 132.96 Q 366.59 135.93 366.29 139.25 Q 365.88 143.73 370.06 145.20 Z M 302.85 143.68 Q 303.78 144.80 303.79 146.37 Q 303.79 146.90 304.32 146.88 Q 304.80 146.86 305.13 146.51 Q 305.49 146.13 306.01 146.16 C 308.67 146.33 310.84 147.64 313.25 145.41 Q 313.64 145.05 313.64 144.52 Q 313.68 141.50 311.02 140.87 Q 306.83 137.28 302.35 140.32 Q 298.09 143.21 297.20 147.64 Q 297.09 148.15 297.45 147.77 Q 299.77 145.27 302.85 143.68 Z M 371.98 154.38 Q 375.04 156.27 378.70 156.76 Q 381.65 156.92 383.28 156.02 Q 387.27 153.81 391.39 151.77 Q 391.85 151.54 391.63 151.08 Q 391.24 150.25 390.49 149.79 L 388.38 145.98 A 0.89 0.89 0.0 0 0 387.28 145.59 L 377.47 149.44 Q 376.98 149.63 376.47 149.49 L 370.09 147.74 L 366.72 145.56 Q 366.27 145.27 366.30 145.80 C 366.47 149.70 367.67 153.24 371.98 154.38 Z M 314.88 152.16 A 0.65 0.64 -35.5 0 1 315.73 152.30 Q 317.17 154.08 318.42 152.59 Q 319.66 151.10 320.89 149.38 A 1.74 1.74 0.0 0 0 320.84 147.30 C 319.56 145.68 316.99 146.07 315.50 147.22 Q 313.89 148.46 311.65 148.97 C 306.21 150.20 308.67 156.64 310.21 159.76 A 0.29 0.29 0.0 0 0 310.76 159.64 Q 310.91 154.69 314.88 152.16 Z M 428.52 158.45 C 429.31 155.89 430.71 156.52 432.46 155.32 A 0.47 0.47 0.0 0 0 432.49 154.58 Q 427.71 150.60 422.72 149.48 Q 420.87 149.06 422.11 150.50 Q 425.33 154.23 427.97 158.52 A 0.30 0.30 0.0 0 0 428.52 158.45 Z M 462.87 158.87 Q 464.06 160.43 463.56 158.53 L 461.56 150.88 Q 461.06 149.00 460.35 150.81 Q 459.40 153.22 457.34 154.21 A 0.38 0.38 0.0 0 0 457.37 154.90 Q 460.87 156.22 462.87 158.87 Z M 355.59 169.90 L 357.10 176.63 Q 357.21 177.09 357.56 176.78 C 359.49 175.09 361.35 173.83 362.35 171.28 Q 362.95 169.74 363.74 168.03 Q 365.27 170.76 364.08 174.80 A 0.09 0.08 -4.8 0 0 364.20 174.90 Q 368.13 172.94 371.94 170.79 Q 372.16 170.67 372.17 170.42 Q 372.45 163.15 369.17 159.02 L 366.38 156.04 L 364.58 152.75 Q 364.33 152.29 363.84 152.48 Q 354.45 156.03 349.13 163.44 Q 348.79 163.91 349.32 164.15 Q 353.15 165.85 355.59 169.90 Z M 415.29 153.87 Q 412.01 155.44 410.18 159.31 Q 409.97 159.77 410.44 159.96 C 413.86 161.39 416.80 162.13 419.23 165.17 Q 419.72 165.77 420.17 165.14 L 421.66 163.06 Q 422.07 162.48 421.45 162.13 C 419.86 161.25 417.86 161.07 416.08 160.95 Q 415.15 160.88 415.96 160.42 Q 417.41 159.61 419.39 159.53 Q 421.98 161.99 425.98 162.14 A 0.89 0.89 0.0 0 0 426.80 160.84 Q 425.03 157.38 422.11 154.65 Q 419.52 152.24 415.29 153.87 Z M 400.81 166.65 A 0.57 0.57 0.0 0 0 401.84 166.48 L 402.43 164.17 A 0.57 0.57 0.0 0 0 402.42 163.85 L 399.71 155.53 A 0.57 0.57 0.0 0 0 398.84 155.24 L 395.60 157.46 A 0.57 0.57 0.0 0 0 395.45 158.23 L 400.81 166.65 Z M 377.05 162.29 Q 377.62 163.15 378.53 163.72 Q 378.97 163.99 379.43 163.77 Q 382.24 162.46 383.33 159.49 Q 383.50 159.03 383.02 159.13 L 378.79 160.04 L 370.48 155.96 Q 369.89 155.67 370.32 156.17 Q 373.23 159.57 377.05 162.29 Z M 304.51 156.41 Q 303.76 156.38 303.29 156.76 Q 302.94 157.05 302.81 157.82 C 301.94 163.37 298.62 166.00 295.77 169.66 Q 295.38 170.16 296.01 170.20 Q 296.37 170.22 296.85 169.96 L 303.29 170.07 A 1.53 1.53 0.0 0 0 304.85 168.59 Q 305.04 163.59 305.42 158.97 Q 305.48 158.24 305.22 157.61 Q 304.79 156.56 304.51 156.41 Z M 443.34 160.33 L 446.76 166.86 Q 447.02 167.36 447.38 166.92 L 448.97 164.98 Q 451.28 164.51 454.59 166.16 L 458.92 168.65 Q 459.39 168.93 459.29 168.39 Q 458.42 163.81 455.88 160.37 C 453.56 157.45 449.60 155.22 446.12 157.48 Q 444.09 158.80 443.34 160.33 Z M 433.30 176.99 Q 434.95 171.24 430.46 167.94 Q 430.05 167.64 430.05 167.13 L 430.06 166.52 Q 431.72 166.12 433.11 166.75 C 437.89 169.29 438.14 172.86 439.94 177.23 A 0.59 0.59 0.0 0 0 441.02 177.26 Q 445.09 168.72 441.39 161.51 Q 437.89 157.66 433.12 157.56 Q 432.46 157.55 432.02 158.04 Q 428.24 162.35 427.31 165.66 Q 426.57 168.25 425.46 170.75 A 1.02 1.02 0.0 0 0 426.10 172.14 Q 430.82 173.52 432.66 178.13 Q 432.92 178.78 433.18 178.13 Q 433.33 177.77 433.30 176.99 Z M 317.23 165.45 Q 321.02 168.59 325.57 167.65 A 1.37 1.35 13.0 0 0 326.38 167.15 C 327.87 165.26 329.61 159.95 325.07 160.26 Q 324.12 159.82 323.32 160.09 A 1.06 1.06 0.0 0 0 322.63 160.88 C 322.01 164.21 319.34 163.82 316.67 164.06 Q 314.92 164.21 316.46 165.04 L 317.23 165.45 Z M 409.25 170.41 Q 411.23 172.60 412.42 176.27 Q 412.42 176.29 412.45 176.29 Q 412.60 176.29 412.75 176.28 Q 412.99 176.26 412.98 176.02 Q 412.81 171.72 414.15 168.63 Q 415.02 166.60 414.88 168.80 Q 414.79 170.12 414.93 171.92 Q 415.17 175.02 416.59 172.26 Q 418.48 168.58 415.14 164.67 Q 412.19 161.30 408.01 161.68 A 2.05 2.02 -74.9 0 0 406.55 162.53 Q 404.79 165.05 403.18 167.42 C 401.30 170.17 401.35 172.18 402.21 175.19 Q 402.62 176.60 402.84 175.14 Q 403.40 171.47 406.78 169.93 Q 407.60 169.56 409.25 170.41 Z M 425.28 165.94 A 0.99 0.98 20.8 0 0 424.76 164.79 Q 424.24 164.55 423.57 164.76 C 421.11 165.52 419.33 171.45 419.17 173.60 Q 418.78 178.97 421.01 174.07 C 422.22 171.41 424.48 168.87 425.28 165.94 Z M 323.46 175.09 L 330.17 182.51 Q 330.53 182.91 330.90 182.52 L 331.95 181.41 Q 332.32 181.02 332.87 181.02 Q 335.56 181.01 338.27 180.96 A 1.66 1.65 -84.2 0 1 339.91 182.98 Q 339.86 183.18 339.23 183.32 Q 335.61 183.28 332.94 185.88 A 0.72 0.72 0.0 0 0 333.12 187.04 Q 333.41 187.19 333.56 187.04 L 338.50 191.11 Q 338.86 191.41 339.22 191.11 L 343.16 187.85 A 0.50 0.49 -23.8 0 1 343.96 188.16 L 344.44 191.26 Q 344.55 191.92 345.20 191.78 Q 349.52 190.85 350.49 187.91 Q 351.49 184.91 350.96 181.11 C 350.63 178.74 348.53 177.32 346.80 175.83 Q 346.38 175.47 346.82 175.15 Q 347.63 174.55 348.63 175.07 Q 351.70 176.67 353.75 178.53 Q 354.24 178.97 354.22 178.31 C 354.15 174.90 353.64 169.77 350.75 167.76 Q 349.67 166.12 348.12 165.86 Q 347.59 165.77 347.27 166.19 Q 344.33 169.94 342.44 173.89 A 1.59 1.58 -75.5 0 1 340.92 174.79 L 337.10 174.61 A 1.89 1.86 -60.2 0 0 335.96 174.93 C 332.68 177.15 331.21 173.34 328.05 173.07 Q 325.47 172.85 323.16 174.18 A 0.40 0.39 71.7 0 0 322.97 174.57 Q 323.01 175.01 323.46 175.09 Z M 451.20 169.08 Q 449.44 167.95 448.55 169.84 L 447.09 172.97 A 2.34 2.33 37.4 0 0 447.43 175.48 Q 449.60 178.00 451.13 180.64 Q 451.42 181.13 451.76 180.68 Q 453.67 178.20 454.14 176.02 Q 455.08 171.59 451.20 169.08 Z M 409.28 183.72 C 411.96 180.68 408.87 177.50 407.84 174.50 Q 407.41 173.24 406.89 174.47 Q 404.95 179.07 407.18 183.45 A 1.28 1.28 0.0 0 0 409.28 183.72 Z M 378.10 176.76 Q 372.32 178.09 367.76 182.25 Q 365.30 184.49 363.93 188.61 C 361.08 197.21 364.04 207.05 372.32 211.35 Q 379.52 215.09 385.23 213.44 Q 403.65 208.11 400.51 188.61 Q 397.06 177.96 385.82 175.14 Q 380.81 173.88 378.10 176.76 Z M 308.05 192.97 Q 309.14 190.88 310.80 189.40 Q 313.26 187.22 314.00 186.36 Q 316.79 183.17 320.29 180.68 Q 320.71 180.38 320.65 179.88 Q 320.41 177.59 317.85 177.47 Q 316.02 176.69 315.03 177.55 Q 311.93 180.22 308.20 182.67 Q 306.95 183.50 306.77 185.22 Q 306.16 191.04 306.72 195.78 Q 306.93 197.58 307.36 195.82 L 308.05 192.97 Z M 301.87 211.37 Q 301.39 197.30 301.77 183.04 Q 301.83 180.51 304.46 177.68 Q 304.88 177.23 304.26 177.23 L 298.71 177.25 A 0.80 0.79 -0.0 0 0 297.91 178.04 L 297.95 214.78 Q 297.95 215.40 298.57 215.40 Q 319.47 215.40 340.38 215.37 C 343.79 215.36 347.40 215.02 350.91 214.80 Q 352.65 214.69 351.14 213.82 C 348.10 212.06 341.90 212.17 337.75 212.13 Q 320.13 211.94 302.55 212.03 A 0.68 0.68 0.0 0 1 301.87 211.37 Z M 418.82 191.22 Q 414.24 189.97 412.74 185.60 A 0.46 0.45 -36.3 0 0 411.94 185.48 L 409.27 189.14 Q 408.54 190.14 409.52 190.88 C 414.69 194.82 421.02 195.36 426.53 197.65 A 0.39 0.39 0.0 0 0 427.06 197.20 L 426.09 193.26 Q 425.97 192.74 426.42 192.47 Q 429.28 190.70 429.33 186.37 Q 429.34 185.77 428.76 185.58 C 423.53 183.89 419.68 182.06 416.71 178.03 A 0.27 0.27 0.0 0 0 416.22 178.14 Q 415.75 180.48 415.47 182.77 C 415.02 186.49 417.13 188.06 419.33 190.37 Q 420.62 191.71 418.82 191.22 Z M 432.96 186.13 C 433.39 189.21 434.39 193.16 430.61 194.62 A 1.56 1.55 -8.8 0 0 429.63 195.95 L 429.49 198.04 Q 429.43 198.94 430.28 198.64 L 435.46 196.82 Q 436.03 196.62 436.19 196.03 Q 437.44 191.14 438.88 185.53 Q 439.42 183.43 439.03 181.68 A 0.62 0.62 0.0 0 0 437.90 181.47 Q 436.17 184.11 433.52 185.17 A 0.91 0.90 75.5 0 0 432.96 186.13 Z M 318.27 184.33 Q 316.21 189.04 315.52 194.75 Q 315.26 196.95 316.06 198.79 Q 316.30 199.36 316.44 198.75 L 317.23 195.34 C 319.57 194.80 319.08 191.61 322.89 192.11 Q 323.38 192.17 323.73 191.83 L 326.14 189.45 A 0.95 0.91 68.8 0 0 326.42 188.78 Q 326.45 186.00 325.26 183.40 A 1.31 1.31 0.0 0 0 323.08 183.09 Q 321.68 184.69 318.27 184.33 Z M 441.53 215.94 Q 444.22 215.60 446.81 214.04 Q 447.70 213.51 447.80 212.24 Q 448.05 209.18 447.95 208.20 Q 447.79 206.75 449.25 206.77 L 455.03 206.83 Q 456.21 206.85 456.21 208.02 L 456.21 212.30 Q 456.21 213.43 457.28 213.78 L 462.06 215.35 Q 463.13 215.71 463.16 214.58 L 463.54 199.05 L 453.34 187.78 A 1.09 1.09 0.0 0 0 451.73 187.78 L 441.39 199.18 Q 440.94 199.67 440.94 200.34 Q 440.98 207.74 440.99 214.96 Q 440.99 215.30 441.14 215.50 Q 441.28 215.70 441.53 215.94 Z M 349.27 195.38 Q 352.11 197.15 355.74 197.44 Q 356.24 197.48 356.34 196.99 C 356.78 194.80 357.18 191.94 355.32 190.57 Q 355.14 189.94 354.87 189.64 Q 354.49 189.21 354.12 189.64 Q 352.05 192.05 349.58 194.06 Q 349.25 194.33 349.10 194.59 Q 348.67 195.33 349.27 195.38 Z M 324.97 193.85 Q 321.70 195.40 322.56 201.96 Q 321.72 203.77 322.53 207.16 Q 322.62 207.56 323.01 207.42 Q 323.17 207.36 323.28 207.22 Q 323.49 206.96 323.52 206.64 Q 323.89 203.08 326.20 201.02 Q 326.63 200.64 327.20 200.66 C 330.44 200.79 330.64 198.01 330.99 195.53 C 331.30 193.32 330.26 191.74 327.78 192.45 Q 327.30 192.59 326.98 192.98 Q 326.22 193.87 324.97 193.85 Z M 412.35 196.94 L 407.07 193.68 Q 406.74 193.47 406.64 193.85 Q 406.21 195.43 406.42 197.06 Q 406.49 197.59 407.02 197.57 L 412.23 197.42 Q 413.09 197.40 412.35 196.94 Z M 332.9496 196.8082 A 1.91 1.12 132.5 0 0 335.0658 196.1567 A 1.91 1.12 132.5 0 0 335.5304 193.9918 A 1.91 1.12 132.5 0 0 333.4142 194.6433 A 1.91 1.12 132.5 0 0 332.9496 196.8082 Z M 308.58 203.41 L 310.04 203.97 A 0.28 0.28 0.0 0 0 310.40 203.81 L 310.47 203.62 A 5.00 1.06 -69.0 0 0 311.27 198.57 L 311.27 198.57 A 5.00 1.06 -69.0 0 0 308.49 202.86 L 308.42 203.05 A 0.28 0.28 0.0 0 0 308.58 203.41 Z M 338.76 198.94 Q 338.34 198.73 337.96 199.00 Q 333.23 202.35 328.87 205.69 A 0.03 0.03 0.0 0 0 328.89 205.74 Q 343.65 207.31 358.46 207.05 Q 359.79 207.03 359.02 205.94 L 357.79 204.20 A 2.48 2.47 72.3 0 0 355.77 203.15 Q 346.87 203.11 338.76 198.94 Z M 404.34 205.82 Q 403.76 206.85 404.94 206.89 Q 414.17 207.24 423.92 205.55 A 0.51 0.51 0.0 0 0 424.20 204.69 Q 423.03 203.45 421.10 203.33 Q 413.53 202.88 407.04 202.99 A 1.95 1.93 -75.4 0 0 405.40 203.96 L 404.34 205.82 Z M 416.33 212.36 C 414.56 212.47 411.47 213.00 410.06 214.14 Q 409.44 214.64 410.23 214.71 Q 419.23 215.48 428.46 215.26 C 431.02 215.20 432.42 213.95 434.23 212.47 Q 434.74 212.05 434.08 212.03 Q 425.28 211.79 416.33 212.36 Z" transform="matrix(1, 0, 0, 1, 0, -1.4210854715202004e-14)"/>
  <path fill="#fdf9ea" d=" M 474.75 51.03 Q 471.55 51.76 468.93 49.09 Q 467.16 45.28 463.49 45.30 Q 426.35 45.49 389.81 45.42 Q 388.34 45.42 389.74 45.87 Q 401.50 49.61 412.33 53.92 Q 419.56 56.80 426.98 61.83 Q 433.81 66.46 441.50 71.89 Q 445.19 74.49 448.71 78.08 Q 452.29 81.72 455.66 85.17 Q 455.54 85.63 455.41 86.09 Q 453.13 83.40 450.53 81.88 C 448.68 80.79 447.82 79.48 446.28 78.25 Q 442.57 75.27 435.84 71.15 Q 430.81 68.07 425.31 64.37 Q 418.68 59.92 408.51 55.43 Q 408.15 55.27 407.82 55.38 A 0.72 0.72 0.0 0 0 407.57 56.61 L 410.58 59.21 C 412.02 60.79 412.22 63.03 413.98 64.61 Q 415.16 65.67 415.96 66.91 Q 417.32 69.04 418.88 70.93 Q 419.76 72.00 420.29 73.39 Q 420.80 74.71 421.23 76.01 Q 421.89 78.00 422.69 79.90 Q 427.14 90.45 427.19 102.38 Q 427.20 102.87 426.76 103.11 Q 424.76 104.22 423.01 105.77 Q 414.95 112.88 406.97 119.87 Q 403.17 123.36 399.52 126.75 Q 397.01 129.09 397.16 133.74 Q 397.18 134.25 397.58 134.57 Q 403.71 139.45 403.93 146.32 Q 403.04 147.23 403.13 147.73 Q 403.24 148.31 403.72 147.95 L 405.53 146.58 Q 406.80 148.06 406.12 149.37 Q 405.89 149.80 406.03 150.27 Q 407.28 154.52 405.14 156.08 Q 403.83 153.58 402.90 151.24 Q 401.68 148.12 400.79 146.39 Q 399.02 142.96 397.37 139.47 Q 396.57 137.77 391.37 132.86 Q 394.18 126.53 398.89 122.60 Q 402.79 119.35 406.75 116.01 Q 413.82 110.04 424.33 100.85 Q 424.89 100.36 424.81 99.51 Q 423.46 84.35 418.04 74.83 Q 414.49 68.58 409.79 62.93 Q 404.34 56.38 399.39 53.65 Q 391.99 49.57 384.57 48.21 Q 384.08 48.12 383.69 48.42 L 382.25 49.53 A 0.76 0.75 58.1 0 1 381.11 49.26 Q 380.58 48.16 379.69 47.50 Q 379.29 47.20 378.81 47.37 L 364.60 52.43 Q 356.20 54.08 349.76 56.61 Q 345.58 58.26 336.83 62.12 Q 334.03 63.36 331.35 64.98 Q 328.76 66.55 326.07 68.17 L 319.35 72.87 Q 318.96 73.14 318.49 73.09 Q 317.99 73.04 317.61 73.35 Q 314.41 75.92 311.09 79.12 L 310.35 76.09 Q 310.03 74.78 311.20 74.09 C 317.19 70.52 322.59 65.88 328.66 62.66 Q 341.61 55.78 347.66 53.88 Q 360.38 49.87 373.13 45.71 Q 374.21 45.36 373.07 45.36 Q 338.02 45.48 302.78 45.34 Q 296.76 45.32 296.02 45.49 Q 292.46 46.31 290.37 50.06 Q 287.15 49.43 285.95 51.55 Q 285.68 52.03 285.23 51.71 L 284.84 51.43 Q 286.20 44.25 291.85 41.45 Q 294.78 40.00 301.39 40.00 Q 382.69 40.01 464.00 40.05 C 469.80 40.05 473.94 45.92 474.75 51.03 Z" transform="matrix(1, 0, 0, 1, 0, -1.4210854715202004e-14)"/>
  <path fill="#d8af62" d=" M 271.91 45.01 Q 272.13 46.05 272.60 46.54 Q 272.77 46.71 272.79 46.95 Q 272.86 47.61 273.77 48.06 Q 275.35 48.84 276.35 48.67 L 276.21 120.96 Q 275.67 121.23 275.37 121.92 Q 275.32 122.04 275.23 121.95 Q 275.14 121.86 275.14 121.70 Q 275.14 121.63 275.07 121.66 Q 273.95 122.17 273.18 121.51 Q 271.55 120.11 270.75 119.79 Q 270.88 87.02 270.83 54.25 Q 270.82 50.50 271.91 45.01 Z" transform="matrix(1, 0, 0, 1, 0, -1.4210854715202004e-14)"/>
  <path fill="#010000" d=" M 311.09 79.12 L 313.08 86.26 A 1.16 1.12 -44.1 0 1 313.06 86.92 L 311.35 91.91 L 306.87 74.55 Q 307.13 73.37 308.53 72.47 Q 313.30 70.33 317.40 66.89 Q 318.90 65.64 318.66 63.69 Q 318.59 63.16 318.06 63.07 Q 316.22 62.77 314.85 64.18 Q 309.96 69.24 303.11 72.01 A 0.85 0.81 87.6 0 0 302.62 72.57 L 301.82 75.73 Q 301.70 76.22 301.35 76.57 L 296.02 81.95 Q 295.69 82.28 295.64 82.74 Q 293.74 99.77 291.55 119.55 Q 291.29 121.95 291.03 119.55 Q 290.97 118.94 291.01 117.47 Q 290.28 109.96 290.24 105.00 Q 290.10 85.66 290.37 50.06 Q 292.46 46.31 296.02 45.49 Q 296.76 45.32 302.78 45.34 Q 338.02 45.48 373.07 45.36 Q 374.21 45.36 373.13 45.71 Q 360.38 49.87 347.66 53.88 Q 341.61 55.78 328.66 62.66 C 322.59 65.88 317.19 70.52 311.20 74.09 Q 310.03 74.78 310.35 76.09 L 311.09 79.12 Z M 301.67 53.95 Q 308.15 55.22 314.09 54.39 Q 315.06 54.26 314.17 53.85 Q 314.08 53.81 313.65 53.87 Q 313.62 53.88 313.65 53.86 Q 313.67 53.85 313.69 53.84 Q 313.75 53.80 313.82 53.80 Q 323.05 53.81 332.16 53.82 Q 336.36 54.73 340.21 53.92 Q 341.88 54.36 343.02 53.68 Q 343.53 53.38 342.95 53.27 Q 339.20 52.53 336.03 51.59 Q 334.88 51.25 333.25 51.24 Q 316.02 51.13 298.83 51.23 Q 298.32 51.24 298.29 51.75 Q 297.85 61.81 298.14 71.73 Q 298.22 74.72 299.63 72.08 L 300.20 71.02 Q 300.43 70.59 300.87 70.37 C 301.65 69.99 301.92 69.39 301.91 68.47 Q 301.84 61.97 301.67 53.95 Z M 326.33 60.96 A 0.37 0.37 0.0 0 0 326.52 60.91 L 332.44 57.55 A 0.37 0.37 0.0 0 0 332.26 56.86 L 312.96 56.90 A 0.37 0.37 0.0 0 0 312.59 57.27 L 312.64 60.42 A 0.37 0.37 0.0 0 0 313.00 60.78 L 326.33 60.96 Z M 306.4228 64.3187 A 1.58 1.35 112.6 0 0 308.2763 63.3788 A 1.58 1.35 112.6 0 0 307.6372 61.4013 A 1.58 1.35 112.6 0 0 305.7837 62.3412 A 1.58 1.35 112.6 0 0 306.4228 64.3187 Z" transform="matrix(1, 0, 0, 1, 0, -1.4210854715202004e-14)"/>
  <path fill="#e5c375" d=" M 468.93 49.09 Q 471.55 51.76 474.75 51.03 L 474.74 108.53 L 474.09 111.39 Q 474.00 111.78 473.68 112.03 Q 473.21 112.38 473.36 113.00 Q 473.49 113.50 473.17 113.90 Q 472.40 114.88 472.43 116.10 Q 472.44 116.36 472.18 116.40 Q 471.88 116.44 471.84 116.75 Q 471.49 119.40 471.06 125.13 Q 470.98 126.07 470.50 126.74 Q 469.60 127.97 469.13 127.90 L 468.93 49.09 Z" transform="matrix(1, 0, 0, 1, 0, -1.4210854715202004e-14)"/>
  <path fill="#e5c375" d=" M 290.37 50.06 Q 290.10 85.66 290.24 105.00 Q 290.28 109.96 291.01 117.47 Q 289.96 117.78 290.09 119.50 Q 290.25 121.77 290.33 124.06 Q 289.58 123.71 289.62 122.84 Q 289.65 122.39 289.33 122.06 L 288.68 121.41 A 0.49 0.49 0.0 0 0 287.89 121.56 Q 286.94 123.66 286.63 125.79 Q 285.73 131.97 285.90 138.21 Q 286.11 146.20 286.11 146.29 Q 286.04 172.65 285.88 199.00 Q 285.84 205.91 284.87 211.25 L 284.83 51.92 A 0.57 0.53 63.0 0 1 284.91 51.63 Q 285.12 51.32 284.84 51.43 L 285.23 51.71 Q 285.68 52.03 285.95 51.55 Q 287.15 49.43 290.37 50.06 Z" transform="matrix(1, 0, 0, 1, 0, -1.4210854715202004e-14)"/>
  <path fill="#fcf4d3" d=" M 461.86 51.23 C 461.22 52.98 460.38 54.30 460.38 56.19 Q 460.43 72.98 459.95 89.86 Q 458.33 89.94 458.33 88.00 Q 458.35 71.20 458.49 54.50 Q 458.44 54.18 458.39 53.86 Q 458.52 53.79 458.21 53.57 Q 457.92 53.36 457.56 53.36 Q 443.15 53.43 428.75 53.18 Q 424.47 53.10 420.58 54.40 Q 419.14 54.83 418.57 54.34 Q 418.02 53.86 418.72 53.65 Q 421.49 52.83 424.47 51.96 Q 427.24 51.15 430.14 51.16 Q 445.93 51.24 461.86 51.23 Z" transform="matrix(1, 0, 0, 1, 0, -1.4210854715202004e-14)"/>
  <path fill="#efdaa3" d=" M 340.21 53.92 L 332.98 53.76 L 301.67 53.95 Q 301.84 61.97 301.91 68.47 C 301.92 69.39 301.65 69.99 300.87 70.37 Q 300.43 70.59 300.20 71.02 L 299.63 72.08 Q 298.22 74.72 298.14 71.73 Q 297.85 61.81 298.29 51.75 Q 298.32 51.24 298.83 51.23 Q 316.02 51.13 333.25 51.24 Q 334.88 51.25 336.03 51.59 Q 339.20 52.53 342.95 53.27 Q 343.53 53.38 343.02 53.68 Q 341.88 54.36 340.21 53.92 Z" transform="matrix(1, 0, 0, 1, 0, -1.4210854715202004e-14)"/>
  <path fill="#c89b3f" d=" M 461.86 51.23 L 462.17 51.24 Q 462.49 51.25 462.49 51.57 C 462.64 67.07 462.97 78.99 462.21 90.66 Q 462.17 91.17 461.69 90.98 Q 460.50 90.49 459.95 89.86 Q 460.43 72.98 460.38 56.19 C 460.38 54.30 461.22 52.98 461.86 51.23 Z" transform="matrix(1, 0, 0, 1, 0, -1.4210854715202004e-14)"/>
  <path fill="#e5c375" d=" M 364.60 52.43 Q 352.68 57.32 342.73 64.17 Q 338.92 63.74 337.60 64.58 Q 328.51 70.38 322.90 77.90 Q 317.19 85.55 314.89 88.27 Q 314.25 89.03 313.95 88.08 Q 313.88 87.85 313.88 87.62 Q 313.85 86.46 314.39 85.55 Q 316.66 81.65 319.51 78.32 Q 321.01 76.56 322.41 74.69 C 324.02 72.51 325.98 70.88 327.65 68.77 Q 328.08 68.23 327.39 68.21 L 326.07 68.17 Q 328.76 66.55 331.35 64.98 Q 334.03 63.36 336.83 62.12 Q 345.58 58.26 349.76 56.61 Q 356.20 54.08 364.60 52.43 Z" transform="matrix(1, 0, 0, 1, 0, -1.4210854715202004e-14)"/>
  <path fill="#c89b3f" d=" M 458.39 53.86 Q 444.89 53.00 439.75 53.50 Q 435.98 53.87 433.76 53.88 Q 432.36 53.89 430.79 54.24 Q 429.34 54.56 427.76 54.60 Q 424.17 55.23 420.58 54.40 Q 424.47 53.10 428.75 53.18 Q 443.15 53.43 457.56 53.36 Q 457.92 53.36 458.21 53.57 Q 458.52 53.79 458.39 53.86 Z" transform="matrix(1, 0, 0, 1, 0, -1.4210854715202004e-14)"/>
  <path fill="#a06610" d=" M 332.98 53.76 Q 332.45 53.65 332.16 53.82 Q 323.05 53.81 313.82 53.80 Q 313.75 53.80 313.69 53.84 Q 313.67 53.85 313.65 53.86 Q 313.62 53.88 313.65 53.87 Q 314.08 53.81 314.17 53.85 Q 315.06 54.26 314.09 54.39 Q 308.15 55.22 301.67 53.95 L 332.98 53.76 Z" transform="matrix(1, 0, 0, 1, 0, -1.4210854715202004e-14)"/>
  <path fill="#7c4710" d=" M 458.39 53.86 Q 458.44 54.18 458.49 54.50 Q 454.26 54.88 452.25 54.88 Q 445.23 54.88 427.76 54.60 Q 429.34 54.56 430.79 54.24 Q 432.36 53.89 433.76 53.88 Q 435.98 53.87 439.75 53.50 Q 444.89 53.00 458.39 53.86 Z" transform="matrix(1, 0, 0, 1, 0, -1.4210854715202004e-14)"/>
  <path fill="#c89b3f" d=" M 332.16 53.82 Q 332.45 53.65 332.98 53.76 L 340.21 53.92 Q 336.36 54.73 332.16 53.82 Z" transform="matrix(1, 0, 0, 1, 0, -1.4210854715202004e-14)"/>
  <path fill="#fcf4d3" d=" M 378.60 64.94 Q 373.46 69.95 368.90 72.62 Q 362.61 77.90 356.04 81.58 Q 351.55 84.09 347.87 87.37 Q 347.84 87.41 345.77 89.73 C 344.49 91.15 342.93 92.13 341.85 93.72 Q 341.54 94.18 341.66 94.73 Q 341.86 95.62 342.55 95.72 Q 347.84 94.30 352.21 93.07 Q 354.54 92.41 354.90 90.56 Q 355.89 85.59 359.03 83.19 Q 359.35 82.41 359.93 82.57 A 0.61 0.60 20.3 0 1 360.32 83.41 L 355.38 93.85 Q 355.20 94.23 354.82 94.41 Q 351.22 96.08 347.25 97.36 Q 344.97 98.09 343.74 99.75 Q 341.90 102.23 340.52 104.82 A 1.45 1.34 -61.3 0 1 338.63 105.46 Q 338.46 105.36 338.64 104.44 L 341.34 99.56 A 0.33 0.32 33.2 0 0 341.25 99.15 L 340.92 98.89 Q 340.69 98.71 340.51 98.94 L 335.85 104.95 Q 334.30 108.40 332.15 108.95 Q 331.10 108.16 330.69 107.46 Q 330.45 107.04 330.72 106.66 Q 334.79 100.97 336.49 97.81 Q 338.01 95.00 339.77 92.56 Q 340.07 92.15 339.92 91.66 Q 339.78 91.23 339.35 90.99 Q 338.90 90.74 338.96 90.23 Q 339.09 89.16 340.32 88.91 Q 341.38 88.69 342.32 88.35 Q 342.77 88.19 342.90 87.73 C 344.45 82.12 348.38 75.28 354.05 72.41 C 359.34 69.74 362.31 65.57 365.75 60.36 Q 366.44 59.32 366.20 60.55 Q 365.28 65.25 363.42 69.74 A 5.20 5.18 86.9 0 1 361.11 72.32 Q 357.01 74.57 353.76 76.78 Q 351.28 78.48 349.95 81.48 Q 349.55 82.39 350.38 81.85 C 357.40 77.26 365.82 72.89 371.43 67.03 Q 377.01 61.19 380.31 55.23 Q 381.00 53.97 380.84 55.40 Q 380.20 60.76 378.60 64.94 Z" transform="matrix(1, 0, 0, 1, 0, -1.4210854715202004e-14)"/>
  <path fill="#d5a543" d=" M 455.41 86.09 Q 451.10 85.61 448.87 83.63 C 447.31 82.24 445.49 80.15 443.68 79.30 Q 442.84 78.90 442.24 78.09 Q 441.50 77.09 440.43 76.37 Q 437.30 74.26 434.23 72.72 Q 430.81 71.02 428.14 69.10 Q 424.19 66.28 420.04 63.61 Q 419.07 62.99 417.88 62.59 Q 416.73 62.20 415.77 61.55 Q 415.02 61.05 415.28 61.91 L 415.85 63.75 L 410.58 59.21 L 407.57 56.61 A 0.72 0.72 0.0 0 1 407.82 55.38 Q 408.15 55.27 408.51 55.43 Q 418.68 59.92 425.31 64.37 Q 430.81 68.07 435.84 71.15 Q 442.57 75.27 446.28 78.25 C 447.82 79.48 448.68 80.79 450.53 81.88 Q 453.13 83.40 455.41 86.09 Z" transform="matrix(1, 0, 0, 1, 0, -1.4210854715202004e-14)"/>
  <path fill="#e5c375" d=" M 425.71 56.69 L 444.13 56.78 A 0.45 0.45 0.0 0 1 444.58 57.21 L 444.73 60.49 A 0.45 0.45 0.0 0 1 444.28 60.96 L 431.76 61.01 A 0.45 0.45 0.0 0 1 431.54 60.95 L 425.48 57.53 A 0.45 0.45 0.0 0 1 425.71 56.69 Z" transform="matrix(1, 0, 0, 1, 0, -1.4210854715202004e-14)"/>
  <path fill="#efdaa3" d=" M 326.33 60.96 L 313.00 60.78 A 0.37 0.37 0.0 0 1 312.64 60.42 L 312.59 57.27 A 0.37 0.37 0.0 0 1 312.96 56.90 L 332.26 56.86 A 0.37 0.37 0.0 0 1 332.44 57.55 L 326.52 60.91 A 0.37 0.37 0.0 0 1 326.33 60.96 Z" transform="matrix(1, 0, 0, 1, 0, -1.4210854715202004e-14)"/>
  <path fill="#e0b759" d=" M 489.13 57.46 L 489.26 113.97 Q 487.78 116.44 485.01 114.82 Q 484.89 114.75 484.76 114.82 Q 484.62 114.90 484.61 115.12 Q 484.58 115.47 484.32 115.24 L 484.00 114.95 L 483.96 57.96 Q 484.50 58.57 485.24 58.37 Q 486.08 58.15 486.90 58.33 Q 487.36 58.43 487.56 58.00 L 487.75 57.61 A 0.56 0.56 0.0 0 1 488.51 57.34 Q 488.84 57.51 488.81 57.76 Q 488.73 58.53 488.94 57.78 Q 489.00 57.59 489.13 57.46 Z" transform="matrix(1, 0, 0, 1, 0, -1.4210854715202004e-14)"/>
  <path fill="#c89b3f" d=" M 410.58 59.21 L 415.85 63.75 L 421.03 69.53 Q 420.68 71.91 421.53 73.00 Q 422.57 74.35 423.31 75.67 Q 424.90 78.52 425.95 81.64 Q 426.84 84.28 427.44 88.00 Q 428.18 92.61 429.85 96.85 L 429.66 103.35 Q 429.64 103.85 429.28 104.20 C 424.89 108.41 420.57 112.59 415.85 116.61 Q 409.91 121.66 405.45 128.16 C 404.96 128.87 404.41 129.19 403.94 129.84 A 0.32 0.32 0.0 0 0 404.05 130.30 Q 411.38 134.55 414.07 141.40 A 0.33 0.32 79.4 0 1 413.77 141.85 L 409.57 141.89 Q 408.97 138.33 406.74 135.25 Q 405.45 133.47 402.90 133.36 Q 401.82 133.32 400.91 132.43 Q 400.42 131.94 400.75 131.34 L 406.97 119.87 Q 414.95 112.88 423.01 105.77 Q 424.76 104.22 426.76 103.11 Q 427.20 102.87 427.19 102.38 Q 427.14 90.45 422.69 79.90 Q 421.89 78.00 421.23 76.01 Q 420.80 74.71 420.29 73.39 Q 419.76 72.00 418.88 70.93 Q 417.32 69.04 415.96 66.91 Q 415.16 65.67 413.98 64.61 C 412.22 63.03 412.02 60.79 410.58 59.21 Z" transform="matrix(1, 0, 0, 1, 0, -1.4210854715202004e-14)"/>
  <ellipse fill="#fcf4d3" cx="0.00" cy="0.00" transform="matrix(-0.45087758823142654, 0.8925857944369339, -0.8925857944369339, -0.45087758823142654, 451.5400085449219, 63.22999954223632)" rx="2.89" ry="2.76"/>
  <ellipse fill="#fdf9ea" cx="0.00" cy="0.00" transform="matrix(-0.3842952980732283, 0.9232102273473842, -0.9232102273473842, -0.3842952980732283, 307.0299987792969, 62.860000610351555)" rx="1.58" ry="1.35"/>
  <path fill="#fcf4d3" d=" M 405.56 114.77 L 400.23 103.32 A 0.35 0.35 0.0 0 1 400.49 102.83 Q 400.89 102.76 401.32 103.17 Q 402.72 104.52 403.86 105.66 Q 404.35 106.15 404.38 105.46 Q 404.68 98.57 401.80 93.26 Q 401.10 91.95 402.51 92.39 Q 403.23 92.61 403.85 92.22 Q 404.40 91.88 404.05 91.34 Q 400.66 86.07 396.34 82.19 A 0.25 0.24 -30.7 0 1 396.45 81.77 Q 397.69 81.46 398.86 81.66 Q 400.20 81.90 399.33 80.85 C 396.93 77.95 394.88 74.78 390.94 73.56 C 389.91 73.24 389.29 72.60 388.43 72.02 Q 387.57 71.43 386.40 71.34 Q 382.81 71.08 379.37 70.22 L 380.84 66.30 Q 381.04 65.79 381.53 65.56 L 390.27 61.45 Q 391.74 60.76 390.68 62.00 Q 388.82 64.17 386.51 66.32 Q 385.81 66.98 386.77 66.98 Q 391.02 66.99 395.20 66.21 Q 396.24 66.02 395.48 66.75 L 392.36 69.80 A 0.37 0.36 32.2 0 0 392.50 70.41 L 399.76 72.83 Q 400.25 72.99 399.97 73.42 Q 399.56 74.07 398.88 74.37 A 0.45 0.45 0.0 0 0 398.82 75.16 L 403.50 78.21 Q 403.98 78.53 403.55 78.90 Q 402.86 79.50 403.43 80.24 Q 406.47 84.15 407.58 88.12 Q 407.86 89.11 407.13 88.38 L 405.76 87.03 Q 405.06 86.34 405.38 87.27 Q 406.81 91.52 408.37 95.44 C 409.12 97.32 409.36 99.25 410.00 101.09 Q 410.27 101.86 409.64 101.34 L 406.75 98.99 A 0.24 0.24 0.0 0 0 406.36 99.20 Q 406.81 106.04 407.06 113.00 Q 407.09 113.85 405.56 114.77 Z" transform="matrix(1, 0, 0, 1, 0, -1.4210854715202004e-14)"/>
  <path fill="#a06610" d=" M 455.41 86.09 Q 455.54 85.63 455.66 85.17 L 454.10 91.78 Q 444.40 82.45 433.85 74.64 Q 432.31 73.51 429.79 72.54 Q 427.62 71.72 425.61 70.54 Q 424.29 69.76 423.03 70.18 Q 421.51 68.53 421.12 69.49 Q 421.07 69.51 421.03 69.53 L 415.85 63.75 L 415.28 61.91 Q 415.02 61.05 415.77 61.55 Q 416.73 62.20 417.88 62.59 Q 419.07 62.99 420.04 63.61 Q 424.19 66.28 428.14 69.10 Q 430.81 71.02 434.23 72.72 Q 437.30 74.26 440.43 76.37 Q 441.50 77.09 442.24 78.09 Q 442.84 78.90 443.68 79.30 C 445.49 80.15 447.31 82.24 448.87 83.63 Q 451.10 85.61 455.41 86.09 Z" transform="matrix(1, 0, 0, 1, 0, -1.4210854715202004e-14)"/>
  <path fill="#fcf4d3" d=" M 308.53 72.47 Q 305.18 72.01 303.56 76.01 Q 302.60 78.39 301.36 80.65 Q 301.32 80.73 299.60 83.15 Q 298.55 84.63 298.23 86.51 Q 297.58 90.33 297.26 94.20 Q 297.11 96.04 296.52 99.24 Q 296.06 101.75 296.01 104.36 Q 293.90 120.87 293.75 138.14 Q 292.24 135.40 291.81 132.74 L 290.33 124.06 Q 290.25 121.77 290.09 119.50 Q 289.96 117.78 291.01 117.47 Q 290.97 118.94 291.03 119.55 Q 291.29 121.95 291.55 119.55 Q 293.74 99.77 295.64 82.74 Q 295.69 82.28 296.02 81.95 L 301.35 76.57 Q 301.70 76.22 301.82 75.73 L 302.62 72.57 A 0.85 0.81 87.6 0 1 303.11 72.01 Q 309.96 69.24 314.85 64.18 Q 316.22 62.77 318.06 63.07 Q 318.59 63.16 318.66 63.69 Q 318.90 65.64 317.40 66.89 Q 313.30 70.33 308.53 72.47 Z" transform="matrix(1, 0, 0, 1, 0, -1.4210854715202004e-14)"/>
  <path fill="#c89b3f" d=" M 443.54 65.14 C 445.50 68.36 447.99 71.58 450.28 74.74 Q 450.68 75.30 450.12 74.90 Q 445.92 71.88 441.44 68.78 Q 439.74 67.61 438.93 65.46 A 1.19 1.18 76.1 0 1 439.89 63.86 L 440.74 63.77 Q 442.58 63.55 443.54 65.14 Z" transform="matrix(1, 0, 0, 1, 0, -1.4210854715202004e-14)"/>
  <path fill="#c89b3f" d=" M 342.73 64.17 C 335.63 70.09 327.92 74.87 322.41 82.86 C 320.34 85.85 317.99 88.64 316.06 91.77 C 315.07 93.37 313.92 94.43 312.52 95.55 Q 311.42 93.50 311.35 91.91 L 313.06 86.92 A 1.16 1.12 -44.1 0 0 313.08 86.26 L 311.09 79.12 Q 314.41 75.92 317.61 73.35 Q 317.99 73.04 318.49 73.09 Q 318.96 73.14 319.35 72.87 L 326.07 68.17 L 327.39 68.21 Q 328.08 68.23 327.65 68.77 C 325.98 70.88 324.02 72.51 322.41 74.69 Q 321.01 76.56 319.51 78.32 Q 316.66 81.65 314.39 85.55 Q 313.85 86.46 313.88 87.62 Q 313.88 87.85 313.95 88.08 Q 314.25 89.03 314.89 88.27 Q 317.19 85.55 322.90 77.90 Q 328.51 70.38 337.60 64.58 Q 338.92 63.74 342.73 64.17 Z" transform="matrix(1, 0, 0, 1, 0, -1.4210854715202004e-14)"/>
  <ellipse fill="#efdaa3" cx="0.00" cy="0.00" transform="matrix(-0.6073758608798276, 0.7944146043600209, -0.7944146043600209, -0.6073758608798276, 367.82000732421875, 66.16999816894531)" rx="2.49" ry="0.36"/>
  <path fill="#af7b28" d=" M 378.60 64.94 Q 375.89 73.30 370.04 78.73 Q 369.61 79.12 368.79 79.20 Q 368.23 79.26 368.32 78.70 Q 368.48 77.78 368.46 76.77 Q 368.44 75.34 367.19 75.34 L 368.90 72.62 Q 373.46 69.95 378.60 64.94 Z" transform="matrix(1, 0, 0, 1, 0, -1.4210854715202004e-14)"/>
  <circle fill="#fdf9ea" cx="409.26" cy="70.82" r="1.29" transform="matrix(1, 0, 0, 1, 0, -1.4210854715202004e-14)"/>
  <path fill="#ba852a" d=" M 421.03 69.53 Q 421.07 69.51 421.12 69.49 Q 424.99 73.76 426.29 76.25 Q 430.36 84.04 434.14 96.04 Q 434.30 96.53 433.79 96.57 L 429.85 96.85 Q 428.18 92.61 427.44 88.00 Q 426.84 84.28 425.95 81.64 Q 424.90 78.52 423.31 75.67 Q 422.57 74.35 421.53 73.00 Q 420.68 71.91 421.03 69.53 Z" transform="matrix(1, 0, 0, 1, 0, -1.4210854715202004e-14)"/>
  <path fill="#ba852a" d=" M 454.10 91.78 L 459.84 99.62 Q 460.20 100.11 459.66 100.39 Q 450.08 105.43 447.82 116.80 Q 447.73 117.25 447.30 117.44 Q 446.36 117.83 445.29 118.06 C 438.59 119.50 434.73 130.30 433.08 136.01 Q 432.77 137.06 432.39 136.04 C 429.81 129.18 426.16 124.66 418.46 123.80 A 0.44 0.43 27.6 0 1 418.22 123.04 C 423.43 118.54 426.48 123.11 430.05 126.49 Q 432.45 128.76 431.00 125.80 L 426.05 115.70 Q 425.78 115.14 426.29 114.78 C 429.99 112.10 435.06 115.84 438.16 117.78 Q 438.48 117.99 438.74 117.71 Q 438.93 117.49 438.74 117.26 Q 435.13 113.17 432.76 108.77 A 1.73 1.73 0.0 0 1 434.34 106.22 C 438.76 106.36 442.82 109.90 445.71 112.95 Q 446.37 113.64 446.52 112.70 Q 446.69 111.68 446.43 110.63 C 443.20 97.68 435.19 84.69 427.01 73.89 C 425.86 72.38 424.55 71.38 423.03 70.18 Q 424.29 69.76 425.61 70.54 Q 427.62 71.72 429.79 72.54 Q 432.31 73.51 433.85 74.64 Q 444.40 82.45 454.10 91.78 Z M 445.49 95.38 C 446.83 97.71 450.62 98.88 452.91 100.19 Q 454.24 100.95 453.19 99.83 Q 448.57 94.94 443.83 92.04 Q 442.79 91.41 443.52 92.37 Q 444.56 93.75 445.49 95.38 Z" transform="matrix(1, 0, 0, 1, 0, -1.4210854715202004e-14)"/>
  <path fill="#ba852a" d=" M 379.37 70.22 Q 382.81 71.08 386.40 71.34 Q 387.57 71.43 388.43 72.02 C 389.29 72.60 389.91 73.24 390.94 73.56 C 394.88 74.78 396.93 77.95 399.33 80.85 Q 400.20 81.90 398.86 81.66 Q 397.69 81.46 396.45 81.77 A 0.25 0.24 -30.7 0 0 396.34 82.19 Q 400.66 86.07 404.05 91.34 Q 404.40 91.88 403.85 92.22 Q 403.23 92.61 402.51 92.39 Q 401.10 91.95 401.80 93.26 Q 404.68 98.57 404.38 105.46 Q 404.35 106.15 403.86 105.66 Q 402.72 104.52 401.32 103.17 Q 400.89 102.76 400.49 102.83 A 0.35 0.35 0.0 0 0 400.23 103.32 L 405.56 114.77 Q 397.72 119.60 391.73 126.91 Q 391.20 127.55 391.35 126.73 Q 392.22 121.99 393.14 116.99 C 394.04 112.16 393.13 107.25 392.52 102.30 Q 391.82 96.75 390.30 93.26 C 389.09 90.49 386.02 84.57 383.27 83.33 Q 382.72 83.08 383.07 82.58 Q 385.82 78.74 388.00 74.05 A 0.92 0.91 -83.9 0 0 386.97 72.77 L 377.96 74.77 Q 377.45 74.88 377.65 74.39 L 379.37 70.22 Z" transform="matrix(1, 0, 0, 1, 0, -1.4210854715202004e-14)"/>
  <path fill="#efdaa3" d=" M 308.53 72.47 Q 307.13 73.37 306.87 74.55 Q 304.97 86.71 305.92 98.50 Q 306.03 99.93 304.89 100.29 A 0.48 0.47 -11.9 0 1 304.27 99.89 L 303.55 93.34 Q 303.50 92.85 303.11 92.54 Q 302.75 92.26 302.80 91.77 Q 302.87 90.85 302.85 90.71 Q 302.52 89.10 301.58 88.92 L 300.93 85.14 Q 300.88 84.87 300.62 84.92 L 300.36 84.97 A 0.52 0.51 -3.5 0 0 299.93 85.45 Q 299.73 89.13 299.20 92.21 Q 299.15 92.53 299.19 92.86 Q 299.26 93.39 298.84 93.73 A 0.86 0.83 78.5 0 0 298.54 94.20 L 296.01 104.36 Q 296.06 101.75 296.52 99.24 Q 297.11 96.04 297.26 94.20 Q 297.58 90.33 298.23 86.51 Q 298.55 84.63 299.60 83.15 Q 301.32 80.73 301.36 80.65 Q 302.60 78.39 303.56 76.01 Q 305.18 72.01 308.53 72.47 Z" transform="matrix(1, 0, 0, 1, 0, -1.4210854715202004e-14)"/>
  <path fill="#e0b759" d=" M 368.90 72.62 L 367.19 75.34 L 362.46 81.80 Q 362.17 82.19 362.65 82.27 Q 362.80 82.29 363.01 82.26 Q 362.89 82.67 362.34 82.64 Q 362.04 82.62 361.90 82.90 Q 361.79 83.11 361.87 83.31 Q 361.99 83.64 362.34 83.64 C 363.31 83.64 364.21 83.76 365.15 83.51 Q 373.06 81.48 380.83 78.27 Q 380.66 80.11 378.11 81.10 Q 377.36 81.39 375.05 81.90 Q 373.48 82.25 372.04 82.87 Q 368.37 84.46 364.62 85.85 Q 364.27 85.98 364.34 86.45 Q 364.37 86.61 364.53 86.63 Q 364.66 86.65 364.77 86.70 Q 364.70 87.08 364.06 87.09 Q 363.56 87.10 363.38 87.56 Q 363.20 88.01 363.51 88.51 A 1.06 1.06 0.0 0 0 364.83 88.93 L 375.29 84.36 Q 375.66 86.29 374.36 87.10 Q 370.68 89.38 365.27 91.16 Q 364.74 91.33 364.96 91.84 Q 365.05 92.05 365.30 92.24 Q 364.44 93.11 364.03 93.86 Q 363.52 94.79 364.52 94.43 L 377.54 89.76 Q 375.13 92.85 371.40 93.95 Q 369.52 94.51 368.31 95.32 Q 366.82 96.33 365.37 97.16 Q 364.83 97.47 365.12 98.01 Q 365.36 98.46 365.85 98.32 L 367.99 97.72 Q 368.15 97.99 368.25 98.55 C 366.94 100.29 365.48 101.75 364.60 103.69 Q 361.71 110.03 360.78 116.96 A 0.99 0.99 0.0 0 1 359.79 117.81 L 352.71 117.66 Q 351.73 117.64 351.41 116.71 L 351.18 116.01 Q 350.88 115.11 351.80 115.31 Q 353.34 115.63 355.06 115.11 Q 356.39 115.52 356.92 114.52 Q 357.84 112.75 357.78 110.72 Q 358.27 110.71 358.26 108.91 Q 362.48 104.93 361.47 99.13 C 361.14 97.20 361.29 96.36 362.68 95.04 Q 363.15 94.59 362.60 94.24 Q 361.87 93.79 361.34 94.51 Q 361.31 93.90 361.00 93.44 Q 360.72 93.01 360.23 93.20 Q 356.52 94.69 353.73 97.23 Q 353.36 97.57 352.87 97.67 Q 351.17 98.01 349.91 99.42 Q 349.55 99.81 349.74 100.31 L 350.16 101.45 Q 350.86 103.37 349.05 102.42 Q 348.64 102.20 347.97 101.78 Q 347.38 101.40 346.97 101.52 Q 346.46 101.68 346.11 102.31 Q 346.09 103.92 344.48 104.79 L 343.60 110.74 Q 343.52 111.26 343.14 110.89 L 340.80 108.61 Q 340.44 108.27 340.12 108.64 Q 338.97 109.99 338.91 111.61 A 0.40 0.39 -72.5 0 1 338.30 111.93 Q 336.63 110.80 334.52 110.87 Q 333.95 110.89 333.57 110.48 L 332.15 108.95 Q 334.30 108.40 335.85 104.95 Q 336.72 106.08 337.75 105.68 Q 338.34 105.45 338.64 104.44 Q 338.46 105.36 338.63 105.46 A 1.45 1.34 -61.3 0 0 340.52 104.82 Q 341.90 102.23 343.74 99.75 Q 344.97 98.09 347.25 97.36 Q 351.22 96.08 354.82 94.41 Q 355.20 94.23 355.38 93.85 L 360.32 83.41 A 0.61 0.60 20.3 0 0 359.93 82.57 Q 359.35 82.41 359.03 83.19 Q 358.93 82.95 358.89 82.76 Q 358.81 82.40 358.49 82.59 Q 354.01 85.27 349.59 88.09 Q 347.38 89.49 342.55 95.72 Q 341.86 95.62 341.66 94.73 Q 341.54 94.18 341.85 93.72 C 342.93 92.13 344.49 91.15 345.77 89.73 Q 347.84 87.41 347.87 87.37 Q 351.55 84.09 356.04 81.58 Q 362.61 77.90 368.90 72.62 Z" transform="matrix(1, 0, 0, 1, 0, -1.4210854715202004e-14)"/>
  <path fill="#ba852a" d=" M 306.87 74.55 L 311.35 91.91 Q 311.42 93.50 312.52 95.55 Q 312.59 95.98 312.79 96.23 Q 313.13 96.66 313.57 96.33 Q 318.42 92.83 324.70 92.88 Q 325.18 92.89 324.92 93.29 Q 322.62 96.90 321.03 100.93 C 320.06 103.38 321.30 105.11 320.54 107.41 Q 319.56 110.40 318.94 113.34 Q 318.62 114.89 318.15 113.38 Q 316.77 108.89 314.45 104.79 C 313.36 102.85 310.11 98.91 307.49 99.28 Q 304.14 99.74 307.18 101.21 C 313.35 104.19 316.05 115.85 316.44 121.91 Q 316.55 123.61 315.67 122.16 C 312.75 117.33 309.04 111.02 305.07 108.39 Q 303.05 107.06 302.14 106.19 Q 301.79 105.85 301.77 105.35 L 301.28 88.77 Q 301.43 88.84 301.58 88.92 Q 302.52 89.10 302.85 90.71 Q 302.87 90.85 302.80 91.77 Q 302.75 92.26 303.11 92.54 Q 303.50 92.85 303.55 93.34 L 304.27 99.89 A 0.48 0.47 -11.9 0 0 304.89 100.29 Q 306.03 99.93 305.92 98.50 Q 304.97 86.71 306.87 74.55 Z" transform="matrix(1, 0, 0, 1, 0, -1.4210854715202004e-14)"/>
  <circle fill="#fdf9ea" cx="338.56" cy="76.50" r="1.24" transform="matrix(1, 0, 0, 1, 0, -1.4210854715202004e-14)"/>
  <path fill="#fcf4d3" d=" M 380.83 78.27 Q 373.06 81.48 365.15 83.51 C 364.21 83.76 363.31 83.64 362.34 83.64 Q 361.99 83.64 361.87 83.31 Q 361.79 83.11 361.90 82.90 Q 362.04 82.62 362.34 82.64 Q 362.89 82.67 363.01 82.26 Q 373.50 79.47 382.31 76.18 Q 385.44 75.01 382.80 77.06 Q 382.14 77.57 380.83 78.27 Z" transform="matrix(1, 0, 0, 1, 0, -1.4210854715202004e-14)"/>
  <path fill="#010000" d=" M 359.03 83.19 Q 355.89 85.59 354.90 90.56 Q 354.54 92.41 352.21 93.07 Q 347.84 94.30 342.55 95.72 Q 347.38 89.49 349.59 88.09 Q 354.01 85.27 358.49 82.59 Q 358.81 82.40 358.89 82.76 Q 358.93 82.95 359.03 83.19 Z M 352.63 88.62 Q 352.65 88.06 352.13 88.28 Q 350.17 89.10 349.89 91.02 Q 349.80 91.64 350.43 91.61 Q 352.58 91.52 352.63 88.62 Z" transform="matrix(1, 0, 0, 1, 0, -1.4210854715202004e-14)"/>
  <path fill="#efdaa3" d=" M 375.29 84.36 L 364.83 88.93 A 1.06 1.06 0.0 0 1 363.51 88.51 Q 363.20 88.01 363.38 87.56 Q 363.56 87.10 364.06 87.09 Q 364.70 87.08 364.77 86.70 Q 369.96 85.26 375.24 83.12 Q 376.15 82.75 376.13 83.73 Q 376.13 83.98 375.29 84.36 Z" transform="matrix(1, 0, 0, 1, 0, -1.4210854715202004e-14)"/>
  <path fill="#c89b3f" d=" M 301.58 88.92 Q 301.43 88.84 301.28 88.77 Q 297.43 101.18 297.44 114.25 Q 297.45 126.81 297.19 140.05 C 297.15 142.45 296.03 144.78 295.74 147.17 Q 295.55 148.70 295.29 147.18 L 293.75 138.14 Q 293.90 120.87 296.01 104.36 L 298.54 94.20 A 0.86 0.83 78.5 0 1 298.84 93.73 Q 299.26 93.39 299.19 92.86 Q 299.15 92.53 299.20 92.21 Q 299.73 89.13 299.93 85.45 A 0.52 0.51 -3.5 0 1 300.36 84.97 L 300.62 84.92 Q 300.88 84.87 300.93 85.14 L 301.58 88.92 Z" transform="matrix(1, 0, 0, 1, 0, -1.4210854715202004e-14)"/>
  <path fill="#fcf4d3" d=" M 377.54 89.76 L 364.52 94.43 Q 363.52 94.79 364.03 93.86 Q 364.44 93.11 365.30 92.24 L 380.47 87.45 Q 381.19 87.22 380.57 87.66 L 377.54 89.76 Z" transform="matrix(1, 0, 0, 1, 0, -1.4210854715202004e-14)"/>
  <path fill="#fcf4d3" d=" M 352.63 88.62 Q 352.58 91.52 350.43 91.61 Q 349.80 91.64 349.89 91.02 Q 350.17 89.10 352.13 88.28 Q 352.65 88.06 352.63 88.62 Z" transform="matrix(1, 0, 0, 1, 0, -1.4210854715202004e-14)"/>
  <path fill="#c89b3f" d=" M 379.74 92.75 L 384.41 88.79 A 0.56 0.56 0.0 0 1 385.29 89.00 L 386.88 92.74 A 0.56 0.56 0.0 0 1 386.60 93.47 L 383.08 95.04 A 0.56 0.56 0.0 0 1 382.60 95.03 L 379.86 93.68 A 0.56 0.56 0.0 0 1 379.74 92.75 Z" transform="matrix(1, 0, 0, 1, 0, -1.4210854715202004e-14)"/>
  <circle fill="#fdf9ea" cx="416.62" cy="90.86" r="1.21" transform="matrix(1, 0, 0, 1, 0, -1.4210854715202004e-14)"/>
  <path fill="#010000" d=" M 452.91 100.19 C 450.62 98.88 446.83 97.71 445.49 95.38 Q 444.56 93.75 443.52 92.37 Q 442.79 91.41 443.83 92.04 Q 448.57 94.94 453.19 99.83 Q 454.24 100.95 452.91 100.19 Z" transform="matrix(1, 0, 0, 1, 0, -1.4210854715202004e-14)"/>
  <path fill="#a06610" d=" M 464.60 98.63 A 0.18 0.18 0.0 0 1 464.45 98.83 L 464.39 98.84 A 2.67 1.22 82.2 0 1 462.82 96.36 L 462.77 96.02 A 2.67 1.22 82.2 0 1 463.62 93.21 L 463.68 93.20 A 0.18 0.18 0.0 0 1 463.88 93.36 L 464.60 98.63 Z" transform="matrix(1, 0, 0, 1, 0, -1.4210854715202004e-14)"/>
  <path fill="#af7b28" d=" M 383.05 104.02 L 387.30 100.89 Q 387.73 100.58 387.64 100.06 L 386.90 95.65 Q 387.53 95.31 387.61 94.79 Q 387.87 93.19 388.42 94.72 Q 389.57 97.89 389.73 101.51 A 0.89 0.88 76.2 0 1 389.23 102.34 L 384.34 104.70 Q 383.76 104.98 383.30 104.53 Q 383.08 104.32 383.05 104.02 Z" transform="matrix(1, 0, 0, 1, 0, -1.4210854715202004e-14)"/>
  <path fill="#fcf4d3" d=" M 358.26 108.91 L 356.10 106.07 Q 355.78 105.66 356.25 105.44 Q 356.60 105.27 356.99 105.45 Q 357.80 105.84 358.64 106.16 Q 359.13 106.35 359.44 105.93 Q 359.74 105.52 359.61 104.94 C 359.44 104.19 358.44 103.57 358.04 102.80 Q 357.00 100.80 358.93 101.96 Q 359.26 102.16 359.63 102.26 Q 360.22 102.43 360.22 101.81 Q 360.24 99.42 359.43 97.23 Q 359.26 96.76 359.64 96.44 Q 360.75 95.51 361.34 94.51 Q 361.87 93.79 362.60 94.24 Q 363.15 94.59 362.68 95.04 C 361.29 96.36 361.14 97.20 361.47 99.13 Q 362.48 104.93 358.26 108.91 Z" transform="matrix(1, 0, 0, 1, 0, -1.4210854715202004e-14)"/>
  <ellipse fill="#fcf4d3" cx="0.00" cy="0.00" transform="matrix(0.06975647374412532, 0.9975640502598242, -0.9975640502598242, 0.06975647374412532, 329.20001220703125, 96.08000183105469)" rx="1.11" ry="0.91"/>
  <path fill="#fcf4d3" d=" M 386.90 95.65 L 387.64 100.06 Q 387.73 100.58 387.30 100.89 L 383.05 104.02 L 381.16 97.86 Q 381.02 97.38 381.49 97.24 L 386.90 95.65 Z" transform="matrix(1, 0, 0, 1, 0, -1.4210854715202004e-14)"/>
  <path fill="#7c4710" d=" M 368.25 98.55 Q 368.15 97.99 367.99 97.72 Q 368.95 97.02 369.43 97.48 Q 369.76 97.79 369.44 98.11 Q 369.11 98.43 368.25 98.55 Z" transform="matrix(1, 0, 0, 1, 0, -1.4210854715202004e-14)"/>
  <path fill="#010000" d=" M 338.64 104.44 Q 338.34 105.45 337.75 105.68 Q 336.72 106.08 335.85 104.95 L 340.51 98.94 Q 340.69 98.71 340.92 98.89 L 341.25 99.15 A 0.33 0.32 33.2 0 1 341.34 99.56 L 338.64 104.44 Z" transform="matrix(1, 0, 0, 1, 0, -1.4210854715202004e-14)"/>
  <path fill="#7c4710" d=" M 346.11 102.31 Q 346.83 103.43 346.77 104.28 Q 346.73 104.86 346.14 104.84 L 344.48 104.79 Q 346.09 103.92 346.11 102.31 Z" transform="matrix(1, 0, 0, 1, 0, -1.4210854715202004e-14)"/>
  <path fill="#d5a543" d=" M 385.92 113.82 Q 386.39 112.47 386.93 111.40 Q 387.71 109.84 387.86 108.98 Q 388.27 106.44 387.28 104.78 Q 388.10 104.18 389.51 104.11 Q 390.04 104.08 390.08 104.61 L 390.55 111.63 Q 390.58 112.14 390.11 112.31 L 385.92 113.82 Z" transform="matrix(1, 0, 0, 1, 0, -1.4210854715202004e-14)"/>
  <path fill="#fdf9ea" d=" M 387.28 104.78 Q 388.27 106.44 387.86 108.98 Q 387.71 109.84 386.93 111.40 Q 386.39 112.47 385.92 113.82 Q 382.62 114.24 379.96 109.80 Q 379.62 109.25 379.84 108.64 L 380.99 105.49 Q 381.26 104.75 381.93 105.16 Q 384.18 106.52 387.28 104.78 Z" transform="matrix(1, 0, 0, 1, 0, -1.4210854715202004e-14)"/>
  <circle fill="#fdf9ea" cx="372.51" cy="108.66" r="1.24" transform="matrix(1, 0, 0, 1, 0, -1.4210854715202004e-14)"/>
  <path fill="#c89b3f" d=" M 474.74 108.53 L 474.69 174.04 L 474.27 180.48 Q 474.23 180.99 473.94 181.40 Q 472.52 183.35 472.60 185.51 Q 472.95 195.42 471.34 203.94 A 3.61 2.03 86.6 0 0 471.28 204.43 L 470.73 214.45 Q 470.70 214.91 470.41 215.26 Q 469.99 215.78 470.16 216.47 Q 470.26 216.87 470.08 217.07 Q 469.75 217.45 469.71 216.95 Q 469.64 215.93 469.10 215.32 L 469.13 127.90 Q 469.60 127.97 470.50 126.74 Q 470.98 126.07 471.06 125.13 Q 471.49 119.40 471.84 116.75 Q 471.88 116.44 472.18 116.40 Q 472.44 116.36 472.43 116.10 Q 472.40 114.88 473.17 113.90 Q 473.49 113.50 473.36 113.00 Q 473.21 112.38 473.68 112.03 Q 474.00 111.78 474.09 111.39 L 474.74 108.53 Z" transform="matrix(1, 0, 0, 1, 0, -1.4210854715202004e-14)"/>
  <path fill="#fcf4d3" d=" M 357.78 110.72 Q 357.84 112.75 356.92 114.52 Q 356.39 115.52 355.06 115.11 L 353.86 113.77 Q 352.85 112.64 354.33 112.95 Q 354.94 113.07 355.51 113.31 Q 357.49 114.15 356.41 112.29 Q 355.62 110.93 354.61 109.61 Q 354.29 109.19 354.82 109.22 Q 356.56 109.34 357.78 110.72 Z" transform="matrix(1, 0, 0, 1, 0, -1.4210854715202004e-14)"/>
  <path fill="#fcf4d3" d=" M 388.26 114.73 C 387.92 117.94 388.44 121.37 384.81 122.77 Q 382.89 123.51 381.06 124.37 Q 380.31 124.72 378.45 126.35 Q 375.90 125.16 372.90 121.40 A 0.97 0.97 0.0 0 1 372.83 120.27 L 378.05 111.80 Q 378.39 111.25 378.77 111.77 Q 380.47 114.08 382.91 115.39 A 1.36 1.30 -35.3 0 0 383.79 115.52 L 388.26 114.73 Z" transform="matrix(1, 0, 0, 1, 0, -1.4210854715202004e-14)"/>
  <path fill="#c89b3f" d=" M 489.26 113.97 L 489.26 204.21 Q 489.09 204.20 488.99 204.26 Q 488.89 204.31 488.87 204.21 Q 488.84 204.07 488.71 203.98 Q 488.54 203.86 488.36 203.98 Q 487.86 204.35 487.69 204.97 Q 487.55 205.46 487.09 205.67 Q 485.13 206.55 483.99 205.20 L 484.00 114.95 L 484.32 115.24 Q 484.58 115.47 484.61 115.12 Q 484.62 114.90 484.76 114.82 Q 484.89 114.75 485.01 114.82 Q 487.78 116.44 489.26 113.97 Z" transform="matrix(1, 0, 0, 1, 0, -1.4210854715202004e-14)"/>
  <path fill="#ba852a" d=" M 378.45 126.35 Q 380.31 124.72 381.06 124.37 Q 382.89 123.51 384.81 122.77 C 388.44 121.37 387.92 117.94 388.26 114.73 Q 389.17 114.37 390.15 114.32 Q 390.73 114.28 390.64 114.86 L 389.57 121.73 A 2.05 2.05 0.0 0 1 388.16 123.36 L 378.45 126.35 Z" transform="matrix(1, 0, 0, 1, 0, -1.4210854715202004e-14)"/>
  <ellipse fill="#fdf9ea" cx="0.00" cy="0.00" transform="matrix(0.9918944421670378, 0.12706461190331889, -0.12706461190331889, 0.9918944421670378, 456.7200012207031, 115.22000122070312)" rx="1.22" ry="1.04"/>
  <path fill="#fdf9ea" d=" M 332.41 124.95 C 332.00 124.12 331.97 123.64 330.98 123.31 Q 328.90 122.63 330.82 121.54 Q 332.02 120.87 332.44 119.76 Q 332.81 118.77 333.28 119.73 Q 333.91 121.04 335.13 121.71 A 0.73 0.73 0.0 0 1 335.15 122.98 Q 333.88 123.72 333.12 124.98 Q 332.74 125.60 332.41 124.95 Z" transform="matrix(1, 0, 0, 1, 0, -1.4210854715202004e-14)"/>
  <path fill="#af7b28" d=" M 270.75 119.79 Q 271.55 120.11 273.18 121.51 Q 273.95 122.17 275.07 121.66 Q 275.14 121.63 275.14 121.70 Q 275.14 121.86 275.23 121.95 Q 275.32 122.04 275.37 121.92 Q 275.67 121.23 276.21 120.96 Q 276.28 167.04 276.20 213.12 Q 276.19 218.30 277.31 221.32 C 279.37 226.89 283.44 231.99 289.42 233.90 Q 292.20 234.79 298.68 234.79 Q 379.95 234.77 464.75 234.81 C 473.57 234.82 481.71 227.09 483.51 218.57 C 484.30 214.86 483.88 209.56 483.99 205.20 Q 485.13 206.55 487.09 205.67 Q 487.55 205.46 487.69 204.97 Q 487.86 204.35 488.36 203.98 Q 488.54 203.86 488.71 203.98 Q 488.84 204.07 488.87 204.21 Q 488.89 204.31 488.99 204.26 Q 489.09 204.20 489.26 204.21 C 489.31 209.88 489.76 216.51 488.39 221.52 C 486.14 229.81 479.67 236.69 471.21 239.03 Q 468.77 239.71 464.24 239.77 Q 457.54 239.85 450.75 239.85 Q 379.75 239.84 308.75 239.98 Q 300.50 240.00 292.26 239.67 Q 286.53 239.44 282.64 236.66 C 275.84 231.81 270.95 224.08 270.87 215.63 Q 270.64 192.80 270.75 119.79 Z" transform="matrix(1, 0, 0, 1, 0, -1.4210854715202004e-14)"/>
  <path fill="#e5c375" d=" M 406.97 119.87 L 400.75 131.34 Q 400.42 131.94 400.91 132.43 Q 401.82 133.32 402.90 133.36 Q 405.45 133.47 406.74 135.25 Q 408.97 138.33 409.57 141.89 Q 406.50 142.70 405.43 144.44 Q 404.60 145.80 403.93 146.32 Q 403.71 139.45 397.58 134.57 Q 397.18 134.25 397.16 133.74 Q 397.01 129.09 399.52 126.75 Q 403.17 123.36 406.97 119.87 Z" transform="matrix(1, 0, 0, 1, 0, -1.4210854715202004e-14)"/>
  <path fill="#ba852a" d=" M 290.33 124.06 L 291.81 132.74 L 291.34 132.35 Q 290.89 131.98 290.82 132.57 Q 290.64 134.29 290.61 136.00 Q 289.97 173.48 290.30 214.00 Q 290.32 216.09 291.40 218.26 Q 290.23 218.42 291.43 219.32 Q 293.68 220.99 296.50 220.98 Q 335.42 220.86 374.33 221.08 Q 374.77 221.08 374.86 220.65 Q 374.93 220.36 375.19 220.02 L 377.73 224.90 Q 377.99 225.38 377.44 225.45 Q 374.95 225.76 372.50 225.76 Q 333.34 225.75 296.25 225.70 Q 292.40 225.70 288.73 222.51 Q 283.63 218.08 284.87 211.25 Q 285.84 205.91 285.88 199.00 Q 286.04 172.65 286.11 146.29 Q 286.11 146.20 285.90 138.21 Q 285.73 131.97 286.63 125.79 Q 286.94 123.66 287.89 121.56 A 0.49 0.49 0.0 0 1 288.68 121.41 L 289.33 122.06 Q 289.65 122.39 289.62 122.84 Q 289.58 123.71 290.33 124.06 Z" transform="matrix(1, 0, 0, 1, 0, -1.4210854715202004e-14)"/>
  <path fill="#fdf9ea" d=" M 369.38 121.84 C 366.60 127.98 364.10 133.75 363.93 140.58 Q 363.83 144.46 363.17 140.63 Q 362.00 133.77 364.60 127.41 Q 365.88 124.25 369.00 121.55 Q 369.84 120.82 369.38 121.84 Z" transform="matrix(1, 0, 0, 1, 0, -1.4210854715202004e-14)"/>
  <path fill="#fcf4d3" d=" M 384.78 126.42 Q 385.26 130.54 382.51 133.08 C 380.16 133.58 376.11 134.69 373.92 133.78 Q 371.49 132.77 369.09 129.87 A 0.30 0.29 35.2 0 1 369.04 129.61 Q 370.06 126.59 371.29 123.63 A 0.17 0.16 -57.8 0 1 371.55 123.57 L 376.64 128.02 Q 377.06 128.39 377.61 128.25 L 384.78 126.42 Z" transform="matrix(1, 0, 0, 1, 0, -1.4210854715202004e-14)"/>
  <path fill="#fcf4d3" d=" M 455.69 137.03 Q 451.73 136.65 448.91 139.71 A 0.88 0.88 0.0 0 1 447.67 139.76 Q 445.09 137.41 439.91 136.38 Q 445.49 134.12 446.96 129.50 Q 447.61 127.45 447.89 126.23 Q 448.33 124.33 448.85 126.20 C 450.08 130.65 451.70 134.31 456.40 135.95 Q 456.94 136.14 456.61 136.61 Q 456.39 136.93 455.69 137.03 Z" transform="matrix(1, 0, 0, 1, 0, -1.4210854715202004e-14)"/>
  <path fill="#c89b3f" d=" M 382.51 133.08 Q 385.26 130.54 384.78 126.42 L 388.05 125.59 Q 388.59 125.45 388.49 126.00 L 387.41 131.72 Q 387.31 132.25 386.78 132.34 L 382.51 133.08 Z" transform="matrix(1, 0, 0, 1, 0, -1.4210854715202004e-14)"/>
  <path fill="#fcf4d3" d=" M 360.17 136.82 Q 357.78 136.61 356.10 137.55 Q 354.94 133.11 351.14 132.53 Q 350.98 133.92 350.36 134.70 Q 350.02 135.13 349.48 135.10 Q 347.74 135.00 346.18 135.59 C 344.14 136.37 341.90 136.63 339.78 137.19 Q 338.87 137.43 339.70 137.86 Q 340.29 138.16 340.11 138.72 A 1.04 1.02 41.0 0 0 340.17 139.50 Q 340.53 140.19 340.27 140.74 Q 339.97 141.38 339.27 141.39 Q 336.79 141.44 334.50 140.61 Q 330.45 139.14 326.20 140.00 C 324.82 139.28 323.34 136.10 322.56 134.77 A 1.25 1.24 -18.4 0 0 321.33 134.16 Q 317.59 134.61 313.73 133.85 Q 313.18 133.74 312.88 134.23 Q 312.62 134.65 312.14 134.67 Q 311.50 134.70 311.50 134.18 Q 312.15 133.58 312.88 133.05 Q 313.40 132.66 313.42 132.31 Q 313.43 131.87 313.08 131.63 Q 312.79 131.43 312.43 131.44 Q 307.69 131.53 303.33 132.27 Q 302.31 132.44 303.10 131.77 C 305.64 129.61 311.41 126.70 314.45 128.88 Q 315.50 129.65 316.54 130.47 A 1.06 1.05 -32.1 0 0 317.47 130.68 L 320.34 129.95 Q 321.70 129.61 322.54 130.72 L 325.80 134.99 Q 326.11 135.39 326.61 135.43 Q 330.91 135.81 334.90 136.97 Q 335.41 137.11 335.90 136.92 Q 340.02 135.34 343.95 133.59 C 349.64 131.05 356.03 129.15 362.13 127.30 Q 362.60 127.16 362.39 127.61 Q 360.51 131.71 360.17 136.82 Z" transform="matrix(1, 0, 0, 1, 0, -1.4210854715202004e-14)"/>
  <ellipse fill="#fdf9ea" cx="0.00" cy="0.00" transform="matrix(-0.16160387366647586, 0.9868557077992658, -0.9868557077992658, -0.16160387366647586, 463.0400085449219, 132.3000030517578)" rx="1.33" ry="1.09"/>
  <path fill="#c89b3f" d=" M 391.37 132.86 Q 396.57 137.77 397.37 139.47 Q 399.02 142.96 400.79 146.39 Q 401.68 148.12 402.90 151.24 Q 403.83 153.58 405.14 156.08 L 406.32 159.16 Q 406.51 159.65 406.87 159.28 L 407.75 158.39 Q 407.46 160.05 406.28 160.74 Q 405.84 161.00 405.61 160.54 Q 402.77 154.79 400.43 149.12 Q 398.73 145.02 395.57 142.00 Q 394.99 141.45 395.22 142.22 Q 396.42 146.21 398.08 149.56 Q 398.75 150.93 397.39 150.26 Q 391.60 147.42 390.86 140.90 Q 390.62 138.78 391.37 132.86 Z" transform="matrix(1, 0, 0, 1, 0, -1.4210854715202004e-14)"/>
  <path fill="#e5c375" d=" M 351.14 132.53 Q 353.34 135.13 353.37 137.50 Q 350.26 140.14 347.08 140.26 Q 346.12 137.81 344.28 137.66 Q 343.72 137.61 343.63 138.17 Q 343.57 138.56 343.88 139.14 Q 342.55 147.83 335.57 147.40 Q 336.35 146.63 333.33 145.06 Q 333.34 143.74 331.20 142.48 L 330.85 141.33 Q 330.69 140.84 330.18 140.76 Q 328.74 140.53 327.27 140.42 Q 326.22 140.34 326.20 140.00 Q 330.45 139.14 334.50 140.61 Q 336.79 141.44 339.27 141.39 Q 339.97 141.38 340.27 140.74 Q 340.53 140.19 340.17 139.50 A 1.04 1.02 41.0 0 1 340.11 138.72 Q 340.29 138.16 339.70 137.86 Q 338.87 137.43 339.78 137.19 C 341.90 136.63 344.14 136.37 346.18 135.59 Q 347.74 135.00 349.48 135.10 Q 350.02 135.13 350.36 134.70 Q 350.98 133.92 351.14 132.53 Z" transform="matrix(1, 0, 0, 1, 0, -1.4210854715202004e-14)"/>
  <path fill="#fcf4d3" d=" M 380.12 135.60 Q 378.47 137.98 373.63 139.02 Q 371.08 139.56 369.82 139.44 Q 369.34 139.39 369.41 139.88 Q 369.55 140.91 370.12 143.00 Q 370.24 143.45 370.06 145.20 Q 365.88 143.73 366.29 139.25 Q 366.59 135.93 367.81 132.96 A 0.57 0.57 0.0 0 1 368.72 132.75 C 370.69 134.48 372.29 136.22 375.25 135.87 Q 377.29 135.64 380.12 135.60 Z" transform="matrix(1, 0, 0, 1, 0, -1.4210854715202004e-14)"/>
  <path fill="#af7b28" d=" M 326.20 140.00 Q 326.22 140.34 327.27 140.42 Q 328.74 140.53 330.18 140.76 Q 330.69 140.84 330.85 141.33 L 331.20 142.48 C 328.92 141.28 327.11 143.25 325.42 144.11 Q 324.95 144.35 324.59 143.97 Q 322.24 141.56 322.22 137.87 A 1.04 1.04 0.0 0 0 320.85 136.89 C 317.58 137.97 314.82 139.29 312.16 136.01 Q 311.85 135.63 311.51 135.28 Q 310.92 134.65 311.50 134.18 Q 311.50 134.70 312.14 134.67 Q 312.62 134.65 312.88 134.23 Q 313.18 133.74 313.73 133.85 Q 317.59 134.61 321.33 134.16 A 1.25 1.24 -18.4 0 1 322.56 134.77 C 323.34 136.10 324.82 139.28 326.20 140.00 Z" transform="matrix(1, 0, 0, 1, 0, -1.4210854715202004e-14)"/>
  <path fill="#e0b759" d=" M 370.06 145.20 Q 370.24 143.45 370.12 143.00 Q 369.55 140.91 369.41 139.88 Q 369.34 139.39 369.82 139.44 Q 371.08 139.56 373.63 139.02 Q 378.47 137.98 380.12 135.60 L 386.29 135.07 Q 386.91 135.02 386.90 135.64 L 386.87 142.18 Q 386.86 142.64 386.44 142.84 L 377.07 147.21 Q 376.58 147.44 376.07 147.26 L 370.06 145.20 Z" transform="matrix(1, 0, 0, 1, 0, -1.4210854715202004e-14)"/>
  <path fill="#a06610" d=" M 360.17 136.82 L 360.40 143.03 Q 360.41 143.29 360.15 143.32 L 355.35 143.92 A 0.18 0.18 0.0 0 1 355.14 143.71 L 356.10 137.55 Q 357.78 136.61 360.17 136.82 Z" transform="matrix(1, 0, 0, 1, 0, -1.4210854715202004e-14)"/>
  <path fill="#af7b28" d=" M 439.91 136.38 Q 445.09 137.41 447.67 139.76 A 0.88 0.88 0.0 0 0 448.91 139.71 Q 451.73 136.65 455.69 137.03 Q 452.66 139.55 451.98 140.48 Q 450.15 142.94 448.99 148.39 Q 448.93 148.68 448.70 148.90 Q 448.56 149.03 448.39 148.98 Q 448.07 148.89 448.01 148.57 C 446.89 142.62 445.07 140.18 439.91 136.38 Z" transform="matrix(1, 0, 0, 1, 0, -1.4210854715202004e-14)"/>
  <path fill="#a06610" d=" M 353.37 137.50 Q 353.92 143.65 348.63 145.04 A 0.90 0.90 0.0 0 1 347.50 144.26 L 347.08 140.26 Q 350.26 140.14 353.37 137.50 Z" transform="matrix(1, 0, 0, 1, 0, -1.4210854715202004e-14)"/>
  <path fill="#fcf4d3" d=" M 311.02 140.87 Q 311.62 142.18 309.53 142.74 Q 308.47 143.01 307.35 143.22 C 305.93 143.49 304.36 143.01 302.85 143.68 Q 299.77 145.27 297.45 147.77 Q 297.09 148.15 297.20 147.64 Q 298.09 143.21 302.35 140.32 Q 306.83 137.28 311.02 140.87 Z" transform="matrix(1, 0, 0, 1, 0, -1.4210854715202004e-14)"/>
  <path fill="#af7b28" d=" M 343.88 139.14 Q 345.96 142.58 344.17 147.15 Q 342.95 150.28 339.57 151.44 Q 339.05 151.62 338.86 151.11 L 337.97 148.79 A 0.42 0.41 -23.5 0 0 337.40 148.57 Q 332.75 150.92 332.03 156.12 A 2.29 2.28 4.6 0 1 329.71 158.09 L 325.61 157.99 Q 323.46 157.93 323.46 155.78 Q 323.46 153.04 323.97 150.55 Q 324.67 147.08 327.39 145.95 Q 327.77 148.32 329.04 150.51 A 1.09 1.09 0.0 0 0 330.88 150.60 Q 332.33 148.56 335.57 147.40 Q 342.55 147.83 343.88 139.14 Z" transform="matrix(1, 0, 0, 1, 0, -1.4210854715202004e-14)"/>
  <path fill="#c89b3f" d=" M 311.02 140.87 Q 313.68 141.50 313.64 144.52 Q 313.64 145.05 313.25 145.41 C 310.84 147.64 308.67 146.33 306.01 146.16 Q 305.49 146.13 305.13 146.51 Q 304.80 146.86 304.32 146.88 Q 303.79 146.90 303.79 146.37 Q 303.78 144.80 302.85 143.68 C 304.36 143.01 305.93 143.49 307.35 143.22 Q 308.47 143.01 309.53 142.74 Q 311.62 142.18 311.02 140.87 Z" transform="matrix(1, 0, 0, 1, 0, -1.4210854715202004e-14)"/>
  <path fill="#a06610" d=" M 414.05 151.68 Q 413.70 147.25 410.47 144.31 Q 412.25 143.68 414.69 144.01 Q 415.29 144.10 415.60 144.62 L 418.93 150.26 Q 419.30 150.89 418.57 151.00 L 414.05 151.68 Z" transform="matrix(1, 0, 0, 1, 0, -1.4210854715202004e-14)"/>
  <path fill="#e5c375" d=" M 410.47 144.31 Q 413.70 147.25 414.05 151.68 Q 410.11 154.33 407.75 158.39 L 406.87 159.28 Q 406.51 159.65 406.32 159.16 L 405.14 156.08 Q 407.28 154.52 406.03 150.27 Q 405.89 149.80 406.12 149.37 Q 406.80 148.06 405.53 146.58 Q 407.13 144.91 410.47 144.31 Z" transform="matrix(1, 0, 0, 1, 0, -1.4210854715202004e-14)"/>
  <path fill="#fcf4d3" d=" M 333.33 145.06 Q 336.35 146.63 335.57 147.40 Q 332.33 148.56 330.88 150.60 A 1.09 1.09 0.0 0 1 329.04 150.51 Q 327.77 148.32 327.39 145.95 Q 330.61 144.29 333.33 145.06 Z" transform="matrix(1, 0, 0, 1, 0, -1.4210854715202004e-14)"/>
  <path fill="#fcf4d3" d=" M 370.09 147.74 L 371.98 154.38 C 367.67 153.24 366.47 149.70 366.30 145.80 Q 366.27 145.27 366.72 145.56 L 370.09 147.74 Z" transform="matrix(1, 0, 0, 1, 0, -1.4210854715202004e-14)"/>
  <path fill="#c89b3f" d=" M 390.49 149.79 L 390.37 150.40 Q 390.28 150.93 389.75 151.04 Q 389.40 151.11 389.15 151.39 Q 388.79 151.80 388.26 151.90 Q 386.60 152.23 385.23 153.07 Q 383.82 153.93 382.02 154.70 Q 380.28 155.44 378.70 156.76 Q 375.04 156.27 371.98 154.38 L 370.09 147.74 L 376.47 149.49 Q 376.98 149.63 377.47 149.44 L 387.28 145.59 A 0.89 0.89 0.0 0 1 388.38 145.98 L 390.49 149.79 Z" transform="matrix(1, 0, 0, 1, 0, -1.4210854715202004e-14)"/>
  <path fill="#e5c375" d=" M 314.88 152.16 Q 310.91 154.69 310.76 159.64 A 0.29 0.29 0.0 0 1 310.21 159.76 C 308.67 156.64 306.21 150.20 311.65 148.97 Q 313.89 148.46 315.50 147.22 C 316.99 146.07 319.56 145.68 320.84 147.30 A 1.74 1.74 0.0 0 1 320.89 149.38 Q 319.66 151.10 318.42 152.59 Q 317.17 154.08 315.73 152.30 A 0.65 0.64 -35.5 0 0 314.88 152.16 Z" transform="matrix(1, 0, 0, 1, 0, -1.4210854715202004e-14)"/>
  <path fill="#af7b28" d=" M 432.46 155.32 C 430.71 156.52 429.31 155.89 428.52 158.45 A 0.30 0.30 0.0 0 1 427.97 158.52 Q 425.33 154.23 422.11 150.50 Q 420.87 149.06 422.72 149.48 Q 427.71 150.60 432.49 154.58 A 0.47 0.47 0.0 0 1 432.46 155.32 Z" transform="matrix(1, 0, 0, 1, 0, -1.4210854715202004e-14)"/>
  <path fill="#a06610" d=" M 390.49 149.79 Q 391.24 150.25 391.63 151.08 Q 391.85 151.54 391.39 151.77 Q 387.27 153.81 383.28 156.02 Q 381.65 156.92 378.70 156.76 Q 380.28 155.44 382.02 154.70 Q 383.82 153.93 385.23 153.07 Q 386.60 152.23 388.26 151.90 Q 388.79 151.80 389.15 151.39 Q 389.40 151.11 389.75 151.04 Q 390.28 150.93 390.37 150.40 L 390.49 149.79 Z" transform="matrix(1, 0, 0, 1, 0, -1.4210854715202004e-14)"/>
  <path fill="#efdaa3" d=" M 462.87 158.87 Q 460.87 156.22 457.37 154.90 A 0.38 0.38 0.0 0 1 457.34 154.21 Q 459.40 153.22 460.35 150.81 Q 461.06 149.00 461.56 150.88 L 463.56 158.53 Q 464.06 160.43 462.87 158.87 Z" transform="matrix(1, 0, 0, 1, 0, -1.4210854715202004e-14)"/>
  <path fill="#efdaa3" d=" M 366.38 156.04 L 363.75 167.36 L 361.10 164.78 Q 360.72 164.40 360.35 164.79 L 355.59 169.90 Q 353.15 165.85 349.32 164.15 Q 348.79 163.91 349.13 163.44 Q 354.45 156.03 363.84 152.48 Q 364.33 152.29 364.58 152.75 L 366.38 156.04 Z" transform="matrix(1, 0, 0, 1, 0, -1.4210854715202004e-14)"/>
  <path fill="#af7b28" d=" M 419.39 159.53 Q 423.08 157.49 415.29 153.87 Q 419.52 152.24 422.11 154.65 Q 425.03 157.38 426.80 160.84 A 0.89 0.89 0.0 0 1 425.98 162.14 Q 421.98 161.99 419.39 159.53 Z" transform="matrix(1, 0, 0, 1, 0, -1.4210854715202004e-14)"/>
  <path fill="#efdaa3" d=" M 415.29 153.87 Q 423.08 157.49 419.39 159.53 Q 417.41 159.61 415.96 160.42 Q 415.15 160.88 416.08 160.95 C 417.86 161.07 419.86 161.25 421.45 162.13 Q 422.07 162.48 421.66 163.06 L 420.17 165.14 Q 419.72 165.77 419.23 165.17 C 416.80 162.13 413.86 161.39 410.44 159.96 Q 409.97 159.77 410.18 159.31 Q 412.01 155.44 415.29 153.87 Z" transform="matrix(1, 0, 0, 1, 0, -1.4210854715202004e-14)"/>
  <path fill="#a06610" d=" M 400.81 166.65 L 395.45 158.23 A 0.57 0.57 0.0 0 1 395.60 157.46 L 398.84 155.24 A 0.57 0.57 0.0 0 1 399.71 155.53 L 402.42 163.85 A 0.57 0.57 0.0 0 1 402.43 164.17 L 401.84 166.48 A 0.57 0.57 0.0 0 1 400.81 166.65 Z" transform="matrix(1, 0, 0, 1, 0, -1.4210854715202004e-14)"/>
  <path fill="#fcf4d3" d=" M 378.79 160.04 Q 379.04 161.47 378.25 162.12 Q 377.68 162.59 377.05 162.29 Q 373.23 159.57 370.32 156.17 Q 369.89 155.67 370.48 155.96 L 378.79 160.04 Z" transform="matrix(1, 0, 0, 1, 0, -1.4210854715202004e-14)"/>
  <path fill="#d5a543" d=" M 366.38 156.04 L 369.17 159.02 L 364.18 166.61 Q 363.97 166.98 363.75 167.36 L 366.38 156.04 Z" transform="matrix(1, 0, 0, 1, 0, -1.4210854715202004e-14)"/>
  <path fill="#af7b28" d=" M 296.85 169.96 C 298.46 167.58 300.29 167.67 302.78 167.32 Q 303.28 167.25 303.18 166.76 Q 302.22 161.93 304.51 156.41 Q 304.79 156.56 305.22 157.61 Q 305.48 158.24 305.42 158.97 Q 305.04 163.59 304.85 168.59 A 1.53 1.53 0.0 0 1 303.29 170.07 L 296.85 169.96 Z" transform="matrix(1, 0, 0, 1, 0, -1.4210854715202004e-14)"/>
  <path fill="#efdaa3" d=" M 304.51 156.41 Q 302.22 161.93 303.18 166.76 Q 303.28 167.25 302.78 167.32 C 300.29 167.67 298.46 167.58 296.85 169.96 Q 296.37 170.22 296.01 170.20 Q 295.38 170.16 295.77 169.66 C 298.62 166.00 301.94 163.37 302.81 157.82 Q 302.94 157.05 303.29 156.76 Q 303.76 156.38 304.51 156.41 Z" transform="matrix(1, 0, 0, 1, 0, -1.4210854715202004e-14)"/>
  <path fill="#fcf4d3" d=" M 455.88 160.37 L 451.97 159.59 A 0.84 0.84 0.0 0 0 451.11 160.87 L 454.59 166.16 Q 451.28 164.51 448.97 164.98 Q 446.71 160.99 443.34 160.33 Q 444.09 158.80 446.12 157.48 C 449.60 155.22 453.56 157.45 455.88 160.37 Z" transform="matrix(1, 0, 0, 1, 0, -1.4210854715202004e-14)"/>
  <path fill="#fcf4d3" d=" M 441.39 161.51 L 436.55 160.70 A 0.63 0.63 0.0 0 0 435.93 161.68 Q 437.75 164.38 437.93 167.70 Q 437.99 168.88 437.22 167.98 Q 435.91 166.47 433.11 166.75 Q 431.72 166.12 430.06 166.52 Q 429.94 166.44 429.81 166.40 Q 429.51 166.30 429.33 166.56 Q 427.85 168.60 429.60 170.52 Q 431.88 173.02 433.30 176.99 Q 433.33 177.77 433.18 178.13 Q 432.92 178.78 432.66 178.13 Q 430.82 173.52 426.10 172.14 A 1.02 1.02 0.0 0 1 425.46 170.75 Q 426.57 168.25 427.31 165.66 Q 428.24 162.35 432.02 158.04 Q 432.46 157.55 433.12 157.56 Q 437.89 157.66 441.39 161.51 Z" transform="matrix(1, 0, 0, 1, 0, -1.4210854715202004e-14)"/>
  <path fill="#a06610" d=" M 369.17 159.02 Q 372.45 163.15 372.17 170.42 Q 372.16 170.67 371.94 170.79 Q 368.13 172.94 364.20 174.90 A 0.09 0.08 -4.8 0 1 364.08 174.80 Q 365.27 170.76 363.74 168.03 Q 364.22 167.69 364.18 166.61 L 369.17 159.02 Z" transform="matrix(1, 0, 0, 1, 0, -1.4210854715202004e-14)"/>
  <path fill="#a06610" d=" M 377.05 162.29 Q 377.68 162.59 378.25 162.12 Q 379.04 161.47 378.79 160.04 L 383.02 159.13 Q 383.50 159.03 383.33 159.49 Q 382.24 162.46 379.43 163.77 Q 378.97 163.99 378.53 163.72 Q 377.62 163.15 377.05 162.29 Z" transform="matrix(1, 0, 0, 1, 0, -1.4210854715202004e-14)"/>
  <path fill="#a06610" d=" M 455.88 160.37 Q 458.42 163.81 459.29 168.39 Q 459.39 168.93 458.92 168.65 L 454.59 166.16 L 451.11 160.87 A 0.84 0.84 0.0 0 1 451.97 159.59 L 455.88 160.37 Z" transform="matrix(1, 0, 0, 1, 0, -1.4210854715202004e-14)"/>
  <path fill="#fcf4d3" d=" M 325.07 160.26 Q 326.11 161.97 324.75 163.50 Q 322.14 166.47 317.23 165.45 L 316.46 165.04 Q 314.92 164.21 316.67 164.06 C 319.34 163.82 322.01 164.21 322.63 160.88 A 1.06 1.06 0.0 0 1 323.32 160.09 Q 324.12 159.82 325.07 160.26 Z" transform="matrix(1, 0, 0, 1, 0, -1.4210854715202004e-14)"/>
  <path fill="#af7b28" d=" M 325.07 160.26 C 329.61 159.95 327.87 165.26 326.38 167.15 A 1.37 1.35 13.0 0 1 325.57 167.65 Q 321.02 168.59 317.23 165.45 Q 322.14 166.47 324.75 163.50 Q 326.11 161.97 325.07 160.26 Z" transform="matrix(1, 0, 0, 1, 0, -1.4210854715202004e-14)"/>
  <path fill="#af7b28" d=" M 441.39 161.51 Q 445.09 168.72 441.02 177.26 A 0.59 0.59 0.0 0 1 439.94 177.23 C 438.14 172.86 437.89 169.29 433.11 166.75 Q 435.91 166.47 437.22 167.98 Q 437.99 168.88 437.93 167.70 Q 437.75 164.38 435.93 161.68 A 0.63 0.63 0.0 0 1 436.55 160.70 L 441.39 161.51 Z" transform="matrix(1, 0, 0, 1, 0, -1.4210854715202004e-14)"/>
  <path fill="#af7b28" d=" M 443.34 160.33 Q 446.71 160.99 448.97 164.98 L 447.38 166.92 Q 447.02 167.36 446.76 166.86 L 443.34 160.33 Z" transform="matrix(1, 0, 0, 1, 0, -1.4210854715202004e-14)"/>
  <path fill="#fcf4d3" d=" M 415.14 164.67 Q 411.99 163.52 409.97 165.14 Q 409.58 165.45 409.77 165.92 Q 411.17 169.46 409.25 170.41 Q 407.60 169.56 406.78 169.93 Q 403.40 171.47 402.84 175.14 Q 402.62 176.60 402.21 175.19 C 401.35 172.18 401.30 170.17 403.18 167.42 Q 404.79 165.05 406.55 162.53 A 2.05 2.02 -74.9 0 1 408.01 161.68 Q 412.19 161.30 415.14 164.67 Z" transform="matrix(1, 0, 0, 1, 0, -1.4210854715202004e-14)"/>
  <path fill="#c89b3f" d=" M 415.14 164.67 Q 418.48 168.58 416.59 172.26 Q 415.17 175.02 414.93 171.92 Q 414.79 170.12 414.88 168.80 Q 415.02 166.60 414.15 168.63 Q 412.81 171.72 412.98 176.02 Q 412.99 176.26 412.75 176.28 Q 412.60 176.29 412.45 176.29 Q 412.42 176.29 412.42 176.27 Q 411.23 172.60 409.25 170.41 Q 411.17 169.46 409.77 165.92 Q 409.58 165.45 409.97 165.14 Q 411.99 163.52 415.14 164.67 Z" transform="matrix(1, 0, 0, 1, 0, -1.4210854715202004e-14)"/>
  <path fill="#af7b28" d=" M 363.75 167.36 Q 363.97 166.98 364.18 166.61 Q 364.22 167.69 363.74 168.03 Q 362.95 169.74 362.35 171.28 C 361.35 173.83 359.49 175.09 357.56 176.78 Q 357.21 177.09 357.10 176.63 L 355.59 169.90 L 360.35 164.79 Q 360.72 164.40 361.10 164.78 L 363.75 167.36 Z" transform="matrix(1, 0, 0, 1, 0, -1.4210854715202004e-14)"/>
  <path fill="#c89b3f" d=" M 425.28 165.94 C 424.48 168.87 422.22 171.41 421.01 174.07 Q 418.78 178.97 419.17 173.60 C 419.33 171.45 421.11 165.52 423.57 164.76 Q 424.24 164.55 424.76 164.79 A 0.99 0.98 20.8 0 1 425.28 165.94 Z" transform="matrix(1, 0, 0, 1, 0, -1.4210854715202004e-14)"/>
  <path fill="#fdf9ea" d=" M 350.75 167.76 L 344.46 174.16 Q 343.63 175.04 343.62 176.40 Q 343.62 176.93 343.09 176.94 C 341.42 176.96 338.41 176.68 336.91 177.52 Q 336.16 177.94 335.36 178.23 Q 334.82 178.43 334.30 178.20 Q 329.53 176.12 324.50 174.97 Q 324.19 174.90 323.46 175.09 Q 323.01 175.01 322.97 174.57 A 0.40 0.39 71.7 0 1 323.16 174.18 Q 325.47 172.85 328.05 173.07 C 331.21 173.34 332.68 177.15 335.96 174.93 A 1.89 1.86 -60.2 0 1 337.10 174.61 L 340.92 174.79 A 1.59 1.58 -75.5 0 0 342.44 173.89 Q 344.33 169.94 347.27 166.19 Q 347.59 165.77 348.12 165.86 Q 349.67 166.12 350.75 167.76 Z" transform="matrix(1, 0, 0, 1, 0, -1.4210854715202004e-14)"/>
  <path fill="#c89b3f" d=" M 430.06 166.52 L 430.05 167.13 Q 430.05 167.64 430.46 167.94 Q 434.95 171.24 433.30 176.99 Q 431.88 173.02 429.60 170.52 Q 427.85 168.60 429.33 166.56 Q 429.51 166.30 429.81 166.40 Q 429.94 166.44 430.06 166.52 Z" transform="matrix(1, 0, 0, 1, 0, -1.4210854715202004e-14)"/>
  <path fill="#ba852a" d=" M 350.75 167.76 C 353.64 169.77 354.15 174.90 354.22 178.31 Q 354.24 178.97 353.75 178.53 Q 351.70 176.67 348.63 175.07 Q 347.63 174.55 346.82 175.15 Q 346.38 175.47 346.80 175.83 C 348.53 177.32 350.63 178.74 350.96 181.11 Q 351.49 184.91 350.49 187.91 Q 349.52 190.85 345.20 191.78 Q 344.55 191.92 344.44 191.26 L 343.96 188.16 A 0.50 0.49 -23.8 0 0 343.16 187.85 L 339.22 191.11 Q 338.86 191.41 338.50 191.11 L 333.56 187.04 Q 337.80 187.16 340.18 185.09 L 346.00 181.56 A 1.61 1.47 -63.5 0 1 346.44 181.39 L 348.18 181.07 Q 348.77 180.95 348.50 180.41 Q 347.34 178.09 345.31 176.89 Q 344.89 176.64 344.89 176.16 Q 344.89 175.18 344.46 174.16 L 350.75 167.76 Z" transform="matrix(1, 0, 0, 1, 0, -1.4210854715202004e-14)"/>
  <path fill="#ba852a" d=" M 451.20 169.08 Q 455.08 171.59 454.14 176.02 Q 453.67 178.20 451.76 180.68 Q 451.42 181.13 451.13 180.64 Q 449.60 178.00 447.43 175.48 A 2.34 2.33 37.4 0 1 447.09 172.97 L 448.55 169.84 Q 449.44 167.95 451.20 169.08 Z" transform="matrix(1, 0, 0, 1, 0, -1.4210854715202004e-14)"/>
  <path fill="#af7b28" d=" M 407.84 174.50 C 408.87 177.50 411.96 180.68 409.28 183.72 A 1.28 1.28 0.0 0 1 407.18 183.45 Q 404.95 179.07 406.89 174.47 Q 407.41 173.24 407.84 174.50 Z" transform="matrix(1, 0, 0, 1, 0, -1.4210854715202004e-14)"/>
  <path fill="#af7b28" d=" M 474.69 174.04 Q 474.96 193.02 474.70 212.00 Q 474.63 216.62 473.73 218.64 Q 471.95 222.64 467.81 224.72 Q 465.69 225.79 460.29 225.79 Q 421.82 225.79 383.45 225.71 A 0.44 0.43 -77.4 0 1 383.06 225.09 L 385.15 220.74 Q 385.20 220.88 385.26 220.97 Q 385.34 221.12 385.52 221.12 Q 395.76 220.90 406.00 221.21 Q 416.79 221.54 427.66 220.30 Q 432.73 220.03 438.07 220.33 Q 445.70 220.75 448.45 220.76 Q 455.98 220.77 463.49 220.73 Q 468.48 220.70 469.10 215.32 Q 469.64 215.93 469.71 216.95 Q 469.75 217.45 470.08 217.07 Q 470.26 216.87 470.16 216.47 Q 469.99 215.78 470.41 215.26 Q 470.70 214.91 470.73 214.45 L 471.28 204.43 A 3.61 2.03 86.6 0 1 471.34 203.94 Q 472.95 195.42 472.60 185.51 Q 472.52 183.35 473.94 181.40 Q 474.23 180.99 474.27 180.48 L 474.69 174.04 Z" transform="matrix(1, 0, 0, 1, 0, -1.4210854715202004e-14)"/>
  <path fill="#e0b759" d=" M 344.46 174.16 Q 344.89 175.18 344.89 176.16 Q 344.89 176.64 345.31 176.89 Q 347.34 178.09 348.50 180.41 Q 348.77 180.95 348.18 181.07 L 346.44 181.39 A 1.61 1.47 -63.5 0 0 346.00 181.56 L 340.18 185.09 L 340.50 184.41 Q 340.73 183.94 340.22 183.86 Q 339.67 183.78 339.23 183.32 Q 339.86 183.18 339.91 182.98 A 1.66 1.65 -84.2 0 0 338.27 180.96 Q 335.56 181.01 332.87 181.02 Q 332.32 181.02 331.95 181.41 L 330.90 182.52 Q 330.53 182.91 330.17 182.51 L 323.46 175.09 Q 324.19 174.90 324.50 174.97 Q 329.53 176.12 334.30 178.20 Q 334.82 178.43 335.36 178.23 Q 336.16 177.94 336.91 177.52 C 338.41 176.68 341.42 176.96 343.09 176.94 Q 343.62 176.93 343.62 176.40 Q 343.63 175.04 344.46 174.16 Z" transform="matrix(1, 0, 0, 1, 0, -1.4210854715202004e-14)"/>
  <path fill="#efdaa3" d=" M 400.51 188.61 Q 398.46 187.07 392.46 181.05 C 389.54 178.12 385.24 177.26 380.93 177.36 Q 379.16 177.40 378.10 176.76 Q 380.81 173.88 385.82 175.14 Q 397.06 177.96 400.51 188.61 Z" transform="matrix(1, 0, 0, 1, 0, -1.4210854715202004e-14)"/>
  <path fill="#af7b28" d=" M 378.10 176.76 Q 379.16 177.40 380.93 177.36 C 385.24 177.26 389.54 178.12 392.46 181.05 Q 398.46 187.07 400.51 188.61 Q 403.65 208.11 385.23 213.44 Q 379.52 215.09 372.32 211.35 C 364.04 207.05 361.08 197.21 363.93 188.61 Q 365.30 184.49 367.76 182.25 Q 372.32 178.09 378.10 176.76 Z M 397.47 195.07 A 16.21 16.21 0.0 0 0 381.26 178.86 A 16.21 16.21 0.0 0 0 365.05 195.07 A 16.21 16.21 0.0 0 0 381.26 211.28 A 16.21 16.21 0.0 0 0 397.47 195.07 Z" transform="matrix(1, 0, 0, 1, 0, -1.4210854715202004e-14)"/>
  <path fill="#fcf4d3" d=" M 317.85 177.47 Q 315.47 181.84 313.90 182.78 Q 311.40 184.30 309.16 186.16 C 307.57 187.49 307.86 191.00 308.05 192.97 L 307.36 195.82 Q 306.93 197.58 306.72 195.78 Q 306.16 191.04 306.77 185.22 Q 306.95 183.50 308.20 182.67 Q 311.93 180.22 315.03 177.55 Q 316.02 176.69 317.85 177.47 Z" transform="matrix(1, 0, 0, 1, 0, -1.4210854715202004e-14)"/>
  <path fill="#c89b3f" d=" M 301.87 211.37 A 0.68 0.68 0.0 0 0 302.55 212.03 Q 320.13 211.94 337.75 212.13 C 341.90 212.17 348.10 212.06 351.14 213.82 Q 352.65 214.69 350.91 214.80 C 347.40 215.02 343.79 215.36 340.38 215.37 Q 319.47 215.40 298.57 215.40 Q 297.95 215.40 297.95 214.78 L 297.91 178.04 A 0.80 0.79 0.0 0 1 298.71 177.25 L 304.26 177.23 Q 304.88 177.23 304.46 177.68 Q 301.83 180.51 301.77 183.04 Q 301.39 197.30 301.87 211.37 Z" transform="matrix(1, 0, 0, 1, 0, -1.4210854715202004e-14)"/>
  <path fill="#c89b3f" d=" M 317.85 177.47 Q 320.41 177.59 320.65 179.88 Q 320.71 180.38 320.29 180.68 Q 316.79 183.17 314.00 186.36 Q 313.26 187.22 310.80 189.40 Q 309.14 190.88 308.05 192.97 C 307.86 191.00 307.57 187.49 309.16 186.16 Q 311.40 184.30 313.90 182.78 Q 315.47 181.84 317.85 177.47 Z" transform="matrix(1, 0, 0, 1, 0, -1.4210854715202004e-14)"/>
  <path fill="#af7b28" d=" M 418.82 191.22 Q 420.62 191.71 419.33 190.37 C 417.13 188.06 415.02 186.49 415.47 182.77 Q 415.75 180.48 416.22 178.14 A 0.27 0.27 0.0 0 1 416.71 178.03 C 419.68 182.06 423.53 183.89 428.76 185.58 Q 429.34 185.77 429.33 186.37 Q 429.28 190.70 426.42 192.47 Q 425.97 192.74 426.09 193.26 L 427.06 197.20 A 0.39 0.39 0.0 0 1 426.53 197.65 C 421.02 195.36 414.69 194.82 409.52 190.88 Q 408.54 190.14 409.27 189.14 L 411.94 185.48 A 0.46 0.45 -36.3 0 1 412.74 185.60 Q 414.24 189.97 418.82 191.22 Z" transform="matrix(1, 0, 0, 1, 0, -1.4210854715202004e-14)"/>
  <path fill="#010000" d=" M 397.47 195.07 A 16.21 16.21 0.0 0 1 381.26 211.28 A 16.21 16.21 0.0 0 1 365.05 195.07 A 16.21 16.21 0.0 0 1 381.26 178.86 A 16.21 16.21 0.0 0 1 397.47 195.07 Z M 368.67 197.35 Q 369.88 205.32 377.24 207.47 C 385.51 209.89 394.15 204.45 393.82 195.48 Q 393.84 190.37 390.32 186.49 Q 387.48 183.62 385.43 182.82 C 375.52 178.94 368.31 188.05 368.67 197.35 Z" transform="matrix(1, 0, 0, 1, 0, -1.4210854715202004e-14)"/>
  <path fill="#a06610" d=" M 430.61 194.62 C 434.39 193.16 433.39 189.21 432.96 186.13 A 0.91 0.90 75.5 0 1 433.52 185.17 Q 436.17 184.11 437.90 181.47 A 0.62 0.62 0.0 0 1 439.03 181.68 Q 439.42 183.43 438.88 185.53 Q 437.44 191.14 436.19 196.03 Q 436.03 196.62 435.46 196.82 L 430.28 198.64 Q 429.43 198.94 429.49 198.04 L 429.63 195.95 A 1.56 1.55 -8.8 0 1 430.61 194.62 Z" transform="matrix(1, 0, 0, 1, 0, -1.4210854715202004e-14)"/>
  <path fill="#fcf4d3" d=" M 390.32 186.49 Q 390.51 187.10 390.09 187.37 A 0.45 0.44 -45.7 0 1 389.65 187.38 Q 389.33 187.20 388.98 187.14 Q 388.38 187.04 388.33 187.65 C 387.97 191.81 384.71 195.41 380.24 194.68 Q 374.35 193.71 373.78 188.41 Q 373.70 187.67 373.24 188.25 Q 370.22 192.06 369.47 197.19 Q 369.28 197.16 368.67 197.35 C 368.31 188.05 375.52 178.94 385.43 182.82 Q 387.48 183.62 390.32 186.49 Z" transform="matrix(1, 0, 0, 1, 0, -1.4210854715202004e-14)"/>
  <path fill="#c89b3f" d=" M 317.23 195.34 Q 317.21 192.00 318.73 189.32 C 319.82 187.40 321.78 186.88 323.78 186.52 Q 324.14 186.45 324.16 186.08 Q 324.16 185.91 324.15 185.75 Q 324.08 185.20 323.54 185.12 L 318.27 184.33 Q 321.68 184.69 323.08 183.09 A 1.31 1.31 0.0 0 1 325.26 183.40 Q 326.45 186.00 326.42 188.78 A 0.95 0.91 68.8 0 1 326.14 189.45 L 323.73 191.83 Q 323.38 192.17 322.89 192.11 C 319.08 191.61 319.57 194.80 317.23 195.34 Z" transform="matrix(1, 0, 0, 1, 0, -1.4210854715202004e-14)"/>
  <path fill="#fcf4d3" d=" M 339.23 183.32 Q 339.67 183.78 340.22 183.86 Q 340.73 183.94 340.50 184.41 L 340.18 185.09 Q 337.80 187.16 333.56 187.04 Q 333.41 187.19 333.12 187.04 A 0.72 0.72 0.0 0 1 332.94 185.88 Q 335.61 183.28 339.23 183.32 Z" transform="matrix(1, 0, 0, 1, 0, -1.4210854715202004e-14)"/>
  <path fill="#fcf4d3" d=" M 318.27 184.33 L 323.54 185.12 Q 324.08 185.20 324.15 185.75 Q 324.16 185.91 324.16 186.08 Q 324.14 186.45 323.78 186.52 C 321.78 186.88 319.82 187.40 318.73 189.32 Q 317.21 192.00 317.23 195.34 L 316.44 198.75 Q 316.30 199.36 316.06 198.79 Q 315.26 196.95 315.52 194.75 Q 316.21 189.04 318.27 184.33 Z" transform="matrix(1, 0, 0, 1, 0, -1.4210854715202004e-14)"/>
  <path fill="#d5a543" d=" M 390.32 186.49 Q 393.84 190.37 393.82 195.48 Q 388.91 199.65 383.07 200.32 C 378.52 200.84 374.80 198.98 371.34 196.18 A 0.90 0.89 37.0 0 0 370.04 196.36 L 369.47 197.19 Q 370.22 192.06 373.24 188.25 Q 373.70 187.67 373.78 188.41 Q 374.35 193.71 380.24 194.68 C 384.71 195.41 387.97 191.81 388.33 187.65 Q 388.38 187.04 388.98 187.14 Q 389.33 187.20 389.65 187.38 A 0.45 0.44 -45.7 0 0 390.09 187.37 Q 390.51 187.10 390.32 186.49 Z" transform="matrix(1, 0, 0, 1, 0, -1.4210854715202004e-14)"/>
  <path fill="#efdaa3" d=" M 463.54 199.05 Q 463.06 200.19 462.33 200.91 Q 461.21 202.02 460.22 200.80 C 457.31 197.23 454.25 195.28 449.43 195.96 Q 448.82 196.05 448.37 196.47 L 442.75 201.69 Q 442.42 201.99 442.38 202.42 Q 441.79 209.18 441.97 215.41 Q 441.98 215.67 441.72 215.69 Q 441.34 215.72 441.53 215.94 Q 441.28 215.70 441.14 215.50 Q 440.99 215.30 440.99 214.96 Q 440.98 207.74 440.94 200.34 Q 440.94 199.67 441.39 199.18 L 451.73 187.78 A 1.09 1.09 0.0 0 1 453.34 187.78 L 463.54 199.05 Z" transform="matrix(1, 0, 0, 1, 0, -1.4210854715202004e-14)"/>
  <path fill="#fcf4d3" d=" M 355.32 190.57 Q 353.30 194.23 349.27 195.38 Q 348.67 195.33 349.10 194.59 Q 349.25 194.33 349.58 194.06 Q 352.05 192.05 354.12 189.64 Q 354.49 189.21 354.87 189.64 Q 355.14 189.94 355.32 190.57 Z" transform="matrix(1, 0, 0, 1, 0, -1.4210854715202004e-14)"/>
  <path fill="#af7b28" d=" M 355.32 190.57 C 357.18 191.94 356.78 194.80 356.34 196.99 Q 356.24 197.48 355.74 197.44 Q 352.11 197.15 349.27 195.38 Q 353.30 194.23 355.32 190.57 Z" transform="matrix(1, 0, 0, 1, 0, -1.4210854715202004e-14)"/>
  <path fill="#c89b3f" d=" M 322.56 201.96 Q 323.95 196.70 327.14 195.73 Q 327.62 195.58 327.82 195.37 Q 328.13 195.04 328.10 194.67 Q 328.05 194.10 327.49 194.06 L 324.97 193.85 Q 326.22 193.87 326.98 192.98 Q 327.30 192.59 327.78 192.45 C 330.26 191.74 331.30 193.32 330.99 195.53 C 330.64 198.01 330.44 200.79 327.20 200.66 Q 326.63 200.64 326.20 201.02 Q 323.89 203.08 323.52 206.64 Q 323.49 206.96 323.28 207.22 Q 323.17 207.36 323.01 207.42 Q 322.62 207.56 322.53 207.16 Q 321.72 203.77 322.56 201.96 Z" transform="matrix(1, 0, 0, 1, 0, -1.4210854715202004e-14)"/>
  <path fill="#a06610" d=" M 412.35 196.94 Q 413.09 197.40 412.23 197.42 L 407.02 197.57 Q 406.49 197.59 406.42 197.06 Q 406.21 195.43 406.64 193.85 Q 406.74 193.47 407.07 193.68 L 412.35 196.94 Z" transform="matrix(1, 0, 0, 1, 0, -1.4210854715202004e-14)"/>
  <ellipse fill="#a06610" cx="0.00" cy="0.00" transform="matrix(-0.6755902076156602, 0.7372773368101242, -0.7372773368101242, -0.6755902076156602, 334.239990234375, 195.39999389648438)" rx="1.91" ry="1.12"/>
  <path fill="#fcf4d3" d=" M 324.97 193.85 L 327.49 194.06 Q 328.05 194.10 328.10 194.67 Q 328.13 195.04 327.82 195.37 Q 327.62 195.58 327.14 195.73 Q 323.95 196.70 322.56 201.96 Q 321.70 195.40 324.97 193.85 Z" transform="matrix(1, 0, 0, 1, 0, -1.4210854715202004e-14)"/>
  <path fill="#af7b28" d=" M 393.82 195.48 C 394.15 204.45 385.51 209.89 377.24 207.47 Q 369.88 205.32 368.67 197.35 Q 369.28 197.16 369.47 197.19 L 370.04 196.36 A 0.90 0.89 37.0 0 1 371.34 196.18 C 374.80 198.98 378.52 200.84 383.07 200.32 Q 388.91 199.65 393.82 195.48 Z" transform="matrix(1, 0, 0, 1, 0, -1.4210854715202004e-14)"/>
  <path fill="#ba852a" d=" M 463.54 199.05 L 463.16 214.58 Q 463.13 215.71 462.06 215.35 L 457.28 213.78 Q 456.21 213.43 456.21 212.30 L 456.21 208.02 Q 456.21 206.85 455.03 206.83 L 449.25 206.77 Q 447.79 206.75 447.95 208.20 Q 448.05 209.18 447.80 212.24 Q 447.70 213.51 446.81 214.04 Q 444.22 215.60 441.53 215.94 Q 441.34 215.72 441.72 215.69 Q 441.98 215.67 441.97 215.41 Q 441.79 209.18 442.38 202.42 Q 442.42 201.99 442.75 201.69 L 448.37 196.47 Q 448.82 196.05 449.43 195.96 C 454.25 195.28 457.31 197.23 460.22 200.80 Q 461.21 202.02 462.33 200.91 Q 463.06 200.19 463.54 199.05 Z" transform="matrix(1, 0, 0, 1, 0, -1.4210854715202004e-14)"/>
  <path fill="#fcf4d3" d=" M 308.58 203.41 A 0.28 0.28 0.0 0 1 308.42 203.05 L 308.49 202.86 A 5.00 1.06 -69.0 0 1 311.27 198.57 L 311.27 198.57 A 5.00 1.06 -69.0 0 1 310.47 203.62 L 310.40 203.81 A 0.28 0.28 0.0 0 1 310.04 203.97 L 308.58 203.41 Z" transform="matrix(1, 0, 0, 1, 0, -1.4210854715202004e-14)"/>
  <path fill="#af7b28" d=" M 338.76 198.94 Q 346.87 203.11 355.77 203.15 A 2.48 2.47 72.3 0 1 357.79 204.20 L 359.02 205.94 Q 359.79 207.03 358.46 207.05 Q 343.65 207.31 328.89 205.74 A 0.03 0.03 0.0 0 1 328.87 205.69 Q 333.23 202.35 337.96 199.00 Q 338.34 198.73 338.76 198.94 Z" transform="matrix(1, 0, 0, 1, 0, -1.4210854715202004e-14)"/>
  <path fill="#af7b28" d=" M 404.34 205.82 L 405.40 203.96 A 1.95 1.93 -75.4 0 1 407.04 202.99 Q 413.53 202.88 421.10 203.33 Q 423.03 203.45 424.20 204.69 A 0.51 0.51 0.0 0 1 423.92 205.55 Q 414.17 207.24 404.94 206.89 Q 403.76 206.85 404.34 205.82 Z" transform="matrix(1, 0, 0, 1, 0, -1.4210854715202004e-14)"/>
  <path fill="#af7b28" d=" M 410.06 214.14 C 411.47 213.00 414.56 212.47 416.33 212.36 Q 425.28 211.79 434.08 212.03 Q 434.74 212.05 434.23 212.47 C 432.42 213.95 431.02 215.20 428.46 215.26 Q 419.23 215.48 410.23 214.71 Q 409.44 214.64 410.06 214.14 Z" transform="matrix(1, 0, 0, 1, 0, -1.4210854715202004e-14)"/>
  <path fill="#e5c375" d=" M 291.40 218.26 Q 293.29 220.20 296.50 220.17 Q 324.47 219.89 375.19 220.02 Q 374.93 220.36 374.86 220.65 Q 374.77 221.08 374.33 221.08 Q 335.42 220.86 296.50 220.98 Q 293.68 220.99 291.43 219.32 Q 290.23 218.42 291.40 218.26 Z" transform="matrix(1, 0, 0, 1, 0, -1.4210854715202004e-14)"/>
  <path fill="#d8af62" d=" M 427.66 220.30 Q 416.79 221.54 406.00 221.21 Q 395.76 220.90 385.52 221.12 Q 385.34 221.12 385.26 220.97 Q 385.20 220.88 385.15 220.74 Q 385.19 220.43 385.39 220.25 Q 385.54 220.11 385.87 220.11 Q 406.54 219.69 427.66 220.30 Z" transform="matrix(1, 0, 0, 1, 0, -1.4210854715202004e-14)"/>
</svg>